<svg width="64" height="64" xmlns="http://www.w3.org/2000/svg" xmlns:xlink="http://www.w3.org/1999/xlink"><defs><rect id="a" width="64" height="64" rx="2"/></defs><g fill="none" fill-rule="evenodd"><g><mask id="b" fill="#fff"><use xlink:href="#a"/></mask><use fill="#1694FF" xlink:href="#a"/><path d="M33.529 13.819c.497-.113-.647.454-.642.282.475-.198.46-.292.934-.49.084.03-.097.116-.292.207m-1.488.104c.278-.109.29-.16.292-.208.206-.082.19-.005.029.066.125-.002.37-.09.67-.217-.595.381.12.194.6.053-.082.114-.39.277-.758.454-.124-.16-.781.06-.833-.148m-2.6-.239c.45-.168.296-.207.614-.348-.095-.093-.561.08-.744.05.139-.053.146-.08.146-.104.107-.046.214-.094.32-.142.549-.079.008.388.804.082-.221.303.147.123.437.123-.023.054-.308.163-.291.208.619-.217-.111.274.875-.188-.18.246-.234.24.117.264-1.527.668-.746-.443-2.277.056m1.108-.965c-.577.165-.616-.053-.977-.043.54-.312.822-.066.977.043m.672.219c-.552.218-.302-.135-.613-.087.57-.238.786-.07.613.086m-2.657.066c-.174.008-.682.22-.38.008-.334.246-.95.387-1.486.539.328-.068.592-.25.962-.425-.177-.02-.23-.127-.73.085-.024-.056-.048-.112-.073-.166.326-.18.43-.31.92-.526-.117.291.6.096.394.46.229-.378.52-.082.393.024M8.187 10.72c-.033-.41-.514-.503-.585-.888.43.075 1.146.396.585.889M6.769 8.81c-.042-.441.265.246.527.322-.632.146-.52-.233-.527-.321m5.596 3.548l-.103-.232c-.166-.011-.235-.088-.307-.26.512-.183.619.352.41.492M6.704-5.655c.033.183-.004.17-.043.336-.23.082-.522-.128.043-.337m27.32 19.294c.257-.28-.65-.431-1.473-.299.485-.292-.32-.042.058-.302.872.05 1.249.232 2.364.143-1.13-.165-1.891-.383-3.401-.319-.014.228 1.229-.074.54.355-.34-.061-.783-.05-1.035-.175.267-.119.534-.236.802-.354-.285-.045-1.165.072-.541-.355-1.156.431-.29-.2-1.11.092-.076-.042.189-.16.279-.24-1.815.724-1.551.097-2.103.019.495-.167.805-.321.934-.492-.664.237-1.416.563-1.765.344.328-.101.826-.346.466-.245-.038.024-.591.045-.906.121-.272-.106-.04-.571-1.21-.136.066.289.595.06.876.245-.16.236-.666.32-.73.52.522-.207.469-.28.803-.354.276.205.57.187-.102.639-.14-.066-.364.086-.525.114.434-.24.355-.368.524-.548-.997.395-1.342.386-.948.021-.874.391-1.002.02-1.284.133.212-.093.173-.008.35-.075.28-.389-.068-.446-.76-.418-.71.31.273.079-.393.412-1.694.162-1.8-.277-2.044-.722.517-.122.4.19.934-.055-.101-.219-.814 0-1.314.066.293-.18-.357-.053.278-.242-1.024-.069-1.078-.392-1.884-.79.284-.223.709-.248.772-.421-.197.082-.384.156-.35.075-.221-.037-.01.114-.466.245-.485-.686-2.393-1.267-2.267-2.523-.524-.02-1.054-.064-.774-.45.59-.33.23.237.7-.151-.364.144-.137-.135-.263-.162-.416.133-.746.42-.801.356-.454-.197-.706-.633-.63-.99.037.033.083.058.35-.075-1.441-.007-1.5-.77-1.753-1.364-.636-.157-.748-.46-.571-.857-1.46-.939-2.535-2.867-3.597-4.669.205-.082.35-.093.307-.174-.61.138-.096-.322-.584-.02.124-.672-1.237-.61-.323-1.599-.57.288-.227-.072-.555.046-.708-1.216-1.266-2.56-2.034-3.298.06.07.102.146-.247.306.074-.14-.746.36-.672.218.28-.205.215-.337 1.05-.662-.102-.232-.204-.465-.307-.696-.126.01-.53.242-.686.184-.632-1.362-.947-2.491-1.961-4.004-.068.099.28.109-.074.27-.301-.508-.444-.783-.585-1.325-.602.726.24 1.204-.026 1.674-.157-.006-.138-.14-.613-.086-.512 2.982 2.19 4.583 2.258 7.28.014.59.466 1.198.6 1.794.29 1.284 1.932 2.214 1.875 3.806C6.409 2.12 5.902.357 4.827-1.222c-.255-.377-.086-1.034-.79-1.355-.18-.082-.188.258-.043.336-.916.793.163.856.367 1.264.08.16-.224.502-.101.638.157.178.144.353.22.497 1.816 3.502 3.872 5.898 5.66 8.906.237.396.66.734.412 1.363.253-.109.554-.25.51-.147.107.691 1.038.904.878 1.553-1.017-.739-1.57-1.624-2.703-2.21.568.556 1.02 1.215 1.594 1.868-.017.055-.17.1-.321.142 1.427.402 1.637 1.327 2.045 2.027-1.361-.595-1.89-1.755-3.213-2.5l-.06-.133c-.233.11-.11.144-.101.204-.116.415.78.273.132.732-.086-.613-1.013-.627-.761-1.287.248.063-.043.283.439.123-.901-1.043-1.418-2.54-2.968-3.243.284.127.445.44.308.697C5.054 7.13 4.536 5.963 3.61 4.703c-.084-.115-.581-.778-.423-.09.346 1.5 1.837 2.793 2.736 4.019 2.242 3.058 3.76 4.279 6.198 6.648.71.69 1.616 1.408 2.586 1.946 1.603.89 3.684 1.546 5.724 2.105 1.31.358 3.154.438 5.429.134.442-.227.438-.137.817-.322.565-.255.676-.412 1.24-.666.456-.194.269.07.86-.221.108-.23.385-.23.804-.355-.341-.104.455-.229.408-.378.477-.181.485-.027 1.182-.364.233-.184.269-.325.713-.553.646-.173.357-.2.832-.29.423-.393.113-.31.612-.784.545-.153 1.336-.805.875-.624.4-.171.78-.338.772-.421-.553.056-.673-.136-.554-.39-.487.193-1.235.16-.308-.258-.274.275.263.053.716-.12-.251.116-.56.242-.452.28.686-.293.13.058.845-.256-.512.29-.342.205-.232.341.814-.33-.268-.027.262-.274.276-.12.418.072.686-.184-.783.005-.976-.271-1.913.013" fill-opacity=".48" fill="#007AE2" mask="url(#b)"/><path d="M104.791 7.743c-.076-.236.575-.813.782-.24-.455.206-.406.146-.782.24M39.68 38.947l.864-.316c.172-.227.485-.38 1.121-.608.202.534-1.685 1.092-1.985.924m-13 28.152c-1.029.087-.964 1.163-2.189 1.165 1.263.025-.19.843-.478.725.133-.301-.204-.988.334-.665-.634-.347-.587-1.297-.662-2.094-.056.514.4.796.73 1.276.247-.333.722-.534.379-1.209l.72-.296c.385.395.8.447 1.166 1.098M23.76 73c-.05-.965.517-1.289.711-2 .44.726-.345 1.57-.71 2m-1.89.926c-.201-.562.518-.496.593-.87.239.573-.314.982-.592.87m-.287-.615c-.959-.099-.622.425-.904.997-.185.012-.333-.427-.525-.343.245.974-.954.084-.119 1.51-.783-.08-.71-.193-1.145.526-1.1-2.263 2.447-1.958 2-4.412.222.693.524.347.766.815.446-.29.23-1.011.52-1.403.077.212.167.197.263.17l.238.473c-.224.99-1.509.443-1.094 1.667m-3.228 4.202c-.12.26-.015.676.192 1.159-.93-.805-.902.485-.817 1.329-.377-.038-.72-.495-1.053-1.067.764-.444.539-1.573 1.432-1.933.154.46.346.426.54.37.118.338-.17.396-.294.142m-1.127 2.165c-.033.568-.723-.517-.3-.633.196.475.437.39.635.864-.128.132-.232-.042-.335-.23M52.68 27c-.514.817-1.944 2.373-3 1.918 1.224-.48 1.826-1.4 3-1.919m3.513-2.904c1.545-.39-1.045.518-1.514.904.007-.682 1.21-.828 1.514-.904m64.62-27.256c1.918-1.23 2.942-1.857 4.866-2.825-2.013-.21-4.214 2.01-5.604 2.108.132-.307.567-.442.724-1.278-9.63 2.855-16.972 10.004-26.136 13.429-1.992.757-4.396 2.338-6.51 3.317-4.55 2.102-8.948 6.306-14.313 8.065 5.402-3.582 11.75-6.655 17.886-10.6 1.467-.937 3.55-1.432 5.154-3.154.407-.44-.73-.04-1.101.33-1.992-.762-2.998 1.364-4.533 2.242-.603.344-1.527.184-2.082.582-.714.509-1.296.696-1.842 1.015-13.185 7.643-22.92 14.288-34.604 21.016-1.538.881-3.036 2.052-4.979 2.289.164.353.407.755.088.79-2.441.976-3.931 2.933-6.019 3.351 3.358-2.697 6.823-4.724 9.73-7.495-2.355 1.68-4.963 3.275-7.66 5.055-.175.03-.202-.206-.223-.44-2.528 3.092-5.864 4.512-8.603 6.019 3.162-3.164 7.552-5.433 11.16-8.722l.5-.257c-.19-.315-.405-.046-.612.037-1.32.247-1.556 1.76-2.609 1.059 2.165-.833 2.958-2.59 5-2.85-.41.532-.922.234-.771.955 4.28-2.834 9.784-5.5 13.38-9.204-.652.68-1.832 1.338-2.6 1.37 4.812-3.67 9.17-5.988 14.136-9.203.453-.293 3.072-1.999.628-.9-5.33 2.408-10.862 6.698-15.729 9.769-12.156 7.647-17.542 11.817-27.664 18.885-2.955 2.052-6.172 4.494-8.835 6.854-4.407 3.9-8.444 8.416-12.141 12.755a24.65 24.65 0 0 0-5.216 10.147c.403.583.092.666.397 1.18.388.784.837.83 1.224 1.611.274.644-.479.57.014 1.366.706-.039.46.474.524 1.12.667-.735.395.608.96.368.205.697-.338.87.22 1.814.433.243.892.167 1.298.754.024 1.017.379.455.268 1.243 1.002.378.983-.11 2.201.326.054.85 1.625 1.645 1.407.975.244.567.487 1.1.785.999.298-.969 1.074-1.385 1.856-1.428-.238-.703.535-2.118 1.185-.836-.724-.223-.426.541-.223 1.202-.179-.346-.35-.785-.575-.55.419.97-.324.304.141 1.304-.555-.652-.411-.425-.986-.08.434 1.166.335-.524.727.203.173.387-.627.847.038 1.079.68-1.445 1.818-2.087 1.65-3.525.76.187 2.091-1.66 2.347-3.047.598.593.43-.635 1.007-.207-.942 1.667-1.908 2.562-2.587 4.535 1.58-2.266 3.016-3.915 4.11-6.643-.78.211-.818 2.2-1.714 1.375.517-.696.865-1.508 1.522-2.105l.534 1.115c.407-.575.764-2.083 1.714-1.375-.5-1.687.955-.747.64-1.957.22-.19.4.176.6.258-.942-2.605 1.01-2.781 1.758-3.887.153.741.42 1.154.904 1.212-.252-.983-.737-2.034.325-2.913.07.502.495 1.166.452.604-.05-.044.351-1.048.352-1.549.609-.621 2.026-.68 1.522-2.396-1.06.433-.726 1.17-1.609 1.888-.682-.045-.542-.895-1.182-.8.272.746.575.57.543 1.112-.947.728-1.141 1.26-2.133.49.35-.332.011-.585.06-.856.454.552.968.27 1.453.393-.518-1.432-.194-2.08.735-1.737-.604-1.207.793-1.837.644-2.24.142.294-.126.311-.038.568 1.104.109 1.6-.604 2.09-1.86-.47-.99-.501.59-1.089-.29.88-2.978 2.483-3.645 4.224-4.575-.012.829-.99.947-.596 1.676.841-.424.69-1.514.884-2.37.371.35.478-.72.598.255 1.102-1.977 2.255-2.434 4.307-4.37.527.286.26 1.052.806.98-.121-.277-.224-.543.032-.57.312-.453-.387.108-.459-.6 2.776-1.642 6.341-5.86 10.554-7.013.494-1.005 1.075-2.046 2.173-1.955.652.733-.998.699-.05 1.14-.199-.52.573-.409.766-.674-.117-.63-.828-.925-.565-1.102 1.038-1.066 2.742-2.033 3.903-2.29-.141.105-.265.219-.025.57 1.193-2.7 3.838-3.689 6.076-4.841 1.048-1.375 2.169-1.922 3.383-2.054 4.36-3.832 11.773-8.091 18.7-12.269.121.288.048.55.36.369-.002-.985 1.164-.565.514-1.124 2.193-.57 3.015-3.07 5.673-2.546-.55-.722.411-.514.26-.991 4.665-2.809 9.616-5.54 12.681-7.91-.284.205-.57.377-.852-.085.418-.035-.66-.97-.24-1.004.488.278.977-.011 1.46 1.166l2.573-1.455c.055-.225-.428-.703-.118-1.072 4.93-2.828 8.896-4.844 14.47-8.54-.143.11-.285.161-.43-.07" fill-opacity=".12" fill="#FFF" mask="url(#b)"/></g><g transform="translate(16 16)"><path d="M31.625 10.219L27 6.519V0h-2v6.519l-4.625 3.7A1 1 0 0 0 20 11v4a1 1 0 0 0 2 0v-3.52l4-3.2 4 3.2V15a1 1 0 0 0 2 0v-4a1 1 0 0 0-.375-.781z" fill="#FFF"/><rect fill="#C8E6FF" x="20" y="20" width="12" height="6" rx="1"/><path d="M31 28H1a1 1 0 0 0 0 2h30a1 1 0 0 0 0-2zM1 26h14a1 1 0 0 0 1-1V11a1 1 0 0 0-1-1H1a1 1 0 0 0-1 1v14a1 1 0 0 0 1 1zm5-12h4a1 1 0 0 1 0 2H6a1 1 0 0 1 0-2z" fill="#FFF"/></g></g></svg>