<svg width="64" height="64" xmlns="http://www.w3.org/2000/svg" xmlns:xlink="http://www.w3.org/1999/xlink"><defs><rect id="a" width="64" height="64" rx="2"/></defs><g fill="none" fill-rule="evenodd"><g><mask id="b" fill="#fff"><use xlink:href="#a"/></mask><use fill="#1694FF" xlink:href="#a"/><path d="M32.85 13.818c.497-.112-.647.455-.642.283.475-.198.46-.292.934-.491.084.03-.097.117-.292.208m-1.488.104c.278-.109.29-.16.292-.208.206-.082.19-.006.029.065.125-.002.37-.089.67-.217-.595.382.12.195.6.053-.082.114-.39.277-.758.454-.124-.159-.781.061-.833-.147m-2.6-.239c.45-.169.296-.208.614-.349-.095-.092-.561.081-.744.051.139-.054.146-.08.146-.104l.32-.142c.549-.079.008.387.804.081-.221.303.147.123.437.123-.023.054-.308.163-.291.208.619-.217-.111.274.875-.188-.18.247-.234.241.117.265-1.527.668-.746-.443-2.277.055m1.108-.965c-.577.165-.616-.053-.977-.043.54-.311.822-.065.977.043m.672.219c-.552.219-.302-.134-.613-.086.57-.238.786-.07.613.086m-2.657.065c-.174.009-.682.221-.38.009-.334.245-.95.386-1.486.538.328-.067.592-.249.962-.424-.177-.02-.23-.128-.73.084-.024-.055-.048-.111-.073-.165.326-.18.43-.311.92-.526-.117.291.6.096.394.46.229-.379.52-.082.393.024M7.508 10.719c-.033-.411-.514-.504-.585-.889.43.076 1.146.396.585.889M6.09 8.811c-.042-.442.265.246.527.322-.632.145-.52-.234-.527-.322m5.596 3.548l-.103-.232c-.166-.011-.235-.088-.307-.26.512-.182.619.353.41.492M6.025-5.656c.033.183-.004.17-.043.336-.23.082-.522-.127.043-.336m27.32 19.294c.257-.281-.65-.432-1.473-.299.485-.292-.32-.042.058-.302.872.05 1.249.232 2.364.143-1.13-.166-1.891-.384-3.401-.319-.014.228 1.229-.074.54.355-.34-.062-.783-.05-1.035-.175l.802-.355c-.285-.045-1.165.073-.541-.355-1.156.432-.29-.2-1.11.093-.076-.043.189-.161.279-.241-1.815.724-1.551.097-2.103.019.495-.167.805-.321.934-.492-.664.238-1.416.563-1.765.344.328-.101.826-.346.466-.245-.038.024-.591.046-.906.122-.272-.107-.04-.572-1.21-.137.066.289.595.061.876.246-.16.235-.666.32-.73.52.522-.207.469-.281.803-.354.276.204.57.186-.102.638-.14-.065-.364.087-.525.114.434-.239.355-.368.524-.548-.997.395-1.342.387-.948.022-.874.391-1.002.02-1.284.132.212-.093.173-.007.35-.075.28-.388-.068-.445-.76-.417-.71.31.273.078-.393.411-1.694.162-1.8-.276-2.044-.721.517-.122.4.189.934-.055-.101-.219-.814-.001-1.314.065.293-.18-.357-.052.278-.241-1.024-.069-1.078-.392-1.884-.791.284-.222.709-.247.772-.421-.197.082-.384.157-.35.075-.221-.037-.01.114-.466.246-.485-.686-2.393-1.267-2.267-2.523-.524-.021-1.054-.064-.774-.45.59-.33.23.236.7-.152-.364.145-.137-.134-.263-.161-.416.133-.746.419-.801.355-.454-.196-.706-.633-.63-.99.037.033.083.058.35-.075-1.441-.007-1.5-.769-1.753-1.364-.636-.157-.748-.459-.571-.857-1.46-.938-2.535-2.866-3.597-4.668.205-.082.35-.093.307-.175-.61.138-.096-.321-.584-.019.124-.673-1.237-.611-.323-1.599-.57.288-.227-.072-.555.046-.708-1.217-1.266-2.56-2.034-3.299.06.071.102.147-.247.307.074-.14-.746.359-.672.218.28-.206.215-.337 1.05-.662-.102-.233-.204-.465-.307-.696-.126.01-.53.242-.686.184-.632-1.363-.947-2.492-1.961-4.005-.068.099.28.109-.074.27-.301-.507-.444-.782-.585-1.325-.602.726.24 1.204-.026 1.674-.157-.005-.138-.139-.613-.085-.512 2.982 2.19 4.583 2.258 7.28.014.589.466 1.198.6 1.794.29 1.284 1.932 2.213 1.875 3.805C5.73 2.12 5.223.356 4.148-1.222c-.255-.377-.086-1.033-.79-1.355-.18-.081-.188.258-.043.336-.916.793.163.856.367 1.264.08.161-.224.502-.101.639.157.177.144.352.22.497C5.617 3.66 7.673 6.057 9.46 9.064c.237.396.66.734.412 1.363.253-.108.554-.25.51-.146.107.691 1.038.904.878 1.553-1.017-.739-1.57-1.625-2.703-2.211.568.556 1.02 1.216 1.594 1.869-.017.055-.17.099-.321.142 1.427.401 1.637 1.327 2.045 2.027-1.361-.595-1.89-1.756-3.213-2.501l-.06-.132c-.233.11-.11.144-.101.203-.116.415.78.273.132.733-.086-.613-1.013-.627-.761-1.287.248.062-.043.282.439.123-.901-1.043-1.418-2.541-2.968-3.243.284.127.445.439.308.696C4.375 7.13 3.857 5.962 2.93 4.702c-.084-.115-.581-.777-.423-.09.346 1.5 1.837 2.794 2.736 4.019 2.242 3.058 3.76 4.279 6.198 6.648.71.691 1.616 1.408 2.586 1.946 1.603.89 3.684 1.546 5.724 2.105 1.31.359 3.154.438 5.429.134.442-.227.438-.136.817-.321.565-.255.676-.412 1.24-.666.456-.194.269.07.86-.222.108-.23.385-.23.804-.355-.341-.104.455-.228.408-.378.477-.181.485-.027 1.182-.364.233-.184.269-.324.713-.553.646-.172.357-.2.832-.289.423-.394.113-.31.612-.785.545-.153 1.336-.804.875-.624.4-.171.78-.338.772-.421-.553.056-.673-.136-.554-.389-.487.192-1.235.16-.308-.259-.274.276.263.054.716-.119-.251.115-.56.242-.452.28.686-.294.13.058.845-.256-.512.289-.342.205-.232.341.814-.331-.268-.028.262-.275.276-.119.418.073.686-.184-.783.005-.976-.271-1.913.013" fill-opacity=".48" fill="#007AE2" mask="url(#b)"/><path d="M104.112 7.743c-.076-.236.575-.813.782-.24-.455.206-.406.146-.782.24M39 38.947l.864-.316c.171-.227.485-.38 1.12-.608.203.534-1.685 1.092-1.984.924M26 67.098c-1.03.088-.964 1.163-2.189 1.166 1.263.024-.19.843-.479.724.134-.3-.203-.987.334-.665-.633-.347-.587-1.296-.661-2.094-.056.514.4.796.73 1.277.246-.334.722-.535.378-1.21l.721-.296c.385.395.8.448 1.166 1.098M23.081 73c-.05-.966.517-1.29.711-2 .44.726-.345 1.57-.71 2m-1.89.925c-.201-.562.518-.496.593-.869.239.572-.314.981-.592.87m-.287-.615c-.959-.1-.622.425-.904.996-.185.012-.334-.426-.525-.342.245.974-.954.083-.119 1.51-.783-.08-.71-.193-1.145.525-1.1-2.263 2.447-1.957 2-4.412.222.693.524.347.765.816.447-.29.23-1.012.52-1.404.077.213.168.198.264.17l.238.474c-.224.989-1.509.443-1.094 1.667m-3.228 4.201c-.12.26-.015.676.192 1.16-.93-.806-.903.484-.817 1.328-.377-.037-.72-.494-1.053-1.066.764-.444.539-1.573 1.432-1.934.153.46.346.427.54.37.118.339-.17.397-.294.142m-1.127 2.166c-.033.568-.723-.517-.3-.633.196.475.437.389.635.864-.128.132-.232-.042-.335-.231M52 27c-.513.818-1.943 2.373-3 1.918 1.225-.48 1.827-1.4 3-1.918m3.514-2.905c1.545-.39-1.045.518-1.514.905.007-.683 1.21-.829 1.514-.905m64.62-27.256c1.918-1.23 2.942-1.856 4.866-2.825-2.013-.21-4.214 2.01-5.604 2.108.132-.306.567-.442.724-1.278-9.63 2.855-16.973 10.004-26.136 13.43-1.992.756-4.396 2.338-6.51 3.316-4.551 2.103-8.948 6.306-14.313 8.065 5.401-3.582 11.75-6.654 17.886-10.6 1.466-.937 3.55-1.431 5.154-3.154.407-.439-.73-.04-1.102.33-1.991-.762-2.997 1.365-4.532 2.243-.603.343-1.527.184-2.082.582-.714.508-1.296.696-1.842 1.015-13.185 7.643-22.92 14.288-34.604 21.016-1.538.88-3.037 2.051-4.979 2.288.164.353.407.756.087.79-2.44.977-3.93 2.934-6.018 3.352 3.358-2.697 6.823-4.725 9.73-7.495-2.355 1.679-4.964 3.274-7.66 5.055-.176.03-.202-.206-.223-.44-2.529 3.091-5.864 4.512-8.603 6.018 3.162-3.164 7.552-5.433 11.16-8.721l.5-.257c-.19-.315-.405-.047-.612.037-1.32.247-1.557 1.759-2.609 1.058 2.165-.833 2.958-2.59 5-2.849-.41.531-.922.233-.772.955 4.28-2.834 9.785-5.5 13.381-9.205-.652.68-1.832 1.339-2.6 1.371 4.811-3.671 9.17-5.988 14.136-9.203.453-.294 3.071-2 .628-.9-5.33 2.408-10.863 6.697-15.729 9.768C44.7 30.357 39.314 34.526 29.192 41.594c-2.955 2.052-6.172 4.495-8.835 6.854-4.407 3.9-8.444 8.417-12.141 12.756A24.65 24.65 0 0 0 3 71.35c.403.583.092.667.397 1.18.388.784.837.83 1.224 1.612.273.644-.479.569.014 1.365.706-.038.46.474.524 1.121.666-.736.395.607.96.367.205.698-.339.871.22 1.815.433.242.892.166 1.298.754.024 1.016.379.454.267 1.242 1.003.379.983-.11 2.202.326.053.85 1.625 1.645 1.407.976.244.566.487 1.1.784.998.299-.968 1.075-1.385 1.857-1.427-.238-.703.535-2.118 1.184-.836-.724-.223-.425.54-.222 1.201-.18-.346-.35-.785-.575-.549.418.969-.324.304.141 1.303-.555-.652-.411-.425-.986-.08.434 1.166.335-.524.727.203.173.387-.627.847.038 1.079.68-1.444 1.818-2.087 1.65-3.524.76.186 2.09-1.66 2.347-3.047.597.593.43-.636 1.007-.208-.942 1.668-1.908 2.563-2.587 4.535 1.58-2.266 3.015-3.915 4.11-6.643-.78.212-.819 2.201-1.714 1.375.517-.696.864-1.508 1.522-2.105l.534 1.116c.407-.575.763-2.083 1.714-1.376-.5-1.687.955-.747.64-1.957.22-.189.4.177.6.259-.943-2.605 1.01-2.782 1.757-3.887.154.74.42 1.153.905 1.211-.252-.983-.737-2.033.325-2.913.069.503.494 1.166.452.604-.05-.043.35-1.047.352-1.548.609-.622 2.026-.681 1.521-2.397-1.059.434-.725 1.171-1.608 1.888-.682-.045-.542-.895-1.182-.8.272.747.575.57.542 1.112-.946.729-1.14 1.26-2.132.49.35-.332.011-.584.06-.855.454.552.968.27 1.453.392-.519-1.432-.195-2.08.735-1.737-.604-1.207.793-1.837.644-2.24.142.295-.126.312-.038.569 1.104.108 1.6-.605 2.09-1.861-.47-.989-.502.591-1.089-.29.879-2.978 2.483-3.644 4.224-4.575-.013.83-.99.948-.596 1.676.841-.423.689-1.513.883-2.37.372.351.48-.72.599.255 1.101-1.976 2.255-2.434 4.307-4.37.527.287.26 1.052.806.98-.121-.277-.224-.542.032-.57.311-.452-.387.108-.459-.6 2.776-1.641 6.341-5.859 10.554-7.012.494-1.005 1.074-2.046 2.173-1.956.652.733-.999.7-.05 1.141-.2-.52.573-.41.766-.675-.117-.63-.829-.925-.565-1.101 1.038-1.066 2.742-2.033 3.903-2.29-.141.104-.265.219-.026.57 1.193-2.7 3.838-3.69 6.077-4.842 1.047-1.375 2.169-1.921 3.383-2.054 4.36-3.832 11.773-8.09 18.7-12.268.121.288.048.549.36.368-.002-.984 1.164-.565.513-1.124 2.193-.57 3.016-3.07 5.674-2.546-.55-.721.411-.514.259-.99 4.666-2.81 9.617-5.54 12.682-7.91-.285.204-.57.376-.852-.085.418-.036-.66-.97-.24-1.004.488.278.976-.012 1.46 1.166l2.573-1.456c.055-.224-.428-.703-.118-1.071 4.93-2.829 8.896-4.845 14.469-8.54-.142.109-.285.161-.428-.07" fill-opacity=".12" fill="#FFF" mask="url(#b)"/></g><path d="M48 16H16v2h10v2a1 1 0 0 0 .628.929L31 22.677V25a1 1 0 0 0 2 0v-2.323l4.372-1.748A1 1 0 0 0 38 20v-2h10v-2z" fill="#FFF"/><path d="M32 37l8-4-7.553-3.776a1 1 0 0 0-.894 0L24 33l8 4z" fill="#C8E6FF"/><path d="M31 38.736l-8-4v8.646a1 1 0 0 0 .553.894L31 48v-9.264z" fill="#FFF"/><path d="M33 38.736V48l7.447-3.724a1 1 0 0 0 .553-.894v-8.646l-8 4z" fill="#C8E6FF"/></g></svg>