<svg width="1440" height="244" xmlns="http://www.w3.org/2000/svg"><path d="M1397.977 238.101c.573-.219 1.064-.126 1.476.162 1.335.935 1.82 3.933 1.451 5.047-2.42.581-3.041-3.376-2.927-5.209zm18.538-15.429c.075.044.15.092.223.143.565.395 1.045 1.024 1.372 2.103-1.04.678-1.869.791-2.612.637-.508-1.282-.17-2.244 1.017-2.883zm-87.91 19.65c-1.78 1.545-3.864-3.07-1.562-3.461 1.357 1.253.848 1.603 1.562 3.46zm83.676-47.046c1.185-.472 2.514-.212 3.548.512 1.099.769 1.863 2.064 1.763 3.561-1.852-.717-5.266-1.86-5.31-4.073zm-96.37 45.884c.172.084.3.157.396.224.594.416-.065.607.496 1.748-1.664 1.268-2.908-1.49-.891-1.972zm-3.026-10.566c.429.03.818.182 1.165.425 2.321 1.625 2.74 7.345.492 8.39-3.764 1.755-9.354-6.568-1.657-8.815zm76.3-35.126c.817.199 1.989.521 2.886 1.15.875.613 1.489 1.517 1.25 2.88-1.76.03-4.064-2.839-4.136-4.03zm36.322-19.694c1.935-.432 3.123-.264 3.778.194.94.66.78 1.917.166 2.859-1.083 1.66-3.585 2.33-3.944-3.053zm-60.817 10.346c4.455-3.721 9.908-3.2 13.746-.512 2.165 1.516 3.815 3.721 4.482 6.242 1.972 7.447-4.906 12.45-12.37 13.69-5.106-2.211-7.353-4.368-9.609-11.031 2.19-2.833 1.409-6.434 3.751-8.389zm-36.16 31.625c.276.025.557.148.835.343 1.44 1.008 2.804 3.93 2.794 5.129-1.142.981-1.403-.525-2.354-.08.285-2.424-1.177-3.258-1.275-5.392zm32.763-9.601c-2.138.052-4.313-4.607-2.2-6.156 1.244 2.251 1.708 4.196 2.2 6.156zm-63.859 21.654c1.31-.01 2.62-.021 3.669.713.08.056.159.116.236.181-3.55 1.427-6.706 1.74-8.938-.549.263-.448.54-.887 1.207-1.177 1.072.853 2.45.843 3.826.832zm86.2-83.914c2.907.094 6.04.235 8.164 1.722 1.083.76 1.905 1.869 2.3 3.5 1.288 5.264-5.378 8.21-9.792 5.264-2.146-4.23-.188-6.89-.672-10.486zm-57.946 35.997c.803-.772 1.853-1.708 2.723-1.1.207.146.405.38.585.723-.38 1.106-2.873 2.438-3.308.377zm-51.047 24.302c.78-.165 1.915-1.32 2.495-.913.163.114.282.35.338.762-1.018.873-2.003 2.17-2.833.15zm-18.031 4.986c.042.026.083.053.122.08 1.382.97 1.327 2.477.664 3.559-.662 1.078-1.928 1.735-2.975 1.01l-.018-.013c-.454-.322-.865-.907-1.166-1.834.388-1.214 1.438-2.18 3.373-2.802zm63.86-37.012c.822-.556 1.485-.658 1.988-.306.345.242.616.7.812 1.374-1.39.94-2.324.585-2.8-1.068zm-17.845-2.31c.608-.381 1.085-.388 1.464-.122.363.254.639.757.857 1.419-.476.229-.954.456-1.427.682-.3-.66-.597-1.317-.894-1.98zm-15.618 2.637l1.91-.91c.667.937.261 1.466.412 2.206-1.189.746-1.879.059-2.322-1.296zm-26.37 8.35c-2.454.475-2.394-2.717.068-2.429l.668 1.48c-.593.185-.802.514-.736.95zm20.036-18.545c1.179-.473 2.302-.8 3.11-.234.358.251.655.678.868 1.347-.367 1.051-2.795 2.211-3.819 1.816-1.117-1.386.063-1.887-.159-2.929zm-6.839.257c.35-1.097 2.249-1.596 3.595-2.31 1.341 2.581-.662 5.815-3.178 4.516.17-.62.006-1.359-.417-2.206z" fill="#1694FF" fill-rule="evenodd" fill-opacity=".48"/></svg>