<svg width="1792" height="1008" xmlns="http://www.w3.org/2000/svg"><g fill="none" fill-rule="evenodd"><path d="M1272.493 305.348c36.33 22.803 72.966 45.294 110.093 66.91.454.267-.062 1.336-.553 1.141-20.025-7.835-40.163-15.688-60.244-23.886-20.08-8.198-40.099-16.749-59.83-25.968-19.728-9.219-39.168-19.107-58.043-29.948-18.874-10.84-37.182-22.632-54.605-35.624-8.813-6.567 5.682-27.312 14.772-21.524 36.049 22.968 72.075 46.092 108.41 68.9z" fill="#007AE2"/><path d="M660.743 359.27c-.552 4.691-3.762 4.564-5.925 6.337-1.7-1.166-3.341-2.355-5.062-3.515.313-2.09-.21-3.71.383-5.956 2.727-2.071 9.228.19 10.604 3.134zm20.873 9.573c-1.049 2.364-3.362 2.415-6.255 1.393.509-3.351 3.35-2.431 6.255-1.393zm-15.757 2.355c-2.403-.639-4.816-1.266-5.357-3.012 1.41-6.676 7.852-2.276 5.357 3.012zm4.925-4.357c2.075.52 2.01 4 .482 5.108-3.27-.246-1.581-3.557-.482-5.108zm-76.479-14.787c2.348 1.381 2.443 4.11 1.715 7.31-.927-2.22-3.1-3.72-1.715-7.31zm28.81 20.206c2.1 1.43 3.608 3.193 2.42 6.399-2.856-.894-4.186-4.765-2.42-6.4zm-27.266.207c-2.316-.767-2.817-4.553-.395-5.104 1.886.747.863 3.087.395 5.104zm-15.297-5.926c.625 1.094-.18 2.98-.67 4.692-2.97-.518-3.866-2.171-2.676-5 .884-.318 1.938-.336 3.346.308zm15.586 6.977c2.902.98 4.395 2.73 2.872 6.082-.928.478-2.369.043-3.859-.475-.518-1.425-.86-4.473.987-5.607zm112.918 37.193c-.534 3.211-2.191 4.205-4.96 2.962-1.501-3.375 3.196-6.171 4.96-2.962zm-185.521-52.338c-.266 1.95-1.67 1.556-3.163.952.16-.595.328-1.199.493-1.794.917-.546 2.183-.147 2.67.842zm-31.632-8.593c1.765.716 1.454 4.017-.182 5.023-1.444-.211-2.272-.764-2.824-1.452.388-2.296 1.996-2.403 3.006-3.571zm91.941 32.144c-.298 1.028-.602 2.055-.897 3.087-1.564.762-5.519.482-6.898-1.37-1.796-6.773 7.079-6.852 7.795-1.717zm-36.443-6.55c-.341 1.174-.68 2.337-1.01 3.51-3.043 1.711-8.246-1.678-7.881-4.911 1.34-3.87 7.949-1.429 8.891 1.4zm27.722 14.377c1.236 5.053 3.345 9.567 4.552 14.655-6.32.472-6.635-9.894-4.552-14.655zm150.864 61.596c1.587 1.513 1.71 3.753-.236 5.016-2.62-.62-1.597-4.395.236-5.016zm-189.73-54.791c-.41 1.987-1.513 2.675-3.173 2.284.406-1.979 1.518-2.67 3.172-2.284zm-14.174.888c2.66.783 5.557 1.44 7.159 2.827-.065 2.06.452 5.672-1.382 7.073-3.153-2.61-5.853-5.482-5.777-9.9zm-32.568 7.54c-.224-5.418-5.65-7.916-6.012-13.254 3.254-1.187 3.433 3.054 6.103 3.84 2.118-1.375 4.05-7.316 7.04-3.948-1.59 5.939-3.72 10.87-7.13 13.363zm231.325 65.504c-3.502.935-5.318-2.799-5.283-5.44 1.78.02 5.983 2.42 5.283 5.44zm50.45 21.93c-1.518 3.356-9.243 2.576-7.702-2.2 2.898-.018 6.108.349 7.703 2.2zm-287.337-81.146c2.84 1.106.573 5.364.697 8.151-4.15-.116-2.382-6.06-.697-8.151zm230.836 72.044c.58.169 1.157.347 1.733.516-.281 1.614-.947 2.515-2.424 1.88.233-.795.46-1.593.691-2.396zm-262.52-63.37c-2.136-1.286-8.651-1.516-7.166-5.916 3.6-.204 7.784 2.442 7.166 5.917zm13.322 7.932c-3.523-1.388-6.07-3.303-5.358-7.031 4.077-4.613 11.11 3.62 5.358 7.031zm241.65 86.692c-1.28.37-3.645 1.006-4.591-.76.5-4.982 7.336-4.989 4.592.76zm33.385 16.59c2.517 1.124 1.526 3.799-.114 5.034-1.49-.784-1.518-3.942.114-5.033zm23.773 17.48c-2.182-3.763-4.88-.188-8.96-2.13.105-1.366-.8-2.094-.25-3.762 4.61.286 9.464-.702 9.21 5.891zm-18.798-3.015c-1.053.384-1.787 1.343-2.682 2.015-1.838-.797-2.848-2.06-3.1-3.74 1.126-4.274 6.87-2.1 5.782 1.725zM420.12 447.404c-2.24-.43-3.178.05-4.83-1.427.408-3.018 5.476-.524 4.83 1.427zm6.16.415c-.966 2.01 1.15 1.837.191 3.846-2.4-.576-3.366-2.188-4.384-3.758 1.075-.804 2.518-.735 4.193-.088zm21.29 12.634c-.023 1.735-1.631.822-2.004 1.974-1.606-.524-2.218-1.552-1.842-3.057 1.548.247 2.992-.39 3.846 1.083zm274.76 87.463c1.645.376 3.092.87 2.304 2.656-1.42.843-3.626-.425-2.303-2.656zm-329.118-97.668c.012 1.43.23 3.825-1.453 4.602-2.463-.18-2.628-1.421-3.655-2.258.475-2.706 2.176-3.484 5.108-2.344zM701.7 544.877c4.223 5.5 13.22 8.328 13.513 16.036-4.894-4.61-11.43-8.312-16.363-12.903.931-1.075 1.914-2.047 2.85-3.133zm39.276 26.726c-2.279-1.099-4.423-2.26-5.505-3.937 2.658-2.27 5.226 2.103 5.505 3.937zm-2.077 14.777c-5.794-.123-11.09-4.872-11.756-9.758 4.277-2.704 11.814 4.81 11.756 9.758zM431.453 488.72c6.351 2.52 4.953 9.268 7.158 14.058-2.053 2.482-4.698 3.885-7.446 5.088-5.032-3.688-7.622-16.123.288-19.146zm212.214 78.296c2.345.41 2.457 2.112 3.654 3.187-2.256 5.634 1.473 10.368-2.35 15.174-4.598-3.709.022-12.76-1.304-18.36zm24.945 8.555c.564.174 1.129.338 1.693.511.452.88.046 2.233-.437 3.652-3.063.07-2.956-3.07-1.256-4.163zm-260.68-69.96c.58.164 1.16.328 1.738.5-.36 1.64-.843 3.092-2.573 2.297-.525-.948-.124-2.291.835-2.797zm30.93 13.673c.205 2.823.334 3.663-1.563 5.601-2.595-.336-2.84-2.096-3.289-3.738.786-2.305 2.42-2.9 4.851-1.863zm-44.438-12.542c.582.17 1.161.334 1.744.499-.562.703-.18 3.001-1.404 2.55-2.114.001-.391-1.955-.34-3.05zm264.995 84.714c-.804 1.896-2.101 2.718-3.882 2.474-1.441-3.015 2.645-5.222 3.882-2.474zm-27.088 13.103c-4.768.873-4.145-5.194-8.19-6.384 2.963-3.917 8.644 2.352 8.19 6.384zm-143.191-30.19c-5.347 5.059-14.132 3.797-20.446 7.094-.43 1.418.51 2.09-.457 3.816-1.734.548-2.734 2.423-5.116 1.772 4.1-6.427 8.54-12.224 16.08-12.349-2.611-8.398 9.104-4.923 9.939-.333zm-94.002-29.153c.908 1.227 2.347 2.174 1.403 4.386-1.533 1.18-4.172.34-5.768-1.033.773-2.335 2.736-2.529 4.365-3.353zm285.34 87.712c4.477 7.256-9.325 19.123-15.247 10.579 1.587-6.475 6.97-13.028 15.247-10.58zm-69.664-15.998c1.835.964 2.735 2.448 1.724 4.969-3.45 1.121-4.85-3.912-1.724-4.969zM449.522 572.22c.975.458 1.02 1.431.466 2.744-.58-.17-1.16-.35-1.738-.526.122-1.322.86-1.46 1.272-2.218zm40.172 18.037c.357 2.259-.567 2.99-2.006 4.319-4.87-1.051-3.428-7.255 2.006-4.32zM358.384 555.3c.582.173 1.155.347 1.733.52-.527 3.9-4.038 6.12-6.174 3.99.671-3.052 3.679-1.645 4.442-4.51zm95.118 35.529c-1.08 2.63-2.834 4.08-5.317 4.253-.93-2.991 2.397-5.102 5.317-4.253zm39.35 16.59c1 .105.842.924 1.573 1.19-.472 3.404-3.395 1.81-4.757 3.411-2.275-1.93 2.368-2.76 3.184-4.6zm-34.371-2.807c1.201.097 1.312.878 1.988 1.306-.533 1.798-1.14 3.42-3 2.404-.824-1.67.75-1.684 1.012-3.71zm117.297 35.895c-.548 2.467-1.526 4.181-3.438 4.338-1.192-.257-1.145-1.146-2.422-1.353-1.8-3.817 3.4-6.46 5.86-2.985zM468.63 612.52c-.988 2.386-3.207 2.815-4.728 1.327-1.546-6.07 5.461-6.929 4.728-1.327zm-21.742-3.374c-.522 2.584-1.376 4.598-3.425 4.46-1.638-.367-1.712-1.57-2.856-2.205-.161-4.505 4.267-4.637 6.281-2.255zm120.094 36.468c-2.915 3.757-9.548 5.634-14.523 2.742 1.603-2.682 9.974-5.275 14.523-2.742zm-199.321-27.48c-1.145-8.03 4.075-29.11 13.814-22.548 1.806 8.596-.942 30.204-13.814 22.548zm104.776 11.662c2.65.887 4.008 4.758 2.615 6.426-2.883-.903-3.74-3.061-2.615-6.426zm-6.067 4.196c3.262.551 2.244 4.12-.795 2.771-.471-.933-.092-2.249.795-2.77zm130.482 41.397c-2.1.117-1.38-.352-3.611-1.062.182-.602.352-1.205.526-1.798 1.513-.757 4.69.413 3.085 2.86zm4.028-.98c-.891 3.105 4.292 4.927 2.043 7.05-2.515-1.47-2.146-4.605-5.89-5.37.616-1.861 1.666-2.883 3.847-1.68zm-177.377-49.76c-.816 2.68-2.197 4.438-5.2 3.521-1.038-2.817 2.78-6.214 5.2-3.52zm17.72 21.966c1.203.965 1.457 3.966-.112 5.02-3.486-.2-1.458-4.499.111-5.02zm-14.717-3.078c1.504.737 2.133 1.99 1.896 3.739-.69 1.936-2.006 2.652-4.07 1.893-.241-1.971.475-5.043 2.174-5.632z" fill="#6F779A" opacity=".32"/><g fill="#E5ECF4"><path d="M639.74 786.388c-.045-.456.072-.568.008-1.06.285.752.311.609.533.259.178 1.304-.36.107-.54.801zm-.427-1.335c-.303-.274-.45 1.746-.998-.175.421-.286.596-.365.514-1.503.179.367.34.947.587.602-.015.474-.138.715-.044 1.417-.119-.044-.112-.332-.06-.341zm2.907-1.577c-.598-1.686.417-.548.64-1.174.009.36-.145.391.013 1.057-.246-.183-.824-1.175-.653.117zm19.9-39.421c-.01 2.019-1.306.99-1.855 1.798-.147-1.366 1.569-.678 1.855-1.798zm-34.552 52.748c-.124-.026-.247-.078-.27-.668-.594-.011-.631 1.378-1.168 1.513.113.804.248 1.48.47 1.704.087-.993.268-2.468.708-1.123-.05-.645-.05-1.162.06-1.402.04.348.222.415.2-.024zm-1.537.853c-.443-.116-.051 2.387.133 1.38.05.423.106.819.27.677-.074-1.015-.335-1.045-.403-2.057zm4.578-2.586c.25.415.885.084.766-1.134-.152.622-.845-.04-.766 1.134zm1.161-1.177c.418-.233 1.3-.67.957-1.867-.28.717-.88.675-.957 1.867zm-1.52-2.625c-.063 3.196-2.23 1.12-1.892 4.402.386-.666.32-.563.798-.088-.307-2.137.307-.478.3-1.78.132-.01.16.595.276.667.262-.557.125-1.356.71-.776-.09-1.686.64-.404.913-1.502l-.086-.686c-.061-.013-.123-.038-.139-.335-.236.338-.197 1.317-.516 1.456-.085-.686-.322-.41-.363-1.358zm4.367-2.671c-.148-1.045-.396-1.305-.585-2.02l-.473.07c.127 1.068-.187 1.119-.381 1.456-.14-.8-.382-1.396-.286-2.062-.05 1.112-.202 2.373.139 3.136-.286-.686-.167.398-.29.743.16.294 1.161-.142.388-.756.752.562.847-.92 1.488-.567zm52.257-41.833c-.49-1.087-.946-.42-.758.024.375.026.348.104.758-.024zm-41.378 11.503l-.563.14c.208.454 1.454.385 1.285-.68-.414.097-.617.215-.722.54zm4.775-7.723c.865 1.218 1.824-.122 2.126-.962-.855.062-1.225.983-2.126.962zm4.567-2.471c-.193.003-.968-.283-.851 1 .247-.512 1.815-1.013.85-1zm39.878-9.559c1.084.32 1.965-1.606 3.702-.736-1.176.545-1.758.963-2.825 1.82.421.642.38-.07.611.02-1.57 1.413-3.013 2.359-4.42 3.193-1.396.855-2.77 1.57-4.297 2.424-.124.336.416 1.088.446 1.34l-1.564.867c-.753-1.609-1.044-1.43-1.51-1.941-.315-.11.819 1.415.501 1.31.367.665.538.554.696.408-1.675 1.776-4.734 3.335-7.607 4.976.235.65-.554.021.048 1.127-2.159-1.68-2.173 1.107-3.723.926.62.96-.358-.033-.137 1.194-.2.1-.2-.195-.355-.606-4.313 2.454-9.072 4.587-11.75 7.531-.865-.357-1.61-.186-2.215 1.089-1.503.447-3.269.53-3.918 3.403-.2-.559-.12-.647-.028-.717-.808-.209-1.948.223-2.622 1.102-.174.104.348.815.468 1.672-.124.252-.679-.254-.51.507-.696-1.008.48-.193-.026-1.436-.782-.629-1.13.433-1.439 1.487-2.915-.558-5.306 3.161-7.275 3.872.04.944.533.572.31.998-.176-.091-.109.301-.028.717-.384-.178-.185-1.028-.545-1.66-1.453 1.469-2.255 1.499-3.09 3.483-.042-1.317-.16.005-.404-.634-.168 1.002-.118 2.483-.722 2.596-.232-1.136.448-.791.495-1.851-1.246.312-2.359.347-3.177 3.74.338 1.436.476-.585.726.93-.428 1.37-.834 2.045-1.586 1.334-.037-.377.148-.261.075-.714.07.598-.947.68-.645 2.55-.61-.928-.891-.264-.678 1.852-.325-.41-.71-.314-.965-1.264-.06.322.147.827-.131 1.071.601 1.509.797.925 1.528.48.077-.68-.151-.61-.264-1.715.452.212.27 1.236.741 1.647.686-.467.521-1.58 1.296-1.601.206 2.48-.798 1.815-1.283 2.3-.052.645-.435 1.73-.406 1.813-.03.746-.257-.33-.256-1.014-.833.583-.613 2.19-.549 3.586-.336-.325-.475-.994-.495-2.03-.656 1.038-2.032.247-1.717 4.103-.13-.21-.207-.777-.387-.645.058 1.731-.837-.253-.723 2.186-.567-1.417-1.035.334-1.413.858l-.207-1.724c-.55.42-.92 1.279-1.395 1.9.496 1.546.842-1 1.42-.857-1.191 2.929-2.492 4.307-4.033 6.367.848-2.166 1.685-2.818 2.628-4.462-.336-.86-.423.815-.743-.267-.41 1.645-1.685 3.33-2.186 2.663-.153 1.941-1.08 2.141-1.856 3.628-.42-.662.24-.816.195-1.409-.13-1.15-.402 1.08-.469-.66.472-.127.415-.5.676.644-.13-1.542.26-.279.158-1.753.203-.18.24.48.297 1.021-.015-.961-.076-2.106.386-1.425-.21-2.003-1.015-.606-.99.428-.554-.374-1.174-.264-1.584.815-.227-.031-.286-.853-.338-1.711.012.979-.907-.91-.764-2.032-.738-1.23-.829-.595-1.424-1.633.243-.95-.116-.424.082-1.745-.148-.98-.472-1.136-.706-1.688-.171-1.52.224-1.443.23-2.455-.419-.002.036-1.58-.553-1.002.092-.866.356-1.389-.109-1.731-.155-1.296.316-.783.267-1.763-.095-1.22-.373-1.529-.464-2.749-.091-.83.12-.766-.02-1.739 1.351-4.48 3.085-7.889 4.94-10.132 1.443-1.792 2.902-3.588 4.364-5.247 1.462-1.692 2.924-3.295 4.408-4.61 1.793-1.625 3.874-3.095 5.759-4.191 6.42-3.886 9.65-6.565 16.819-10.526 2.873-1.617 5.875-4.504 9.08-5.176 1.483-.296.01.675-.252.842-2.806 1.85-5.394 2.785-8.126 5.206.519.323 1.229.026 1.569-.537-1.905 3.02-5.333 3.844-7.93 5.37-.165-.991.202-.365.428-.844-1.33-.659-1.704 1.216-3.077 1.212.74 1.413.794-.4 1.642-.082.13-.008.252-.245.4.246l-.308.088c-2.158 2.427-4.926 3.188-6.931 5.62 1.754-.52 3.916-.729 5.419-3.421.028.311.059.624.173.673 1.689-.941 3.3-1.757 4.733-2.75-1.704 2.125-3.875 3.073-5.983 4.845 1.368.48 2.268-1.258 3.83-1.35.212.108.018-.52-.117-1.047 1.288.625 2.212-.153 3.176-.538 7.33-3.051 13.074-7.115 20.796-11.221.32-.172.7-.174 1.094-.514.303-.266 1.037.296 1.396.113.916-.465 1.022-2.697 2.757-.997.17-.31.91-.366.734.014-.702 1.49-2.126 1.322-2.969 1.887-3.528 2.433-7.464 3.66-10.66 5.804 1.773.069 3.246-.78 4.606-1.732 1.379-.929 2.647-1.958 4.062-2.37 1.319-.376 2.708-1.345 3.986-1.53 1.48-.187 2.827-.69 4.097-1.35 1.25-.694 2.43-1.527 3.629-2.323 2.367-1.653 4.79-3.137 8.07-3.326.212.939-.087.962-.07 1.285zm-60.09 52.187c.155-.135.451 1.902.098 1.39-.02-.282.051-.357 0-.703-.535-.58.063 1.384-.34 1.102.047-1.416-.25.082-.636-.258.246-.954.613-1.138.878-1.53zm5.075-7.833c.248.53.333-.376.74-.132-.055 1.334-.487 1.058-.47 2.2-.358-.428-.272-1.693-.27-2.068zm1.735.042c.067-.077.112.116.16.325.05-.546-.233-2.327.205-1.447.159.881-.328.43.044 1.754-.165.15-.306-.017-.41-.632zm-.31.408c-.279-.427.043-2.128.304-1.465.193 1.094-.273.826-.304 1.465zm1.19-2.33l.2 1.023c-.18-.047-.398.427-.503-.614.175.014.114-.455.302-.41zm2.136-.788c.114.064.202.662.323.642.034.74-.51.338-.435 1.157-.404-.725-.077-1.698.25-1.118l-.138-.681zm-.504.817c-.217-.232-.911-.022-.717 1.217-.296-.747-.317-.607-.53-.256-.249-.919.05-.718-.082-1.395.677.953.772-1.667 1.33.434zm5.85-3.782c.275-.355.499 1.569.75 2.32-.286.025-.752-1.843-.75-2.32zm2.891-2.862c.008.552-.164.791-.45.828-.151-.843.251-1.16.45-.828zm-6.682 1.591c.011.281.027.571.134 1.037-.484-1.447-.771 2.293-1.212-.808.67 1.608.53-1.413 1.078-.229zm7.658-2.198c-.006.784-.466 1-.627 1.951.015-.517.092-.924-.081-1.768.435.245.32-.869.708-.183zm-6.826 1.31c.11.167.225.323.344.283.277.907-.022.719.128 1.393-.225-.275-.5-1.138-.472-1.675zm-.55.471c-.178-.729.282-.218.372-.432.106.654-.003.893.2 1.733-.34-.17-.422-1.09-.572-1.3zm12.588-5.071c.246 1.247-.632.646-.747 1.305-.283-1.733.43-.564.747-1.305zm-.97-4.43c.025.318.138.782.319 1.356l-.508.162c-.42-1.649.21-.536.188-1.518zm33.403-21.788c-.024 1.523-1.942.982-3.154 2.194.283-1.076 2.252-1.366 3.154-2.194zm-6.786-4.92c-.277 1.366-1.151.15 0 0zm-2.41 1.333c-.207 1.275-1.14.152 0 0zm-26.447 10.783c-.406-1.443.598-.528.787-.978.58.575-.863.24-.787.978zm3.259-5.126c.185 1.022-.924-.024-.742 1.001-.545-.974.612-1.092.742-1.001zm.215-.814c.04-.081.116.105.188.3.853-1.055.638 1.758-.188-.3zm6.284-3.128c-.316 1.223-1.125.01 0 0zm-1.112.807c-.412.448-.964 2.126-1.973.776.696-.16 1.48-.752 1.973-.776zm9.816-5.461c.404-.581-.425-.194-.785-.016-.485.238-1.068.455-.904 1.19.53-.178 1.287-.657 1.689-1.174zM1016.77 809.647c-.223.063-.29.011-.53.087.347-.212.273-.214.077-.298.633-.204.09.177.452.21zm-1.304.413c-.1.175.888.103.022.525-.182-.195-.24-.28-.779-.154.158-.119.42-.243.228-.345.23-.028.36.018.687-.08-.01.063-.149.081-.158.054zm-.387-1.79c-.782.45-.314-.171-.647-.236.177-.034.208.043.525-.095-.068.144-.505.528.122.33zm-21.893-6.691c.944-.223.488.453.877.598-.637.22-.347-.6-.877-.598zm29.617 13.57c.006.059.002.116-.231.147.075.276.634.248.759.491.305-.079.557-.165.615-.276-.406-.005-1.018-.04-.541-.29-.25.046-.455.063-.567.02.134-.029.136-.116-.035-.092zm-.043.41c-.008.234 1.155-.172.65-.181.197-.06.382-.123.296-.193-.48.12-.467.254-.946.374zm-.698-2.378c.18-.168-.049-.463-.642-.291.325.02.066.439.642.29zm-1.688-.512c-.159-.194-.465-.608-1.025-.324.384.08.423.393 1.025.324zm-.592 1.745c1.726-.47.686.906 2.442.225-.371-.082-.314-.066-.077-.372-1.14.485-.268-.075-.97.134-.01-.06.316-.171.35-.239-.31-.039-.736.154-.445-.222-.905.308-.242-.247-.841-.208l-.369.15c-.005.032-.016.065-.175.12.19.06.719-.111.803.023-.365.148-.208.22-.718.389zm-1.654-2.609c-.516.227-.643.376-.993.569l.038.193c.529-.225.558-.098.726-.069-.394.187-.685.385-1.017.448.552-.153 1.178-.289 1.55-.556-.335.232.2.01.372.007.144-.115-.084-.473-.38-.046.271-.411-.465-.216-.296-.546zm-26.117-24.042c-.516.312-.138.523.074.4-.018-.198.025-.187-.074-.4zm9.174 21.222l.127.29c.207-.145.05-.804-.468-.635.089.214.168.314.34.345zm-4.494-1.75c.545-.526-.124-.807-.533-.85.06.378.512.441.533.85zm-1.05-1.921c.02.103-.049.54.588.391-.281-.098-.69-.91-.587-.391zm-8.453-20.303c.102-.589-.965-.945-.612-1.905.359.588.614.87 1.127 1.381.313-.257-.059-.195-.026-.322.837.746 1.422 1.446 1.948 2.135.535.683.998 1.362 1.545 2.11.184.042.542-.289.672-.321l.554.766c-.791.502-.678.643-.915.922-.036.174.685-.523.65-.35.324-.235.255-.318.168-.393 1.04.763 2.053 2.268 3.11 3.66.322-.17.05.289.583-.106-.724 1.257.725 1.063.743 1.89.453-.397.008.19.63-.016.065.096-.088.119-.289.23 1.578 2.086 3.043 4.417 4.765 5.58-.12.483.03.86.734 1.069.347.75.525 1.674 2.058 1.76-.272.153-.325.12-.366.076-.046.443.269 1.003.774 1.276.067.082.391-.254.825-.394.137.043-.078.378.299.22-.463.456-.137-.232-.737.144-.262.465.312.553.88.618-.05 1.576 2.051 2.482 2.58 3.436.482-.112.25-.333.487-.258-.033.102.163.029.37-.053-.06.216-.513.194-.806.445.873.613.953 1.03 2.04 1.269-.67.15.018.083-.29.271.527-.01 1.28-.184 1.392.118-.563.234-.444-.153-.992-.072.265.615.38 1.192 2.184 1.272.705-.32-.34-.187.413-.47.736.083 1.115.224.815.685-.189.057-.145-.05-.37.034.3-.098.428.42 1.359.071-.422.41-.058.487 1.005.159-.182.21-.1.397-.563.627.17-.002.41-.162.558-.044.72-.467.405-.505.115-.837-.355.031-.3.142-.854.315.07-.255.607-.267.777-.553-.296-.304-.852-.105-.927-.502 1.25-.359.996.225 1.284.424.334-.04.922.046.96.02.386-.06-.145.167-.495.237.368.368 1.17.088 1.88-.09-.139.203-.469.345-.997.465.586.226.3 1.017 2.241.447-.096.09-.379.188-.296.266.878-.212-.058.454 1.177.137-.674.441.26.493.561.628l-.863.29c.262.236.733.333 1.092.508.743-.42-.584-.32-.561-.632 1.598.293 2.41.804 3.594 1.359-1.178-.193-1.58-.547-2.502-.847-.408.263.452.125-.072.406.876.03 1.843.492 1.549.82 1.002-.136 1.187.31 2.012.538-.3.288-.437-.029-.734.058-.575.194.584.084-.295.311-.107-.224-.291-.154.268-.413-.774.236-.165-.102-.907.114-.11-.083.223-.174.495-.263-.49.113-1.068.272-.761-.04-1.003.329-.22.584.304.456-.14.323-.03.626.558.712.003.119-.41.24-.843.363.498-.115-.383.562-.967.616-.561.513-.228.487-.704.909-.506-.018-.205.105-.897.154-.485.186-.535.367-.795.55-.759.259-.756.049-1.27.158.036.215-.81.162-.461.396-.45.052-.74-.025-.872.252-.646.226-.427-.074-.921.06-.612.186-.745.363-1.359.549-.414.14-.4.023-.883.205-2.405-.198-4.304-.727-5.62-1.457-2.079-1.13-4.194-2.296-5.833-3.595a17.958 17.958 0 0 1-2.659-2.647c-2.558-3.049-4.21-4.539-6.854-8.051-1.073-1.406-2.815-2.796-3.418-4.465-.272-.772.351-.054.458.072 1.183 1.367 1.878 2.68 3.353 3.947.125-.304-.086-.66-.405-.797 1.719.775 2.422 2.533 3.43 3.787-.497.173-.206-.076-.471-.155-.227.767.768.804.883 1.535.665-.519-.275-.387-.182-.868-.013-.069-.146-.112.095-.235l.071.157c1.434.934 2.057 2.34 3.483 3.176-.423-.881-.708-2.008-2.223-2.565.158-.043.316-.087.332-.153-.628-.811-1.18-1.6-1.812-2.277 1.238.725 1.903 1.796 2.997 2.753.133-.77-.84-1.089-1.016-1.912.039-.122-.27.036-.53.155.216-.739-.26-1.161-.54-1.64-2.173-3.628-4.725-6.362-7.434-10.18-.114-.16-.142-.362-.348-.547-.16-.143.08-.57-.043-.747-.309-.454-1.482-.365-.716-1.398-.174-.07-.256-.458-.045-.39.83.273.84 1.04 1.196 1.447 1.522 1.705 2.45 3.703 3.81 5.234-.102-.944-.652-1.658-1.248-2.312-.586-.66-1.215-1.26-1.53-1.981-.291-.674-.898-1.342-1.083-2.008-.79-3.145-4.165-4.474-4.712-7.913.482-.164.511-.008.68-.036zm31.41 26.22c-.082-.069.901-.403.681-.176-.138.036-.182.007-.349.063-.235.327.683-.156.582.078-.71.1.066.12-.066.35-.498-.042-.626-.215-.849-.316zm-3.498-1.564c.24-.175-.22-.142-.138-.375.671-.083.575.164 1.144.058-.179.223-.819.286-1.006.317zm-.39-.457c-.044-.028.049-.068.147-.108-.277.018-1.137.314-.742.013.424-.156.247.135.873-.17.09.073.02.16-.277.265zm.234-.108c-.185.182-1.066.157-.76-.034.526-.192.439.072.76.034zm-1.684-.21l.491-.188c-.006.099.253.173-.257.313-.01-.091-.238-.021-.234-.124zm-.887-1.182c.02-.065.31-.16.288-.22.367-.08.218.235.62.13-.324.27-.84.18-.583-.04l-.325.13zm1.24-.153c-.095.133.076.478.677.274-.344.216-.272.216-.076.297-.434.207-.364.034-.688.158.409-.43-.91-.264.088-.73zm-2.69-2.092c-.19-.128.615-.296.908-.442.049.14-.702.429-.908.442zm-1.445-1.796c.276-.046.414.024.458.172-.407.144-.604-.044-.458-.172zm1.06 3.32c.14-.03.283-.06.506-.153-.677.369 1.222.218-.286.698.74-.48-.759-.165-.22-.545zm-1.326-3.341c.395-.057.547.167 1.038.179-.262.032-.472.023-.879.177.083-.246-.466-.1-.159-.356zm.33 3.512c.073-.07.14-.143.109-.202.428-.217.362-.045.684-.178-.116.14-.52.352-.792.38zm.215.018c-.349.152-.137-.13-.253-.16.316-.107.446-.07.848-.242-.052.19-.506.306-.595.402zm-2.868-6.217c.603-.22.383.285.725.296-.845.274-.324-.184-.725-.296zm-2.239.66c.156-.036.38-.128.653-.265l.128.256c-.791.339-.289-.072-.78.008zm-13.64-15.41c.77-.067.63.949 1.33 1.506-.564-.087-.85-1.084-1.33-1.506zm-2.876 3.883c.724.086.174.608 0 0zm1.71 1.46c.668.05.174.603 0 0zm7.552 13.36c-.692.313-.326-.286-.572-.357.235-.35.205.446.572.358zm-3.254-2.05c.499-.163.077.5.578.338-.44.354-.61-.263-.578-.337zm-.833.215c-.044-.017.041-.07.135-.121-.617-.393.828-.452-.135.121zm-1.5-2.806c.651.1.11.604 0 0zm.756.015c.24.16 1.086.28.484.885-.115-.322-.446-.649-.484-.885zm-3.966-4.117c-.295-.133-.08.213.018.362.13.2.254.449.602.305-.102-.226-.358-.53-.62-.667zM751.994 793.518c.033-.45.183-.54.202-1.03.181.775.238.639.55.333-.036 1.294-.424.05-.752.697m-.238-1.36c-.292-.311-.814 1.63-1.093-.32.524-.216.736-.266.85-1.386.136.384.21.972.552.674-.1.457-.28.675-.304 1.372-.124-.063-.065-.341-.005-.34m3.575-1.1c-.339-1.731.58-.472.962-1.046-.065.351-.244.36-.202 1.03-.237-.215-.696-1.264-.76.016m37.032-32.882c-.97 1.853-2.16.492-3.248 1.092.435-1.33 2.35-.166 3.248-1.092m-55.141 44.19c-.132-.038-.258-.099-.228-.68-.638-.058-.808 1.29-1.391 1.397.048.796.132 1.468.352 1.7.176-.97.508-2.396.855-1.044.004-.633.053-1.141.196-1.368.007.344.198.425.216-.006m-1.729.72c-.465-.137-.256 2.345.021 1.365.018.418.045.811.23.681.011-1.003-.265-1.045-.25-2.045m5.19-2.159c.222.427.946.16.962-1.045-.237.594-.914-.112-.962 1.045m1.397-1.054c.483-.201 1.497-.529 1.28-1.734-.4.66-1.05.573-1.28 1.734m-1.348-2.704c-.441 3.126-2.575.906-2.547 4.15.483-.618.404-.522.87-.016-.106-2.121.386-.44.518-1.72.142.003.108.6.23.678.345-.522.286-1.319.856-.7.103-1.66.745-.342 1.178-1.392-.004-.227-.009-.452-.01-.681-.07-.018-.131-.047-.115-.341-.298.31-.373 1.276-.74 1.384-.013-.679-.304-.431-.24-1.362m5.191-2.157c-.012-1.041-.251-1.325-.357-2.045-.183.006-.363.01-.545.012-.009 1.061-.37 1.074-.631 1.38-.047-.797-.236-1.406-.031-2.048-.218 1.08-.557 2.295-.28 3.08-.227-.704-.245.37-.427.691.142.308 1.309-.003.536-.694.757.637 1.071-.8 1.735-.376m75.139-24.792c.091-1.172-.83-.797-.876-.322.41.192.332.247.876.322m-55.655-2.942c-.255.002-.509.008-.763.014.136.482 1.74.678 1.845-.38-.56.004-.852.074-1.082.366m8.717-6.333c.696 1.371 2.429.315 3.148-.407-1.146-.153-1.973.647-3.148.407m6.945-1.168c-.25-.05-1.16-.531-1.513.715.523-.417 2.787-.467 1.513-.715m54.088 7.075c.982.826 3.3-.347 4.591 1.272-1.667-.143-2.593-.084-4.354.089.029.755.465.136.661.329-5.381.729-8.869.472-13.377.617-.343.242-.186 1.142-.305 1.375-.762.018-1.523.032-2.286.048.093-1.745-.346-1.72-.58-2.38-.3-.238.103 1.608-.195 1.372.027.745.285.725.552.671-2.949.846-7.315.875-11.514 1.263-.063.68-.65-.2-.53 1.037-1.64-2.372-3.088.13-4.796-.584.253 1.101-.404-.162-.745 1.041-.278.02-.137-.252-.12-.682-6.231.603-12.826 1.138-17.145 3.089-.889-.608-1.852-.63-3.04.406-1.943.024-4.114-.43-5.844 2.171-.05-.58.075-.645.206-.688-.89-.4-2.4-.261-3.476.413-.241.055.155.859.026 1.708-.221.207-.719-.408-.755.358-.512-1.13.623-.068.414-1.376-.734-.79-1.483.138-2.16 1.069-3.315-1.143-7.182 1.879-9.65 2.25-.18.924.489.652.126 1.025-.189-.122-.204.269-.21.686-.405-.24.032-1.027-.242-1.704-2.061 1.166-3.015 1.028-4.42 2.826.23-1.285-.189-.017-.335-.675-.41.95-.657 2.397-1.378 2.42-.04-1.14.68-.706.952-1.73-1.512.119-2.85-.012-4.412 3.167.13 1.446.654-.5.668 1.01-.74 1.271-1.313 1.857-2.05 1.068.02-.372.212-.237.208-.687-.025.592-1.2.553-1.162 2.414-.54-.977-.97-.36-1.06 1.73-.3-.437-.747-.388-.891-1.346-.12.307.038.825-.312 1.03.45 1.545.752.999 1.642.65.195-.656-.072-.616-.027-1.708.478.262.11 1.238.57 1.697.843-.372.844-1.493 1.72-1.402-.19 2.433-1.197 1.67-1.816 2.087-.16.623-.757 1.638-.735 1.723-.15.725-.234-.352-.125-1.02-1.017.469-1.012 2.064-1.145 3.439-.318-.359-.375-1.028-.25-2.046-.867.939-2.285.005-2.442 3.81-.116-.22-.124-.785-.338-.675-.158 1.691-.877-.333-1.056 2.07-.442-1.442-1.159.237-1.62.718-.01-.572-.019-1.14-.026-1.71-.644.365-1.14 1.176-1.715 1.745.37 1.554 1.01-.909 1.62-.717-1.607 2.774-3.118 3.989-4.914 5.91 1.077-2.08 2.027-2.627 3.2-4.166-.27-.87-.533.762-.766-.324-.606 1.582-2.103 3.11-2.573 2.443-.327 1.898-1.315 2.046-2.23 3.462-.394-.673.305-.788.303-1.372-.052-1.137-.5 1.04-.447-.674.507-.1.476-.468.665.67-.019-1.521.294-.259.298-1.715.23-.166.216.482.235 1.02.059-.944.086-2.076.522-1.377-.06-1.983-1.033-.655-1.083.363-.555-.397-1.225-.322-1.729.719-.237-.044-.247-.855-.245-1.703-.05.964-.905-.94-.683-2.035-.719-1.25-.855-.625-1.44-1.678.317-.923-.103-.422.191-1.713-.106-.97-.45-1.138-.68-1.694-.105-1.502.33-1.406.397-2.398-.468-.024.131-1.552-.561-1.014.154-.847.483-1.347-.025-1.707-.102-1.28.405-.754.407-1.718-.032-1.205-.334-1.522-.368-2.724-.058-.824.19-.747.085-1.71 1.86-4.332 4.267-7.605 6.812-9.709 3.962-3.274 8.24-6.555 12.596-8.802 2.632-1.358 5.69-2.472 8.438-3.247 9.426-2.675 14.596-4.526 25.694-6.344 4.445-.728 9.783-2.475 14.333-2.004 2.082.214-.333.63-.751.697-4.573.752-8.409.838-13.024 2.321.55.438 1.597.374 2.286-.046-3.777 2.286-8.522 2.124-12.47 2.989.136-.983.396-.298.862-.699-1.521-.938-2.664.726-4.456.434.503 1.505 1.172-.217 2.18.296.173.025.415-.172.44.333l-.434.01c-3.626 1.844-7.455 1.953-10.711 3.977 2.416-.225 5.22.072 8.02-2.214-.064.306-.124.612.01.683 2.478-.557 4.838-.895 7.05-1.515-2.964 1.62-6.065 1.971-9.31 3.27 1.6.76 3.292-.764 5.326-.454.235.155.2-.49.201-1.025 1.439.907 2.879.387 4.247.25 10.42-1.035 19.473-2.997 31.285-3.723.49-.03.96.118 1.631-.032.525-.124 1.105.673 1.643.648 1.37-.07 2.825-1.976 3.921.258.39-.204 1.314.06.877.324-1.72 1.038-3.33.252-4.673.44-5.63.785-11.097.414-16.083 1.36 4.325 1.266 8.836-1.022 12.72-.61 1.805.194 4.024-.177 5.664.227 7.519 1.846 15.144-1.865 22.763 1.235-.413.898-.76.765-.963 1.044m-89.529 30.214c.19-.113.223 1.91-.088 1.37.017-.279.104-.344.098-.687-.502-.629-.125 1.36-.527 1.036.25-1.377-.282.05-.659-.327.4-.902.832-1.038 1.176-1.392m6.966-6.975c.182.551.45-.317.87-.019-.32 1.289-.755.956-.949 2.07-.323-.472.006-1.686.079-2.05m1.963.297c.09-.063.105.13.114.341.165-.525.201-2.296.522-1.376.005.88-.459.368-.298 1.713-.217.12-.342-.064-.338-.678m-.429.351c-.235-.456.46-2.063.632-1.377 0 1.09-.475.761-.632 1.377m1.815-2.087c.006.342.01.685.018 1.025-.193-.074-.54.356-.447-.673.196.039.222-.424.43-.352m2.605-.395c.121.083.087.677.229.677-.123.722-.65.236-.746 1.04-.301-.774.283-1.656.53-1.034a110.71 110.71 0 0 0-.013-.683m-.75.699c-.196-.266-1.035-.187-1.071 1.048-.182-.776-.237-.64-.55-.332-.094-.929.205-.69.197-1.37.569 1.029 1.241-1.478 1.425.654m7.578-2.548c.408-.283.164 1.611.255 2.385-.328-.036-.38-1.93-.255-2.385m4.103-2.136c-.152.532-.414.726-.751.697.058-.838.615-1.057.75-.697m-8.16.17a4.266 4.266 0 0 0-.091 1.027c-.223-1.49-1.432 2.078-1.216-1 .397 1.677.953-1.271 1.308-.027m9.459-.54c-.235.743-.828.859-1.28 1.735.165-.494.367-.866.41-1.716.432.33.62-.768.87-.02m-8.273-.167c.09.178.182.35.33.334.096.93-.204.692-.195 1.372-.195-.309-.3-1.191-.135-1.706m-.757.356c-.029-.74.385-.163.54-.35-.037.65-.222.86-.193 1.71-.35-.225-.222-1.13-.347-1.36m16.073-2.042c-.13 1.24-.943.45-1.288 1.052.237-1.716.679-.444 1.288-1.052m.368-4.447c-.08.304-.104.773-.087 1.367-.22.004-.436.007-.655.013.066-1.674.428-.448.742-1.38m49.398-7.517c-.978 1.276-2.784-.079-4.89.442.97-.806 3.368-.192 4.89-.442m-4.686-7.42c-1.19 1.07-1.46-.389 0 0m-3.698.075c-1.026 1.03-1.457-.361 0 0m-38.408.46c.05-1.477.981-.337 1.403-.713.517.702-1.207-.008-1.403.712m6.359-3.89c-.207 1.013-1.195-.301-1.403.71-.287-1.075 1.277-.834 1.403-.71m.643-.696c.092-.065.104.13.113.338 1.584-.734.044 1.837-.113-.338m9.671-.885c-1.024 1.028-1.457-.366 0 0m-1.843.379c-.76.278-2.274 1.648-2.936.062.978.086 2.285-.206 2.936-.062m15.54-1.347c.86-.368-.418-.342-.983-.32-.752.024-1.625-.01-1.839.72.774.045 2.012-.089 2.823-.4"/></g></g></svg>