<svg width="1056" height="792" xmlns="http://www.w3.org/2000/svg"><g fill="none" fill-rule="evenodd"><g fill="#1694FF"><path d="M279.235 254.003c-.302-.203-.344-.667.405-.174-.17.158-.189.109-.405.174m-3.38 36.386c-.445.019.319.82-.282.767.634.075.477.62.256.517-.137-.218-.768-.744-.285-.48-.546-.287-1.166-.991-1.743-1.589.321.38.736.612 1.221.985-.105-.237-.008-.365-.634-.88l.15-.188c.46.312.698.37 1.318.868m1.102 2.383c.779.513.673 1.019.644 1.279-.616-.645-.37-.82-.644-1.279m.847 2.267c-.668-.583-.048-.465-.327-.836.704.593.645.97.327.836m-.81-.66c-.537-.11-.05.259.154.632-.085.002-.425-.303-.468-.255.71.672-.423.014.854 1.02-.437-.09-.468-.165-.251.304-1.911-1.588.032-1.218-1.678-2.899.53.48.47.26.873.587.047-.174-.5-.673-.595-.924.168.147.204.142.236.128l.405.329c.49.66-.479.231.47 1.078m.144 2.286c.331.298.406.285.468.258.244.219.14.244-.065.076.091.16.374.427.743.744-.898-.551-.163.268.35.808-.203-.04-.622-.344-1.102-.723.117-.249-.62-.974-.394-1.163m1.166 1.87c.485.58-1.027-.58-.805-.67.58.502.691.43 1.272.929.017.127-.218-.058-.467-.259m-14.04-27.34l.184-.247c-.118-.207-.089-.332.052-.51.62.519.092.935-.237.757m-1.022-7.028c.274.545.501 1.563-.517 1.163.435-.259.14-.875.517-1.163m.434-1.53c.461-.29-.05.441.084.79-.693-.663-.175-.734-.084-.79m16.801-14.979c-.143-.176.02-.247-.494-.727-3.663 1.446-2.852 5.472-5.76 7.265-.623.388-.893 1.272-1.424 1.792-1.144 1.116-.72 3.563-2.553 4.441.575-2.023 2.064-3.672 2.828-5.862.182-.518 1.045-.746.752-1.734-.076-.252-.452-.05-.405.16-1.701-.532-.773.718-1.04 1.2-.106.188-.752.055-.791.276-.052.285-.257.377-.346.55-2.194 4.173-3.093 7.941-5.025 11.73-.256.496-.294 1.188-1.212 1.234.33.244.738.524.584.529-.694.506-.192 1.733-1.065 1.891.033-1.612.582-2.76.31-4.42-.164.973-.531 1.877-.815 2.907-.077.01-.25-.15-.424-.31.699 1.92-.191 2.678-.68 3.53-.389-1.952.5-3.203.265-5.174l.1-.141c-.32-.22-.255-.056-.314-.012-.562.082.334 1.076-.72.544.628-.425-.126-1.537.827-1.586.134.327-.353.098.223.585.438-1.62 1.685-3.055 1.143-5.247.104.402-.106.763-.512.74.16-2.102 1-3.345 1.567-5.12.052-.161.342-1.1-.275-.532-1.333 1.239-1.457 3.667-2.06 5.381-1.515 4.267-1.65 6.709-2.45 10.867a15.7 15.7 0 0 0-.25 4.137c.187 2.415.962 5.326 1.77 8.178.512 1.825 1.728 4.203 3.689 6.972.587.452.472.491.965.885.706.595.98.657 1.684 1.25.555.485.1.384.872.995.36.016.55.373.994.85-.105-.499.598.467.753.326.554.518.367.615 1.268 1.334.39.205.591.174 1.184.626.658.745.497.353.932.923.789.332.47-.027 1.414.357.565.624 1.934 1.285 1.39.787.491.424.964.827 1.063.768-.447-.692-.284-.956.119-.948-.576-.525-1.05-1.513.124-.55-.542-.197.108.373.641.863-.318-.26-.692-.587-.667-.429.845.726.014.206.905.956-.721-.501-.497-.329-.596-.107.978.873-.146-.364.53.183.341.292.19.59.704.79-.538-1.021-.316-1.432-1.324-2.485.537.173.1-1.102-.644-2.087.709.456-.17-.438.423-.102.546 1.158.579 1.757 1.459 3.156-.566-1.568-.82-2.69-1.968-4.596-.295.113.959 1.542-.066.904-.161-.477-.488-1.042-.51-1.439l1.015.827c-.144-.392-.917-1.454.065-.901-1.365-1.233.048-.49-.907-1.368-.002-.125.335.145.5.213-2.203-1.904-1.237-1.93-1.54-2.677.567.533.982.838 1.287.903-.777-.71-1.726-1.478-1.71-2.046.366.359 1.034.848.645.448-.058-.033-.488-.723-.812-1.077-.068-.406.68-.379-.72-1.61-.306.25.362.788.34 1.248-.407-.065-.884-.659-1.176-.625.636.54.69.432 1.024.813-.049.467.187.832-.861.237-.021-.218-.374-.414-.524-.602.612.414.712.24 1.06.352-1.217-1.037-1.462-1.478-.724-1.187-1.123-.883-.761-1.251-1.11-1.543.272.215.137.213.352.398.682.134.493-.342-.06-1.195-.908-.716.11.388-.793-.26-1.465-2.036-1.02-2.407-.67-2.962.54.575.078.605.776 1.132.188-.25-.617-1.014-1.075-1.598.438.262-.21-.472.501.21-.697-1.31-.36-1.563-.507-2.784.485.224.845.735 1.1.714-.25-.197-.485-.384-.36-.39-.127-.294-.144.055-.655-.435.452-.986-.383-3.658 1.197-4.222-.398-.652-.778-1.32-.1-1.206.864.523-.088.42.742.761-.462-.358.048-.246-.023-.413-.492-.427-1.092-.66-1.063-.765-.139-.66.166-1.22.643-1.337-.008.063 0 .132.373.377-1.163-1.736-.343-2.256.135-2.912-.347-.854-.09-1.161.512-1.194-.153-2.3 1.128-4.722 2.207-7.093.274.185.415.346.468.244-.691-.617.276-.314-.491-.687.867-.281-.414-1.805 1.502-1.391-.828-.465-.123-.306-.548-.604.73-1.586 1.696-3.106 1.806-4.453-.022.116-.066.212-.563-.075.222-.01-1.077-.602-.855-.611.483.18.566.02 1.69.743l.477-.81c-.128-.132-.754-.432-.836-.644.904-1.606 1.834-2.723 2.492-4.875-.169-.005.15.382-.359.106.256-.68.413-1.022.862-1.552-1.358-.15-1.062 1.091-1.82 1.124M423.77 263.056c-.67.21-.593.132-1.134.192-.078-.364.917-1.08 1.133-.192m-69.989 18.09l.95-.2c.249-.277.608-.404 1.307-.544.018.828-2.024 1.076-2.257.743m-21.255 24.944c-.924-.216-1.227.94-2.297.577 1.095.4-.449.833-.658.62.217-.277.154-1.103.514-.6-.433-.556-.076-1.545.126-2.41-.22.525.081.962.206 1.566.328-.279.809-.35.733-1.163l.725-.098c.204.532.548.712.651 1.508m-4.79 4.345c.225-.923 1.113-.937 1.598-1.52.39.895-.957 1.311-1.599 1.52m-1.948-.045c-.82-.398-.684.206-1.118.654-.167-.044-.16-.508-.355-.489-.094 1-.871-.225-.588 1.39-.67-.324-.565-.408-1.182.133-.249-2.491 2.794-1.074 3.172-3.537-.023.725.355.494.42 1.014.487-.132.522-.883.899-1.162 0 .225.087.242.18.247l.064.522c-.507.863-1.475-.061-1.492 1.228m.125 1.045c-.014-.895.954-.442 1.233-.933.065.927-.9 1.232-1.233.933m-4.912 1.611c-.18.195-.216.592-.184 1.08-.554-.996-.923.152-1.11.918-.313-.156-.467-.665-.58-1.272.796-.14.944-1.212 1.82-1.25-.008.45.166.48.35.491 0 .334-.265.296-.296.033m-1.917 1.787c-.328.782-.75-1.105-.104-1.048.037.772.417.776.457 1.546-.245.12-.303-.18-.353-.498m49.352-42.107c-.758.75-2.731 2.014-3.81 1.17 1.488-.142 2.376-.962 3.81-1.17m4.513-1.721c1.601-.198-1.156.523-1.723.994.21-1.042 1.409-.956 1.723-.994m67.16-16.65c1.993-1.07 3.052-1.61 5.04-2.407-2.024-.44-4.342 1.629-5.743 1.576.147-.306.59-.399.788-1.254-9.764 1.865-17.625 8.292-27.148 10.251-2.046.473-4.632 1.63-6.842 2.264-2.374.688-4.795 1.87-7.327 2.969-2.523 1.127-5.156 2.17-7.937 2.463 5.885-2.486 12.563-4.427 19.11-7.396 1.563-.693 3.671-.88 5.444-2.394.45-.388-.718-.165-1.124.156-1.892-1.14-3.098.933-4.728 1.545-.637.245-1.533-.094-2.127.214-.767.394-1.365.48-1.942.708-13.946 5.408-24.619 10.008-37.387 13.802-1.681.48-3.394 1.27-5.324.981.08.405.223.885-.092.832-2.572.352-4.48 1.878-6.593 1.71 3.887-1.746 7.683-2.9 11.09-4.933-2.64 1.056-5.503 2.02-8.519 3.045-.176-.02-.146-.268-.113-.515-3.16 2.408-6.717 2.927-9.73 3.584 1.923-1.105 4.066-1.925 6.26-2.775 2.191-.853 4.457-1.621 6.549-2.843l.537-.127c-.114-.376-.38-.16-.597-.13-1.32-.108-1.89 1.374-2.743.349 2.273-.225 3.415-1.83 5.437-1.526-.51.431-.94-.015-.95.765 4.741-1.693 10.605-3.02 14.772-5.938-.753.546-2.02.939-2.77.763 5.336-2.578 9.954-3.917 15.275-6.148.488-.198 3.296-1.368.749-.785-5.537 1.312-11.603 4.43-16.893 6.344-6.589 2.392-11.446 4.171-16.058 5.949l-6.952 2.651-7.81 2.808c-3.362 1.127-7.091 2.562-10.304 4.047-2.66 1.193-5.288 2.614-7.876 4.08-2.591 1.427-5.134 2.95-7.603 4.466-3.177 1.88-6.157 4.625-8.446 8.151.178.732-.149.699-.04 1.326.092.924.506 1.14.6 2.063.034.743-.664.387-.477 1.365.695.227.274.645.104 1.313.909-.486.161.753.794.725-.05.77-.64.742-.441 1.889.332.404.806.5.99 1.235-.345 1.024.206.596-.189 1.338.842.753 1.001.257 2.036 1.145-.255.868 1.005 2.245 1.03 1.498.035.653.084 1.276.415 1.286.645-.855 1.558-.982 2.345-.735.018-.79 1.28-1.912 1.469-.394-.637-.49-.612.383-.645 1.116-.053-.41-.068-.912-.376-.76.071 1.119-.428.182-.323 1.35-.318-.856-.257-.576-.95-.446.01 1.324.52-.398.649.472.033.45-.927.612-.352 1.089 1.196-1.186 2.552-1.404 2.894-2.9.688.481 2.65-.914 3.377-2.21.39.804.64-.488 1.068.145-1.504 1.336-2.769 1.91-4.137 3.625 2.366-1.69 4.355-2.856 6.356-5.2-.842-.064-1.553 1.918-2.159.771.746-.514 1.365-1.205 2.215-1.572l.155 1.308c.597-.433 1.45-1.819 2.156-.772.062-1.868 1.193-.412 1.276-1.745.28-.119.337.313.509.462-.084-2.945 1.895-2.467 2.987-3.332-.087.802.046 1.305.509 1.527.06-1.076-.084-2.298 1.238-2.828-.088.53.123 1.343.257.762-.035-.061.674-.94.832-1.443.79-.423 2.211 0 2.231-1.911-1.172.097-1.07.94-2.162 1.37-.658-.274-.256-1.084-.915-1.205.034.845.388.769.188 1.303-1.157.416-1.518.885-2.25-.224.448-.216.194-.586.326-.842.274.71.867.598 1.307.884-.064-1.616.45-2.16 1.26-1.5-.223-1.421 1.34-1.585 1.315-2.04.048.343-.217.272-.21.559 1.05.477 1.755-.097 2.607-1.21-.168-1.155-.668.438-.983-.643 1.744-2.739 3.495-2.897 5.465-3.28-.247.834-1.237.641-1.062 1.505.948-.158 1.111-1.312 1.543-2.116.265.475.673-.575.515.451 1.632-1.652 2.883-1.787 5.414-3.13.44.454-.028 1.15.53 1.243-.046-.319-.076-.62.183-.57.426-.365-.409-.008-.29-.75 3.176-.791 7.72-4.117 12.14-4.079.727-.897 1.538-1.81 2.597-1.421.471.929-1.146.448-.316 1.157-.074-.589.66-.266.912-.486.03-.678-.601-1.172-.3-1.281 1.266-.816 3.162-1.347 4.363-1.298-.162.07-.308.153-.152.578 1.783-2.43 4.578-2.818 7.033-3.427 1.316-1.155 2.536-1.414 3.76-1.277 5.055-2.92 13.17-5.58 20.674-8.585.078.323-.033.58.306.454.14-1.02 1.243-.352.674-1.063 2.281-.14 3.434-2.597 6.013-1.566-.454-.852.478-.461.389-.984 5.034-2.033 10.278-4.111 13.59-6.092-.305.172-.607.31-.845-.215.42.026-.564-1.112-.144-1.085.46.363.978.132 1.35 1.435l2.715-1.141c.073-.224-.367-.796-.024-1.134l3.837-1.604 3.676-1.625c2.477-1.103 5.057-2.319 8.065-4.052-.286-.033-.604.641-.87.122"/><path d="M257.013 316.754c-.576-.062-1.463-.334-.493-.774-.105.362.537.437.493.774m.795.88c-.105.39-.281-.209-.62-.274.942-.134.642.2.62.275m-6.161-2.615c-.789.167-.742-.3-.394-.424.019.066.039.133.057.2.228.01.299.075.337.224m.895 15.291c.02-.158.067-.148.183-.294.353-.075.687.105-.183.294m-22.52-16.204c.24.016.273.112 1.057-.081.014.048.028.096.04.144-.523.16-.719.277-1.487.471.274-.257-.809-.077-.382-.398-.465.335-.765.076-.546-.017.248-.01 1.041-.201.536-.013.562-.218 1.48-.348 2.292-.488-.486.063-.925.225-1.51.382m-2.468-.114c-.169.041-.335.084-.504.127-.801.078.133-.338-1.1-.06.422-.269-.16-.107-.57-.104.053-.048.495-.146.486-.185-.951.2.26-.24-1.301.176.345-.22.421-.215-.066-.23 2.396-.604.886.378 3.225-.078-.695.154-.492.188-.992.315.1.078.818-.077 1.066-.054-.217.05-.236.071-.244.093m-1.747.505c.872-.151.848.04 1.36.026-.876.28-1.182.069-1.36-.026m-.864-.183c.858-.198.376.115.831.069-.89.215-1.133.07-.831-.069m-1.275-.666c-.32.074-.27.007-.016-.058-.177.003-.554.082-1.023.197.979-.34-.097-.169-.823-.039.157-.1.65-.246 1.234-.406.115.138 1.12-.063 1.116.12-.432.098-.468.144-.488.186m-1.644-.077c-.74.104 1.08-.408 1.008-.258-.742.181-.755.263-1.495.443-.107-.026.18-.105.487-.185m20.465-4.988c-1.71-.3-4.274-.347-7.587-.053-.705.205-.664.124-1.268.292-.887.23-1.103.368-1.989.598-.713.176-.354-.057-1.295.206-.235.202-.624.205-1.26.32.44.087-.725.205-.713.337-.737.162-.695.03-1.797.333-.397.162-.5.287-1.21.494-.97.156-.576.177-1.276.26-.742.351-.274.274-1.151.696-.824.142-2.177.72-1.462.559-.627.153-1.225.304-1.243.378.8-.057.896.11.637.332.755-.173 1.795-.154.335.225.488-.245-.348-.045-1.05.113.396-.105.875-.22.74-.25-1.076.264-.163-.051-1.285.233.828-.26.558-.183.453-.3-1.269.298.367.02-.47.242-.432.108-.56-.059-1.032.17 1.103-.014 1.271.225 2.695-.035-.465.25.755.37 1.962.244-.79.263.433.034-.194.266-1.209-.032-1.67-.188-3.273-.097 1.529.133 2.52.314 4.667.239.103-.2-1.757.08-.63-.305.455.051 1.086.034 1.393.142l-1.259.32c.383.035 1.665-.079.629.304 1.785-.393.335.174 1.593-.094.094.037-.321.142-.477.213 2.818-.654 2.216-.102 2.961-.041-.757.153-1.249.291-1.493.442 1.021-.215 2.2-.51 2.61-.323-.5.093-1.293.315-.747.221.061-.02.847-.047 1.318-.118.343.09-.156.501 1.651.107.015-.253-.814-.047-1.14-.206.312-.209 1.054-.288 1.218-.465-.808.188-.762.253-1.26.32-.31-.175-.734-.156.38-.56.174.055.546-.081.781-.106-.698.215-.634.327-.94.487 1.548-.36 2.031-.357 1.342-.032 1.374-.352 1.415-.028 1.854-.13-.332.083-.244.008-.52.07-.537.342-.07.39.914.356 1.115-.28-.354-.064.707-.367 2.443-.161 2.429.224 2.607.608-.772.114-.494-.158-1.333.06.06.192 1.144-.008 1.87-.072-.477.16.484.04-.479.214 1.414.049 1.37.331 2.357.67-.482.198-1.09.226-1.242.38.309-.076.598-.145.519-.072.297.03.056-.098.748-.22.426.595 2.896 1.081 2.253 2.183.73.012 1.46.044.922.385-.953.297-.238-.204-1.042.142.569-.132.145.117.31.138.637-.122 1.206-.375 1.26-.322.565.167.76.548.52.86-.04-.028-.096-.048-.521.071 2.025-.012 1.823.656 1.961 1.173.837.13.88.394.484.746 1.707.803 2.505 2.48 3.332 4.046-.32.074-.528.084-.497.158.908-.13.015.28.814.009-.422.59 1.514.52-.138 1.397.906-.26.294.059.799-.046.544 1.057.832 2.226 1.637 2.865-.059-.061-.088-.128.462-.272-.156.124 1.183-.323 1.026-.2-.472.185-.428.299-1.724.595l.175.606c.181-.012.836-.219 1.033-.17.374 1.153.421 2.121 1.219 3.38-.027-.026-.003-.065.26-.132.236.44.337.679.333 1.153 1.116-.642.107-1.051.657-1.466.22.002.142.12.83.067 1.824-2.618-1.383-3.99-.479-6.352.198-.516-.212-1.045-.181-1.565.069-1.121-1.897-1.916-1.226-3.313 1.002 1.17 1.063 2.71 1.988 4.08.22.326-.26.904.61 1.177.222.068.36-.228.186-.295 1.582-.706.088-.748-.049-1.102-.052-.14.5-.444.38-.562-.156-.154-.072-.307-.126-.434-1.257-3.045-3.262-5.12-4.663-7.733-.185-.346-.656-.636-.073-1.19-.397.099-.872.225-.772.134.105-.605-1.124-.78-.66-1.35 1.158.636 1.606 1.404 2.985 1.905-.595-.481-.989-1.053-1.552-1.619.044-.048.275-.088.504-.129-1.86-.333-1.812-1.142-2.126-1.75 1.695.504 2.009 1.515 3.594 2.152.012.04.022.078.034.115.371-.1.211-.129.218-.18.318-.364-.997-.228.087-.641-.108.538 1.192.54.591 1.12-.324-.051.166-.246-.57-.103.881.903 1.054 2.21 2.973 2.806-.352-.108-.465-.378-.175-.606 1.379.97 1.677 1.986 2.512 3.078.076.1.53.676.561.074.07-1.31-1.55-2.424-2.358-3.488-2.022-2.653-3.707-3.703-6.257-5.75a11.517 11.517 0 0 0-2.915-1.676c-1.926-.758-4.612-1.308-7.272-1.774" fill-opacity=".32"/><path d="M232.517 379.8c.451-.124.398-.074.76-.102.043.244-.638.698-.76.103m47.084-10.49l-.639.112c-.172.18-.415.256-.884.334.008-.552 1.376-.672 1.523-.445m14.772-16.13c.61.164.84-.598 1.545-.333-.72-.291.32-.545.454-.399-.152.18-.13.731-.357.389.275.379.013 1.03-.143 1.6.16-.344-.03-.641-.1-1.046-.225.178-.547.215-.516.758l-.486.049c-.123-.359-.347-.486-.397-1.018m3.299-2.786c-.173.61-.765.6-1.103.976-.238-.604.67-.851 1.103-.976m1.297.073c.537.284.46-.121.76-.41.11.033.095.341.226.333.086-.663.575.17.426-.912.438.23.366.284.79-.062.105 1.663-1.888.653-2.2 2.284.033-.483-.224-.337-.254-.685-.328.077-.37.577-.628.754.005-.15-.053-.163-.114-.168l-.03-.35c.359-.563.981.074 1.024-.784m-.058-.698c-.012.596-.646.273-.845.594-.02-.619.63-.8.845-.594m3.313-.964c.125-.125.158-.389.149-.714.345.675.618-.081.761-.586.206.11.296.453.357.86-.534.074-.66.785-1.243.791.016-.3-.1-.324-.223-.335.009-.222.185-.191.199-.016m1.32-1.146c.238-.513.473.752.045.7-.006-.515-.26-.526-.267-1.04.166-.074.197.127.223.34m-33.916 26.93c.524-.482 1.87-1.28 2.568-.694-.995.062-1.607.588-2.568.694m-3.05 1.046c-1.07.096.784-.323 1.174-.623-.166.688-.962.604-1.173.623m-45.163 9.593c-1.354.668-2.073 1.004-3.417 1.49 1.338.338 2.933-.987 3.865-.922-.105.201-.403.253-.555.818 6.552-1.025 11.947-5.128 18.342-6.221 1.375-.27 3.126-.983 4.614-1.355 1.6-.406 3.241-1.138 4.956-1.814 1.708-.694 3.489-1.33 5.349-1.463-3.983 1.524-8.48 2.668-12.915 4.499-1.059.426-2.469.504-3.687 1.472-.309.248.475.126.753-.079 1.233.8 2.088-.552 3.189-.923.43-.149 1.019.096 1.422-.096.52-.245.921-.289 1.312-.428 9.425-3.29 16.65-6.115 25.252-8.357 1.132-.282 2.292-.77 3.572-.535-.044-.271-.127-.594.082-.552 1.722-.177 3.03-1.15 4.435-.991-2.633 1.075-5.191 1.759-7.512 3.037 1.786-.645 3.717-1.223 5.752-1.838.117.016.09.181.063.345 2.165-1.532 4.548-1.8 6.572-2.17-1.309.693-2.757 1.191-4.24 1.708-1.48.52-3.01.98-4.433 1.748l-.361.072c.066.253.249.115.394.1.877.101 1.293-.873 1.837-.171-1.52.099-2.32 1.142-3.66.894.35-.275.626.031.651-.487-3.201 1.021-7.141 1.775-9.99 3.624.516-.346 1.37-.58 1.865-.446-3.618 1.597-6.728 2.386-10.33 3.753-.33.121-2.229.837-.517.506 3.722-.75 7.84-2.69 11.413-3.848 4.448-1.446 7.729-2.522 10.846-3.603l4.697-1.61c1.628-.525 3.342-1.075 5.274-1.696 2.267-.677 4.788-1.549 6.965-2.466 1.802-.735 3.588-1.623 5.348-2.54 1.762-.893 3.494-1.85 5.176-2.804a17.284 17.284 0 0 0 5.827-5.238c-.101-.492.116-.462.06-.882-.04-.617-.31-.77-.35-1.386-.006-.495.451-.243.35-.898-.457-.167-.167-.435-.037-.876-.617.303-.089-.505-.511-.5.052-.512.445-.48.34-1.248-.212-.276-.526-.35-.63-.844.255-.673-.123-.4.158-.886-.542-.52-.66-.193-1.329-.807.192-.572-.614-1.516-.65-1.02-.007-.435-.024-.85-.245-.865-.45.555-1.062.62-1.58.437-.032.525-.9 1.244-.989.23.413.34.417-.241.457-.729.026.275.023.609.232.515-.02-.746.29-.112.249-.891.19.576.156.388.622.317.025-.881-.357.253-.421-.329-.011-.3.632-.386.26-.716-.825.763-1.734.877-1.999 1.866-.447-.336-1.788.55-2.304 1.396-.24-.544-.439.31-.708-.12 1.035-.857 1.892-1.21 2.845-2.322-1.618 1.073-2.972 1.805-4.362 3.32.56.062 1.081-1.242 1.457-.465-.51.326-.939.772-1.514.997l-.071-.874c-.409.275-1.01 1.179-1.456.467-.087 1.241-.806.247-.893 1.133-.19.072-.217-.216-.328-.32-.016 1.963-1.323 1.6-2.072 2.152.077-.532.001-.87-.302-1.027-.066.714 0 1.53-.894 1.854.072-.35-.049-.896-.153-.512.022.041-.472.61-.589.941-.537.264-1.474-.049-1.534 1.223.784-.039.736-.602 1.475-.864.432.197.144.727.58.822-.002-.563-.24-.52-.094-.871.782-.251 1.034-.556 1.495.199-.304.134-.144.385-.238.553-.165-.479-.563-.417-.85-.617.004 1.077-.352 1.427-.876.97.114.95-.931 1.025-.926 1.33-.024-.23.151-.178.154-.369-.69-.34-1.173.026-1.767.748.084.772.456-.277.639.45-1.229 1.784-2.4 1.85-3.722 2.061.185-.549.84-.399.745-.978-.636.085-.773.849-1.08 1.375-.165-.322-.463.367-.333-.312-1.127 1.063-1.964 1.125-3.684 1.963-.282-.312.047-.765-.322-.839.022.213.035.415-.136.375-.293.234.272.015.175.506-2.137.456-5.245 2.57-8.19 2.446-.507.58-1.07 1.17-1.766.888-.291-.629.775-.273.24-.763.034.393-.447.162-.62.303-.037.45.372.794.169.86-.864.514-2.14.826-2.94.766.11-.042.21-.095.115-.38-1.247 1.577-3.119 1.773-4.77 2.124-.905.74-1.724.885-2.537.767-3.44 1.832-8.913 3.422-13.987 5.255-.044-.217.036-.385-.192-.309-.12.676-.837.208-.476.693-1.523.043-2.351 1.652-4.045.909.282.578-.33.296-.283.646-3.405 1.242-6.95 2.509-9.206 3.754.208-.108.413-.193.558.162-.28-.027.35.752.07.725-.298-.252-.649-.11-.864-.985l-1.838.7c-.054.147.225.537-.011.754l-2.597.983-2.49 1c-1.677.68-3.425 1.431-5.473 2.518.19.028.419-.413.583-.062" opacity=".16"/></g><path d="M249.946 567.614c.326.113.13.41-.023.402.134.172.198.028.288 0 .201.202-.27.319-.402.266-.12-.344.26-.323.137-.668m.552-.365c-.077 0 .607.704.378.137.373.552-.258.37-.326.6.242-.3-.912-.74-.052-.737m1.891-1.828c.335.406-.217.556.215.437.28.67-.675.437-.588.966-.176.034-.28-.421-.076-.335-.218-.285-.336.07-.3.199-.168-.57.495-.74.75-1.267m-31.907 21.08c1.497.147 2.996.277 4.053.216 3.765-.213 7.097-1.943 9.294-3.825.94-.807 2.018-1.192 2.906-1.921 3.568-2.931 7.023-5.262 9.647-8.496.662.382.506-.271.752-.497 3.88-3.564 7.97-7.24 12.09-11.266.83-1.197 2.356-2.407 3.21-3.665-2.243 1.39-4.224 4.117-6.383 5.954-1.032.878-2.186 2.698-3.46 2.288.893-1.862 3.477-2.467 3.996-4.764-2.25 1.599-3.562 3.467-5.707 4.919.422-.39.635-1.081 1.014-1.433.423-.392 1.296-.168 1.128-1.132.453-.13.851-.316.728-.867-.418.326-.812 1.038-1.456.962 1.527-.973 2.435-2.676 3.386-3.394-.072.018-.127.118-.238-.035.192-.317 1.086-.066 1.017-.865-.34-.012-.176.707-.603.398.478-.413.591-1.05 1.268-1.03.052.248-.594.035-.326.6.543-.534.73-1.33 1.042-2.036-.21-.244-.26.217-.479-.071.355-.366.376-.292.63-.03.441.066-.267-1.08.375-.634-.06.072-.216.075-.112.268.445.16-.2-1.016.351-1.004.28.463-.229.346 0 .77.282-.205.51-.076.515-.532-.348-.663-.058.376-.428-.104.784-1.572 2.29-2.936 2.578-4.982-.974.719-2.329 1.339-3.77 1.719-1.534 1.398-3.764 2.86-5.644 4.694-1.213 1.184-2.598 1.9-3.517 3.096-.117-.178.006-.182-.076-.335-1.063 1.64-3.153 2.378-4.85 3.589-2.133 1.524-3.92 3.658-6.468 4.854.227.628-.249.412-.465.498-1.7.679-3.624 3.366-5.466 3.42-1.17.537-2.316 1.926-4.277 2.054-.076.107.045.357.066.535-.963-.507-1.527.483-1.976.727-1.149.625-3.166.01-3.95.488-.917.558-2.266.25-3.575-.151-.043.015-.143-.033-.195-.06.066.022.13.04.195.06.041-.014.03-.085-.133-.292-.295-.004-.085.355-.034.6-.652-.01-1.022-.183-1.673-.437-.209.05-.847.418-1.002-.302-.203.277-.133.345-.62-.168-.616.724-2.364.003-2.8 1.462-.353 1.182 1.611 5.69 3.876 8.242 2.213 2.495 3.84 1.747 5.566 1.916M244.681 608.225c-.13.004-.28-.42-.109-.312-.212-.29-.25.013-.203.134-.216-.536.271-.592.387-1.03.321.416-.084.469.233.426.32.645-.455.293-.308.782m-.956.828c.141-.235-.819-.8-.154-.671-.06-.011.578.723.313.179.373.552-.142.295-.159.492m-.527.158c-.147-.328.15-.253.003-.581.268.149.162.387.043.358.131.174.158.054.223.043.187.21-.16.247-.269.18m4.03-3.821c-.669.634-1.288 2.097-2.336 1.539.41-1.543 2.32-1.7 2.381-3.688-1.507 1.099-2.24 2.585-3.68 3.574.267-.288.326-.88.567-1.14.268-.29.977.04.703-.851.331-.05.612-.157.433-.671-.274.23-.472.812-.984.648 1.04-.647 1.487-2.046 2.12-2.548-.054.005-.08.087-.19-.068.102-.256.833.106.661-.625-.265-.062-.033.61-.409.268.31-.3.305-.857.833-.735.077.23-.456-.06-.166.49.344-.398.373-1.087.511-1.676-.198-.252-.17.156-.38-.137.22-.276.248-.205.483.07.352.127-.363-1.013.2-.514-.036.056-.157.034-.049.224.368.213-.302-.946.128-.85.283.46-.128.276.111.694.19-.142.383.009.323-.401-.366-.651.01.33-.347-.16.382-1.297 1.357-2.293 1.295-4.092-.657.497-1.622.845-2.689.968-.993 1.026-2.515 2.007-3.707 3.38-.768.886-1.739 1.327-2.273 2.27-.117-.177-.022-.162-.109-.313-.58 1.32-2.09 1.684-3.226 2.532-1.425 1.068-2.48 2.737-4.27 3.46.276.597-.127.338-.282.386-1.215.376-2.276 2.53-3.698 2.333-.823.325-1.483 1.425-2.989 1.28-.04.086.093.327.14.49-.833-.582-1.107.235-1.416.396-.789.412-2.463-.4-2.993-.07-.619.386-1.723-.065-2.81-.588-.033.007-.119-.048-.163-.077l.162.077c.03-.007.01-.072-.154-.28-.23-.04-.006.309.076.536-.51-.09-.828-.292-1.379-.602-.155.02-.59.272-.834-.396-.112.225-.045.294-.514-.228-.356.575-1.845-.286-1.935.976-.073 1.022 2.247 5.318 4.457 7.889 2.161 2.516 3.29 2.047 4.66 2.418 1.184.32 2.37.629 3.175.71 2.878.296 5.153-.811 6.534-2.203.592-.596 1.36-.796 1.924-1.328 2.271-2.143 4.563-3.746 6.08-6.274.572.438.35-.171.503-.338 2.438-2.642 5.04-5.34 7.637-8.332.465-.952 1.473-1.802 1.952-2.804-1.537.904-2.674 3.054-4.068 4.38" fill="#D2DCE8"/><path d="M316.148 604.05c.435-.36-.995-.742.182-.822-.105.007.59.73.47.117.322.583-.48.44-.652.706m-1.117.405c-.048-.375.466-.388.417-.764.408.094.035.448-.17.454.125.18.262.012.394-.027.205.206-.48.384-.64.337m4.52-3.467c.32.423-.49.645.144.469.154.726-1.075.558-1.138 1.144-.254.055-.239-.446.011-.37-.2-.3-.484.112-.48.254-.034-.623.933-.88 1.463-1.497m11.575-15.543c-2.575 1.716-6.125 3.573-9.324 5.813-2.065 1.445-4.207 2.385-5.873 3.815-.098-.19.072-.204.011-.37-2.016 1.945-5.13 2.977-7.867 4.5-3.44 1.917-6.62 4.488-10.516 6.077.092.685-.483.488-.807.605-2.557.926-6.12 4.133-8.652 4.369-1.784.715-3.834 2.389-6.553 2.717-.14.128-.063.398-.095.597-1.137-.48-2.25.687-2.95 1.005-1.786.813-4.318.309-5.554.92-1.445.714-3.172.492-4.812.162-.063.02-.183-.024-.245-.048.081.016.164.03.245.048.062-.02.071-.1-.079-.318-.4.024-.24.409-.257.68-.884.05-1.326-.112-2.122-.338-.302.077-1.299.549-1.256-.25-.374.333-.302.403-.786-.13-1.09.873-3.21.219-4.318 1.906-.897 1.366.177 6.276 2.352 8.947 2.125 2.612 4.607 1.615 6.901 1.644 1.988.024 3.987.028 5.452-.14 5.214-.597 10.38-2.87 14.045-5.203 1.57-1 3.18-1.538 4.65-2.445 5.91-3.648 11.452-6.61 16.17-10.503.773.364.787-.355 1.201-.633 6.55-4.387 13.422-8.918 20.451-13.843 1.547-1.425 4.054-2.934 5.653-4.43-3.55 1.782-7.198 5.037-10.788 7.312-1.716 1.086-3.924 3.244-5.53 2.909 1.863-2.178 5.616-3.113 7.11-5.742-3.633 2.016-6.068 4.243-9.508 6.083.713-.478 1.242-1.277 1.882-1.71.714-.48 1.834-.314 1.935-1.38.665-.19 1.273-.438 1.292-1.044-.683.406-1.466 1.244-2.324 1.222 2.427-1.242 4.254-3.243 5.803-4.141-.105.027-.214.144-.315-.016.372-.375 1.512-.181 1.688-1.07-.46.019-.48.81-.962.506.796-.51 1.17-1.237 2.09-1.28-.012.272-.826.096-.65.705.926-.653 1.454-1.565 2.12-2.387-.204-.253-.43.27-.632-.033.61-.444.614-.363.872-.094.585.03.002-1.184.731-.748-.107.087-.322.105-.245.31.557.137.071-1.118.823-1.16.226.492-.432.41-.262.866.457-.26.724-.137.888-.65-.252-.71-.208.429-.55-.073 1.606-1.84 4.134-3.517 5.218-5.836-1.58.902-3.646 1.729-5.75 2.297" fill-opacity=".32" fill="#D2DCE8"/><path d="M310.365 636.38c.407.686.247-.085 0 0" fill="#231F20"/></g></svg>