<svg width="3042" height="601" xmlns="http://www.w3.org/2000/svg"><defs><linearGradient x1="50%" y1="0%" x2="50%" y2="100%" id="a"><stop stop-color="#FBFDFF" offset="0%"/><stop stop-color="#FBFDFF" stop-opacity="0" offset="100%"/></linearGradient></defs><g fill="none" fill-rule="evenodd"><path fill="url(#a)" d="M.007 304.135h3042v600H.007z" transform="translate(0 -304)"/><path d="M808.508 26.388c-.592-.16-.935-.524-1.099-.998-.53-1.542.84-4.252 1.793-4.937 2.3.953.476 4.52-.694 5.935zm-24.067 1.586a3.315 3.315 0 0 1-.096-.247c-.225-.651-.244-1.442.126-2.508 1.24.064 1.977.459 2.487 1.02-.342 1.336-1.181 1.916-2.517 1.735zm82.67 35.775c2.35-.203 1.322 4.755-.77 3.719-.362-1.812.256-1.797.77-3.719zm-95.347-11.122c-1.236-.315-2.16-1.307-2.57-2.5-.437-1.268-.294-2.765.667-3.918 1.077 1.67 3.166 4.601 1.903 6.418zM876.698 72.15a3.062 3.062 0 0 1-.188-.413c-.236-.686.409-.453.626-1.706 2.091-.048 1.476 2.915-.438 2.119zm-132.825-20.3c-1.6-.134-2.44-.79-2.785-1.788-.289-.84-.228-1.922.028-3.138 2.487.565 3.041 2.455 2.757 4.925zm129.063 30.627a2.296 2.296 0 0 1-.693-1.028c-.922-2.68 2.1-7.554 4.534-7.077 4.076.792 3.706 10.812-3.841 8.105zm-82.375-16.43c-.543-.641-1.302-1.591-1.658-2.626-.348-1.011-.313-2.103.68-3.066 1.443 1.01 1.62 4.686.978 5.692zM749.6 60.63c-1.82-.788-2.682-1.622-2.943-2.378-.372-1.085.496-2.01 1.546-2.41 1.853-.707 4.27.222 1.397 4.788zm55.283 27.377c-5.792.392-9.897-3.235-11.422-7.665-.86-2.499-.9-5.253.043-7.685 2.782-7.184 11.287-7.189 18.054-3.805 2.831 4.79 3.381 7.857 1.29 14.573-3.436 1.005-4.921 4.377-7.965 4.582zm47.842-4.33c-.208-.183-.363-.448-.474-.77-.572-1.66.042-4.826.755-5.79 1.5-.123.827 1.248 1.858 1.448-1.656 1.793-.963 3.327-2.139 5.111zm-32.149-11.49c1.76 1.214.781 6.262-1.839 6.272.318-2.552 1.085-4.398 1.839-6.273zm64.39 20.016c-1.065-.761-2.131-1.523-2.548-2.733a3.31 3.31 0 0 1-.084-.285c3.71.932 6.448 2.533 6.908 5.697-.476.207-.958.4-1.669.244-.366-1.321-1.487-2.123-2.606-2.923zm-119.06 17.22c-2.296-1.784-4.748-3.74-5.592-6.191-.43-1.251-.442-2.631.196-4.184 2.053-5.015 9.178-3.48 11.016 1.497-.75 4.683-3.897 5.685-5.62 8.878zm-71.186-20.966c-1 .156-2.064.181-2.348-.643-.113-.328-.103-.79.086-1.431 1.508.172 2.849.462 2.262 2.074zm139.224 25.905c-1.103.152-2.503.292-2.849-.712-.082-.239-.104-.544-.049-.928.958-.67 3.758-.284 2.898 1.64zm55.582 10.343c-.728-.325-2.324-.057-2.555-.727-.065-.189-.022-.449.175-.816 1.337-.108 2.896-.577 2.38 1.543zm17.519 6.566a2.448 2.448 0 0 1-.052-.138c-.548-1.597.382-2.783 1.555-3.268 1.17-.484 2.58-.27 3 .93l.007.022c.178.527.167 1.242-.134 2.168-1.028.755-2.445.918-4.376.286zm-73.42-7.594c-.991-.033-1.587-.34-1.787-.92-.138-.4-.088-.93.15-1.59 1.678.057 2.224.894 1.638 2.51zm13.08 12.359c-.716-.05-1.106-.325-1.257-.762-.144-.42-.071-.988.141-1.652.52.094 1.04.191 1.556.287-.145.71-.291 1.416-.44 2.127zm14.185 7.046c-.694-.13-1.388-.258-2.08-.386.012-1.15.65-1.34.963-2.027 1.4.095 1.555 1.056 1.117 2.413zm26.242 8.744c2.264 1.059.34 3.606-1.483 1.925l.33-1.589c.588.198.95.056 1.153-.336zm-27.11 3.226c-1.231-.31-2.333-.705-2.653-1.637-.143-.414-.132-.934.089-1.6.915-.636 3.561-.147 4.157.775.088 1.778-1.16 1.49-1.593 2.462zm5.683 3.813c-.927.68-2.757-.03-4.266-.245.433-2.876 3.954-4.315 5.226-1.785-.502.401-.803 1.096-.96 2.03z" fill="#D2DCE8" fill-opacity=".4"/><path d="M2167.81 300.523c.574-.219 1.066-.126 1.477.162 1.335.935 1.82 3.933 1.451 5.047-2.42.58-3.041-3.376-2.927-5.209zm18.54-15.429c.074.044.15.092.223.143.564.395 1.044 1.023 1.371 2.103-1.04.678-1.868.791-2.612.637-.508-1.282-.17-2.244 1.017-2.883zm-87.91 19.65c-1.781 1.545-3.865-3.07-1.563-3.461 1.358 1.253.849 1.603 1.562 3.46zm83.675-47.046c1.185-.472 2.515-.212 3.548.512 1.099.769 1.863 2.064 1.763 3.561-1.852-.717-5.265-1.86-5.31-4.073zm-96.369 45.884c.17.084.3.157.395.224.594.416-.065.607.496 1.748-1.664 1.268-2.908-1.49-.891-1.972zm119.39-61.649c1.373-.833 2.439-.796 3.304-.19.727.509 1.313 1.42 1.821 2.555-2.343 1.004-3.903-.2-5.125-2.365zm-122.417 51.083c.43.03.818.182 1.165.425 2.321 1.625 2.74 7.345.492 8.39-3.764 1.755-9.354-6.568-1.657-8.815zm76.3-35.126c.817.199 1.989.521 2.886 1.15.875.613 1.489 1.517 1.25 2.88-1.76.03-4.064-2.839-4.135-4.03zm36.322-19.694c1.936-.432 3.123-.264 3.778.194.94.66.78 1.917.166 2.859-1.083 1.66-3.585 2.33-3.944-3.053zm-60.817 10.346c4.455-3.722 9.908-3.2 13.746-.512 2.165 1.516 3.815 3.721 4.482 6.242 1.972 7.447-4.905 12.45-12.37 13.69-5.105-2.211-7.353-4.368-9.609-11.031 2.19-2.833 1.409-6.434 3.751-8.389zm-36.16 31.625c.276.025.557.148.836.343 1.439 1.008 2.803 3.93 2.793 5.129-1.142.981-1.403-.525-2.354-.08.285-2.424-1.177-3.258-1.275-5.392zm32.763-9.601c-2.138.052-4.313-4.608-2.2-6.156 1.244 2.251 1.708 4.196 2.2 6.156zm-63.859 21.654c1.31-.01 2.62-.021 3.669.713.08.056.159.116.236.18-3.55 1.428-6.705 1.742-8.938-.548.264-.448.54-.887 1.207-1.178 1.072.854 2.45.844 3.826.833zm86.2-83.914c2.907.094 6.04.235 8.164 1.722 1.083.76 1.905 1.869 2.3 3.5 1.288 5.264-5.378 8.21-9.792 5.264-2.146-4.23-.188-6.89-.672-10.486zm69.915-24.88c.717-.713 1.564-1.36 2.278-.86.283.199.547.579.772 1.209-1.322.747-2.577 1.3-3.05-.35zm-127.86 60.877c.802-.772 1.852-1.708 2.722-1.1.207.146.405.38.585.723-.38 1.106-2.873 2.438-3.308.377zm-51.047 24.302c.78-.165 1.914-1.32 2.494-.913.163.114.282.35.338.762-1.018.873-2.003 2.17-2.832.15zm-18.032 4.986c.042.026.083.053.122.08 1.383.97 1.327 2.477.664 3.559-.662 1.078-1.928 1.735-2.974 1.01l-.018-.013c-.455-.322-.866-.907-1.167-1.834.388-1.214 1.438-2.18 3.373-2.802zm63.86-37.012c.822-.556 1.485-.658 1.988-.306.346.242.617.7.812 1.374-1.39.94-2.324.585-2.8-1.068zm-17.845-2.31c.608-.381 1.085-.388 1.464-.122.363.254.639.757.857 1.419-.476.229-.954.456-1.427.682-.3-.66-.597-1.317-.894-1.98zm-15.617 2.637l1.91-.91c.666.937.26 1.465.411 2.206-1.189.746-1.879.059-2.321-1.296zm-26.371 8.35c-2.454.475-2.394-2.717.068-2.429l.668 1.48c-.593.185-.802.514-.736.95zm20.037-18.545c1.178-.473 2.301-.8 3.108-.234.359.25.656.677.869 1.346-.367 1.052-2.795 2.212-3.819 1.817-1.116-1.386.063-1.887-.158-2.929zm-6.84.257c.35-1.097 2.249-1.596 3.595-2.31 1.342 2.581-.662 5.815-3.177 4.516.17-.62.005-1.359-.417-2.206z" fill-opacity=".48" fill="#1694FF"/><path d="M2138.83 10.951c155.061 41.492 310.195 81.348 464.96 121.657 39.017 10.174 19.67 101.763-20.756 94.305-79.946-14.73-158.896-34.88-236.7-58.965-77.81-24.086-226.967-13.149-302.549-43.636-75.589-30.49-77.604-102.401-151.307-136.406-73.707-34.013-146.62-69.048-219.195-103.82-1.785-.844-.2-4.936 1.69-4.372 153.848 46.64 308.82 89.748 463.857 131.237z" fill="#E5ECF4"/><path d="M2426.408-203.451c-.879 7.505-6.131 7.285-9.659 10.114-2.787-1.876-5.477-3.788-8.298-5.652.502-3.345-.361-5.94.597-9.532 4.45-3.303 15.095.351 17.36 5.07zm33.813 15.579c-1.748 3.94-5.604 4.024-10.425 2.322.848-5.587 5.583-4.053 10.425-2.322zm-25.389 4.079c-4.005-1.065-8.027-2.111-8.928-5.02 2.35-11.128 13.086-3.793 8.928 5.02zm7.423-7.661c3.46.85 3.384 6.422.85 8.183-5.45-.424-2.667-5.71-.85-8.183zm-125.1-24.17c3.927 2.204 4.121 6.498 2.95 11.523-1.572-3.505-5.21-5.892-2.95-11.523zm47.549 32.942c3.687 2.409 6.345 5.367 4.306 10.703-5.006-1.525-7.375-7.998-4.306-10.703zm-43.96.515c-3.864-1.25-4.733-7.316-.704-8.177 3.147 1.214 1.465 4.952.704 8.177zm-24.943-9.368c1.116 1.766-.253 4.773-1.072 7.507-5.202-.893-6.8-3.56-4.78-8.069 1.538-.492 3.379-.5 5.852.562zm24.557 10.874c4.638 1.605 7.013 4.508 4.542 10.103-1.489.805-3.792.094-6.174-.755-.817-2.368-1.337-7.44 1.632-9.348zm184.943 60.65c-.855 5.137-3.507 6.726-7.936 4.738-2.403-5.4 5.113-9.874 7.936-4.739zm-303.202-85.165c-.443 3.25-2.784 2.592-5.272 1.586.265-.992.547-1.998.822-2.99 1.527-.91 3.638-.245 4.45 1.404zm-52.178-14.044c3.097 1.185 2.623 6.469-.215 8.048-2.527-.37-3.985-1.271-4.964-2.386.631-3.673 3.437-3.81 5.179-5.662zm150.15 52.525c-.477 1.615-.963 3.228-1.435 4.848-2.534 1.188-8.959.717-11.212-2.205-2.966-10.664 11.445-10.723 12.646-2.643zm-58.92-10.506c-.552 1.844-1.102 3.669-1.635 5.51-5.044 2.653-13.751-2.749-13.186-7.83 2.181-6.072 13.215-2.143 14.821 2.32zm45.24 23.27c1.894 8.283 5.166 15.671 7.015 24.011-9.946.838-10.339-16.175-7.015-24.01zM2532.96-53.355c2.657 2.438 2.883 6.026-.347 8.03-4.368-1.017-2.7-7.052.347-8.03zm-309.784-89.425c-.683 3.312-2.52 4.458-5.286 3.806.675-3.298 2.529-4.451 5.286-3.806zm-23.036 1.572c4.321 1.29 9.025 2.368 11.622 4.668-.118 3.431.702 9.447-2.287 11.792-5.111-4.33-9.485-9.1-9.335-16.46zm-54.27 12.002c-.324-9.024-9.076-13.147-9.624-22.035 5.269-2.001 5.527 5.062 9.838 6.353 3.433-2.306 6.597-12.216 11.407-6.627-2.612 9.904-6.091 18.131-11.62 22.31zM2524.48-22.242c-5.823 1.464-8.881-4.53-8.847-8.76 2.964.048 9.986 3.93 8.847 8.76zm82.643 36.172c-2.529 5.892-15.088 4.662-12.497-3.71 4.717-.083 9.933.503 12.497 3.71zm-470.238-132.32c4.738 1.814.984 8.724 1.207 13.256-6.913-.212-4.002-9.868-1.207-13.256zM2514.644-1.161c.965.282 1.928.579 2.888.86-.469 2.691-1.578 4.191-4.04 3.133.388-1.324.767-2.654 1.152-3.993zm-429.236-103.35c-3.475-2.067-14.06-2.457-11.662-9.495 5.848-.314 12.653 3.935 11.662 9.495zm21.91 12.59c-5.725-2.255-9.864-5.368-8.707-11.425 6.625-7.496 18.054 5.881 8.706 11.425zm394.75 141.745c-2.05.594-5.834 1.61-7.348-1.214.8-7.973 11.739-7.983 7.348 1.214zm55.237 27.729c4.203 1.822 2.577 6.095-.143 8.058-2.487-1.27-2.564-6.325.143-8.058zm38.092 28.145c-3.491-6.02-7.808-.3-14.337-3.408.17-2.184-1.278-3.349-.397-6.017 7.373.457 15.141-1.123 14.734 9.425zm-30.618-4.345c-1.755.64-2.977 2.24-4.469 3.36-3.064-1.33-4.747-3.435-5.166-6.234 1.875-7.123 11.45-3.5 9.635 2.874zM2032.694-59.402c-3.58-.695-5.089.113-7.721-2.332.681-5.03 8.775-.923 7.721 2.332zm10.37.802c-1.589 3.534 1.806 3.187.227 6.716-3.834-.957-5.35-3.753-6.95-6.474 1.74-1.428 4.051-1.337 6.723-.242zm35.07 19.994c-.02 2.894-2.841 1.353-3.48 3.272-2.813-.894-3.895-2.616-3.256-5.122 2.71.43 5.228-.617 6.737 1.85zm448.635 143.19c2.74.628 5.152 1.451 3.839 4.428-2.367 1.404-6.044-.708-3.84-4.428zM1989.075-54.483c.02 2.288.369 6.12-2.325 7.363-3.942-.288-4.204-2.274-5.848-3.613.76-4.33 3.481-5.574 8.173-3.75zm504.506 154.736c6.781 9.016 21.27 13.62 21.71 26.277-7.868-7.549-18.386-13.601-26.318-21.118 1.506-1.77 3.095-3.37 4.608-5.16zm63.915 44.033c-3.79-1.895-7.353-3.9-9.14-6.821 4.462-3.998 8.696 3.618 9.14 6.82zm-3.592 23.599c-9.365-.164-17.892-8.039-18.934-16.172 6.932-4.534 19.061 7.928 18.934 16.172zM2051.617 8.202c10.257 4.096 7.982 15.107 11.535 22.917-3.323 4.053-7.6 6.348-12.042 8.317-8.122-6.005-12.279-26.285.507-31.234zm346.472 128.006c3.752.657 3.93 3.398 5.842 5.128-3.618 9.079 2.341 16.7-3.783 24.447-7.352-5.967.055-20.556-2.06-29.575zm40.928 13.31c.939.295 1.88.576 2.819.873.745 1.531.052 3.903-.77 6.39-5.112.158-4.896-5.334-2.049-7.264zm-425.94-113.983c.966.274 1.933.547 2.897.834-.601 2.733-1.406 5.153-4.29 3.828-.873-1.58-.205-3.819 1.393-4.662zm50.836 22.982c.303 4.699.503 6.097-2.554 9.342-4.152-.536-4.527-3.466-5.232-6.195 1.28-3.846 3.903-4.853 7.786-3.147zm-73.198-21.033c.97.284 1.936.557 2.907.831-.937 1.172-.299 5.003-2.34 4.253-3.524 0-.652-3.26-.567-5.084zm433.524 138.41c-1.406 3.318-3.676 4.756-6.793 4.33-2.521-5.276 4.63-9.138 6.793-4.33zm-43.992 21.34c-7.927 1.309-6.97-8.228-13.72-10.153 4.882-6.124 14.422 3.815 13.72 10.152zm-234.978-49.548c-8.709 8.363-22.984 6.311-33.258 11.772-.704 2.34.821 3.446-.756 6.297-2.82.91-4.453 4.006-8.322 2.94 6.687-10.616 13.922-20.194 26.18-20.425-4.216-13.844 14.815-8.153 16.156-.584zM1992 100.86c1.525 1.974 3.93 3.503 2.377 7.036-2.542 1.877-6.944.507-9.615-1.707 1.266-3.732 4.532-4.024 7.238-5.329zm466.347 142.548c7.463 12.094-15.541 31.871-25.411 17.631 2.644-10.79 11.615-21.712 25.411-17.631zm-114.276-25.89c3.226 1.585 4.83 3.981 3.115 8.001-6.005 1.726-8.556-6.37-3.115-8zm-263.284-72.59c1.625.763 1.7 2.384.776 4.572-.965-.282-1.932-.585-2.896-.877.204-2.203 1.433-2.434 2.12-3.696zm65.282 28.94c.573 3.615-.906 4.784-3.209 6.91-7.792-1.68-5.484-11.607 3.21-6.91zm-214.322-56.978c.942.277 1.869.556 2.806.833-.837 6.2-6.51 9.717-9.977 6.321 1.074-4.852 5.947-2.602 7.17-7.154zm155.79 58.405c-1.727 4.209-4.534 6.528-8.506 6.805-1.486-4.785 3.835-8.163 8.507-6.805zm64.28 27.541c1.6.168 1.347 1.478 2.518 1.903-.756 5.447-5.433 2.897-7.611 5.458-3.64-3.087 3.787-4.416 5.094-7.36zm-55.875-5.322c2.003.156 2.18 1.519 3.303 2.261-.91 3.15-1.942 5.992-5.033 4.236-1.356-2.91 1.27-2.951 1.73-6.497zm191.452 58.875c-.913 4.113-2.543 6.97-5.73 7.231-1.986-.429-1.908-1.91-4.037-2.255-3-6.36 5.669-10.766 9.767-4.976zm-175.5-45.513c-1.605 3.983-5.16 4.717-7.584 2.253-2.42-10.094 8.81-11.589 7.584-2.253zm-35.473-5.682c-.87 4.306-2.293 7.664-5.708 7.433-2.73-.612-2.854-2.615-4.76-3.674-.27-7.508 7.112-7.73 10.468-3.759zm197.076 59.913c-4.8 6.27-15.707 9.42-23.874 4.616 2.643-4.473 16.408-8.821 23.874-4.616zm-325.863-44.558c-1.807-13.27 6.74-48.143 22.446-37.349 2.873 14.2-1.683 49.936-22.446 37.349zm170.43 18.678c4.64 1.51 7.06 7.983 4.644 10.751-5.05-1.54-6.575-5.15-4.645-10.751zm-9.423 6.246c5.436.918 3.74 6.865-1.325 4.619-.785-1.557-.153-3.749 1.325-4.619zm213.567 68.271c-3.67.171-2.415-.602-6.325-1.813.311-1.001.601-2.006.9-2.994 2.636-1.245 8.204.744 5.425 4.807zm6.141-1.578c-1.4 4.878 6.744 7.74 3.21 11.077-3.952-2.31-3.372-7.236-9.256-8.439.967-2.924 2.618-4.53 6.046-2.638zm-289.96-81.816c-1.305 4.286-3.514 7.1-8.32 5.633-1.66-4.508 4.448-9.943 8.32-5.633zm28.87 36.336c2.013 1.555 2.464 6.364-.14 8.038-5.807-.355-2.47-7.218.14-8.038zm-23.722-5.111c2.639 1.246 3.753 3.344 3.358 6.258-1.185 3.223-3.477 4.403-7.094 3.112-.444-3.291.773-8.408 3.736-9.37z" fill="#E5ECF4" opacity=".32"/><g><path d="M2181.41 26.152c-1.166.419.335 1.974-1.285 1.138.574 3.606 3.781 3.226 4.943 5.357-26.236-15.441-52.196-34.11-77.65-53.358-26.363-19.91-58.008-41.78-78.366-69.676 1.564-.82.82 1.928 2.543.55-.89-2.75-2.585-5.099-4.119-8.043-1.478-2.83-2.054-6.68-3.432-9.611-1.491-3.199-3.784-5.4-1.527-10.997-1.739-2.287-.522-6.372-2.177-8.702 2.055-2.93 1.945-4.74 3.07-8.143.738.154-.116 1.228.843.65.657-2.334-.239-3.724 1.38-6.644.334.959.666 1.921.997 2.875 1.561-2.321-.804-3.294 1.376-5.242.77.975 1.449.235 3.206-1.028 17.133 32.284 44.48 53.145 70.219 75.177 18.7 16.005 35.466 27.046 56.147 41.545 15.436 10.838 31.97 21.458 46.708 32.797 19.401 14.884 37.71 25.294 53.126 43.766-.657 2.135-.097 3.372-.726 5.483-5.856 9.324-11.313 7.419-15.171 7.343-2.287-.043-5.283.623-7.148-.015-5.72-1.95-8.41-6.161-13.838-9.071-5.305-2.84-10.076-5.535-14.458-8.911-1.494-1.152-3.554-.949-3.984-3.32-5.551-.875-8.89-6.643-13.606-9.81-1.028-.69-2.994-.01-3.957-.657-1.115-.752-2.277-2.754-2.939-3.334l-.176-.119zm15.257 14.305c-.898.944-1.736.342-1.917-.622.976-.46.78.688 1.917.622zm24.657 19.67c-8.205-5.997-15.736-11.45-23.845-17.79.418-.488 1.096-.963.665-.224 8.552 6.13 18.192 10.814 23.18 18.015zm-28.533-21.613c4.63-1.559-.52 2.935-.132.583-.004.025-.136-.493.132-.583zm-7.496-5.046c.964.306 2.582 2.49 3.166 1.461-.847-.8-2.295-2.173-3.166-1.461z" fill-opacity=".64" fill="#FFF"/><path d="M2244.996 271.043c-1.13.434.2 1.91-1.286 1.135.329 3.49 3.387 3.06 4.354 5.114-23.875-14.527-47.544-31.795-70.978-49.338-24.28-18.174-53.76-37.426-72.919-62.97 1.498-.915.768 1.806 2.42.34-.831-2.6-2.427-4.755-3.874-7.497-1.393-2.638-1.926-6.339-3.231-9.09-1.417-2.99-3.606-4.941-1.454-10.568-1.67-2.084-.516-6.155-2.105-8.29 1.953-3.017 1.836-4.775 2.901-8.18.702.095-.109 1.206.803.566.621-2.329-.247-3.609 1.289-6.585.32.91.63 1.83.97 2.724 1.478-2.385-.792-3.149 1.282-5.223.744.893 1.39.117 3.063-1.247 16.638 30.127 42.537 48.563 66.635 68.762 17.486 14.656 33.13 24.711 52.264 38.194 14.289 10.069 29.508 20.09 42.911 30.92 17.607 14.23 34.378 24.307 47.592 42.396-.792 2.079-.357 3.284-1.125 5.338-6.315 9.07-11.344 7.22-14.991 7.153-2.169-.039-5.06.615-6.772-.003-5.25-1.9-7.504-5.952-12.422-8.757-4.809-2.738-9.147-5.29-13.067-8.523-1.336-1.104-3.3-.88-3.549-3.182-5.187-.787-7.993-6.32-12.26-9.324-.929-.657-2.839.048-3.709-.566-1.004-.714-1.989-2.641-2.58-3.183a3.319 3.319 0 0 0-.162-.116m13.551 13.64c-.91.934-1.667.361-1.773-.57.953-.466.69.653 1.773.57m21.941 18.87c-7.298-5.795-14.055-10.99-21.295-17.054.428-.482 1.1-.954.645-.226 7.676 5.847 16.48 10.294 20.65 17.28m-25.489-20.69c4.497-1.597-.684 2.863-.162.568-.003.025-.098-.479.162-.568m-6.776-4.776c.895.284 2.287 2.377 2.906 1.368-.75-.764-2.033-2.077-2.906-1.368" fill="#D2DCE8"/></g><g fill="#191D2F"><path d="M2068.886 109.225c.302 1.01 1.267.904.768 1.5 2.313 1.664 1.997-.659 3.352-.2-9.398 8.416-20.538 15.287-31.835 21.941-11.72 6.901-23.9 16.866-40.702 16.655-.674-1.499 1.208.415.156-1.475-1.751-.788-3.172-.815-5-1.25-1.757-.424-4.274-1.977-6.114-2.513-2.002-.578-3.263-.086-7.197-4.471-1.374.065-4.206-2.83-5.627-2.842-2.138-2.895-3.343-3.721-5.72-6.204.04-.439.832.693.366-.261-1.625-1.627-2.481-1.689-4.578-4.276.617.246 1.246.495 1.846.738-1.69-2.246-2.148-1.081-3.642-3.573.597-.05.041-.892-.954-2.747 20.246 4.074 32.095-4.062 45.327-9.961 9.581-4.27 16.1-9.66 24.919-15.58 6.583-4.423 13.157-9.466 20.299-12.8 9.374-4.364 16.043-10.388 28.002-9.499 1.37 1.69 2.165 2.054 3.52 3.71 5.976 9.333 4.765 11.757 4.726 14.213-.02 1.464.423 3.802.018 4.634-1.235 2.542-3.893 1.861-5.721 3.69-1.784 1.78-3.44 3.353-5.556 4.266-.717.314-.552 1.78-2.079.687-.478 3.117-4.114 2.027-6.072 3.31-.428.275.059 1.964-.343 2.225-.463.296-1.73-.077-2.088.033l-.07.05zm8.92-1.84c.623 1.132.254 1.336-.363.904-.32-.91.425-.119.363-.904zm12.313-4.664c-3.78 1.802-7.16 3.58-11.117 5.212-.325-.554-.641-1.271-.157-.563 3.807-2.05 6.687-5.644 11.274-4.649zm-13.489 6.098c-1.101-3.947 1.905 2.03.378.42.021.019-.313-.198-.378-.42zm-3.1 2.033c.18-.46 1.556-.27.876-1.245-.499.098-1.355.26-.877 1.245zM2334.397-40.299c-.156 1.229 1.91.597.43 1.66 3.474 1.126 4.591-1.904 7.018-1.971-25.67 16.366-54.09 31.021-82.796 44.963-29.708 14.45-63.56 32.717-97.658 38.192-.02-1.766 2.09.144 1.645-2.016-2.854-.455-5.717-.011-9.037.018-3.193.032-6.885-1.202-10.122-1.305-3.526-.123-6.528.92-10.49-3.632-2.828.511-5.915-2.428-8.743-2.01-1.677-3.162-3.34-3.885-5.861-6.433.471-.588 1.04.661.96-.456-1.78-1.645-3.425-1.478-5.292-4.246 1.006.138 2.014.279 3.014.417-1.36-2.445-3.3-.779-4.046-3.606 1.218-.244.867-1.184.54-3.324 36.543-.608 67.546-15.505 98.862-28.435 22.75-9.395 40.199-19.323 62.507-31.166 16.665-8.834 33.633-18.743 50.427-26.728 22.07-10.53 39.657-22.117 63.115-27.466 1.604 1.555 2.96 1.616 4.555 3.136 5.65 9.45 1.474 13.448-.345 16.85-1.076 2.02-1.843 4.99-3.258 6.363-4.334 4.211-9.308 4.696-14.365 8.211-4.938 3.438-9.505 6.465-14.503 8.837-1.704.808-2.46 2.736-4.768 2.042-3.3 4.55-9.954 4.905-14.916 7.67-1.082.603-1.368 2.663-2.382 3.227-1.177.653-3.488.78-4.305 1.105l-.186.103zm19.672-7.1c.434 1.229-.483 1.702-1.424 1.425.033-1.078.967-.382 1.424-1.425zm28.721-13.04c-9.07 4.588-17.346 8.823-26.677 13.17-.245-.594-.36-1.414.103-.694 9.343-4.837 17.894-11.3 26.574-12.475zm-32.212 15.612c.714-4.835 2.38 1.795.46.382.02.014-.501-.103-.46-.382zm-7.899 4.387c.711-.72 3.391-1.17 2.74-2.157-1.097.391-2.978 1.058-2.74 2.157zM2299.697 87.306c-.127 1.203 1.793.69.427 1.662 3.26 1.291 4.264-1.629 6.534-1.558-23.783 14.677-49.915 27.927-76.185 40.843-27.215 13.383-57.752 30.909-89.21 36.383-.136-1.75 1.957.136 1.4-2.001-2.693-.44-5.337.003-8.438.047-2.983.044-6.522-1.162-9.566-1.247-3.307-.095-6.04.97-10.076-3.503-2.615.541-5.718-2.334-8.342-1.888-1.802-3.11-3.421-3.804-5.971-6.298.403-.583 1.024.644.868-.459-1.793-1.61-3.327-1.418-5.282-4.137.957.127 1.917.269 2.868.372-1.455-2.4-3.165-.724-4.072-3.514 1.133-.257.736-1.185.28-3.296 34.397-1.146 62.58-15.853 91.519-28.154 20.997-8.926 37.059-18.301 57.758-29.228 15.458-8.16 31.296-17.171 47.032-24.197 20.673-9.227 37.264-19.595 59.38-23.157 1.493 1.65 2.765 1.81 4.246 3.426 5.215 9.744 1.284 13.386-.433 16.604-1.019 1.915-1.749 4.788-3.077 6.033-4.075 3.815-8.71 3.984-13.441 7.093-4.623 3.041-8.866 5.748-13.527 7.773-1.59.689-2.282 2.542-4.446 1.717-3.056 4.265-9.26 4.253-13.874 6.692-1.007.529-1.246 2.55-2.188 3.047-1.092.57-3.256.573-4.007.854-.062.03-.118.059-.177.091m18.306-5.881c.418 1.235-.436 1.65-1.314 1.321.018-1.061.896-.32 1.314-1.321m26.773-10.983c-8.477 3.872-16.173 7.534-24.862 11.231-.236-.6-.35-1.413.09-.677 8.696-4.185 16.655-10.01 24.772-10.554M2314.77 83.76c.618-4.732 2.24 1.91.432.402.021.015-.47-.13-.432-.402m-7.332 3.869c.66-.668 3.156-.958 2.538-1.969-1.022.322-2.774.87-2.538 1.969"/></g></g></svg>
