<svg width="660" height="660" xmlns="http://www.w3.org/2000/svg"><g fill="#D2DCE8" fill-rule="evenodd"><path d="M483.545 183.205c.171.22.08.34.915.815l-.143.182c-.595-.29-.887-.34-1.711-.805.516-.02-.537-.759.176-.712-.759-.066-.687-.565-.406-.472.206.197 1.054.678.434.438.698.26 1.572.902 2.369 1.454-.451-.35-.988-.56-1.634-.9m-.912-2.121l-.561-.306c-.756-.616.494-.23-.85-1.01.656.094-.016-.245-.364-.589.097-.001.582.275.618.231-1.025-.61.49-.021-1.297-.927.538.076.597.143.201-.281 2.71 1.421.33 1.116 2.799 2.667-.754-.442-.624-.234-1.185-.537-.004.167.77.63.949.87-.236-.138-.278-.131-.31-.118m-2.026-1.618c.94.736.696.948 1.144 1.472-1.094-.594-1.094-1.168-1.144-1.472m-.626-.723c.99.654.198.526.652.948-1.036-.676-1.082-1.098-.652-.948m-.351-1.814c-.3-.233-.203-.26.042-.083-.132-.172-.48-.457-.928-.79 1.029.578.09-.287-.565-.854.205.037.697.353 1.273.749-.033.276.877 1.037.705 1.25-.405-.318-.474-.302-.527-.272m-1.734-.921c-.802-.616 1.444.598 1.212.704-.882-.526-.984-.446-1.866-.976-.07-.134.28.06.654.272m19.698 29.647l-.324.378c.124.304.05.496-.196.772-.772-.766.082-1.404.52-1.15m-.994 9.536c-.17-.87-.132-2.466 1.228-1.836-.746.406-.548 1.388-1.228 1.836m-1.54 1.584c-.822.426.288-.692.246-1.242.724 1.074-.086 1.16-.246 1.242m-24.249 7.163c.338-.104.326-.03.656.004.234.428-.074 1.052-.656-.004m.903-.111c-.26-.097.824 1.176.563 1.08-.43-.429-.632-.289-1.421-1.624l-1.075.657c.054.21.552.847.496 1.123-1.054.686-2.048 1.195-3.083 1.759a31.294 31.294 0 0 0-3.069 1.992c.051-.009.12.046.239.262-.824.557-1.279.826-2.185 1.109 1.296.983 2.027-.507 2.865-.093.009.269-.222.248-.073 1.059 2.634.313 4.561-.868 6.355-2.146 1.796-1.307 3.435-2.756 5.738-3.25 1.028-.195 1.889-1.211 2.862-1.653 1.058-.476 1.803-1.522 2.6-2.517.815-.983 1.68-1.916 3.019-2.275-1.717 2.456-4.525 4.047-6.853 6.432-.555.582-1.761.487-2.098 1.789-.088.33.507.238.6-.035 1.666 1.294 1.464-.546 2.087-1.052.249-.196.947.188 1.143-.074.251-.334.56-.381.786-.567 5.412-4.51 8.339-9.238 11.972-14.03.474-.646.714-1.54 1.9-1.58-.353-.325-.795-.697-.598-.7 1.047-.635.654-2.26 1.794-2.477-.363 2.137-1.407 3.602-1.582 5.82.507-1.304 1.282-2.457 1.885-3.839.098-.015.282.19.463.397-.438-2.54.86-3.51 1.589-4.708.207 2.57-1.256 4.255-1.508 6.896l-.176.188c.346.292.316.073.405.016.765-.12-.11-1.424 1.1-.755-.92.6-.321 2.072-1.575 2.152-.067-.44.493-.135-.098-.787-1.075 2.21-3.232 4.019-3.536 7.009.058-.545.497-1 1.007-.95-1.175 2.82-2.93 4.414-4.72 6.658-.162.207-1.1 1.421.036.77 2.513-1.425 4.025-4.726 5.566-7.013 3.818-5.765 4.707-9.155 6.368-14.832.458-1.67.757-3.64.657-5.527-.164-3.13-1.303-6.667-2.688-9.894-.912-2.093-2.825-4.584-5.778-7.172-.788-.37-.669-.435-1.331-.759-.961-.498-1.284-.514-2.242-1.014-.76-.414-.222-.381-1.26-.885-.406.038-.721-.3-1.356-.714.265.485-.803-.386-.931-.224-.768-.446-.593-.562-1.805-1.162-.491-.154-.701-.104-1.489-.481-.954-.65-.652-.293-1.31-.793-.956-.254-.496.06-1.629-.238-.817-.544-2.49-1.09-1.743-.658-.665-.367-1.303-.717-1.386-.66.716.61.635.86.214.862.786.464 1.617 1.373.065.509.63.169-.244-.345-.968-.783.421.233.923.526.844.38-1.135-.647-.088-.185-1.279-.854.924.445.632.291.654.088-1.327-.771.283.327-.615-.157-.456-.259-.41-.524-1.012-.7.93.903.849 1.281 2.253 2.24-.6-.147.248 1.003 1.328 1.935-.887-.428.307.412-.42.095-.923-1.092-1.123-1.634-2.52-2.908 1.118 1.421 1.712 2.445 3.468 4.282.284-.112-1.456-1.473-.182-.866.305.452.811.995.941 1.383l-1.305-.8c.264.376 1.37 1.416.18.873 1.778 1.214.082.48 1.316 1.347.028.122-.398-.149-.592-.218 2.825 1.9 1.762 1.927 2.243 2.687-.728-.55-1.242-.86-1.587-.933.99.728 2.18 1.52 2.265 2.108-.466-.373-1.289-.885-.789-.47.069.037.668.752 1.086 1.125.142.428-.672.391 1.054 1.705.31-.26-.523-.841-.572-1.324.458.069 1.084.693 1.403.655-.795-.567-.835-.453-1.27-.852-.026-.491-.354-.867.912-.257.062.228.49.428.686.626-.75-.426-.831-.243-1.237-.357 1.528 1.082 1.866 1.553.998 1.252 1.388.93 1.037 1.346 1.465 1.658-.332-.23-.181-.231-.45-.43-.781-.134-.52.362.194 1.292 1.103.78-.162-.42.933.281 1.857 2.221 1.345 2.678.975 3.308-.653-.652-.123-.688-.956-1.278-.198.28.768 1.143 1.322 1.81-.515-.298.263.542-.586-.236.854 1.5.435 1.771.586 3.194-.561-.272-.971-.873-1.271-.855.29.233.56.457.414.458.143.344.17-.056.757.525-.503 1.136.19 4.304-1.738 4.88.38.795.718 1.625-.073 1.418-.942-.71.173-.482-.761-.975.494.471-.093.281-.036.485.513.559 1.19.9 1.137 1.02.049.8-.421 1.44-1.009 1.522.022-.076.025-.16-.37-.5 1.058 2.236-.114 2.726-.838 3.435.186 1.078-.198 1.428-.936 1.331-.526 2.753-2.943 5.422-5.367 7.795-.231-.307-.319-.541-.431-.44.514.952-.468.274.247.968-1.126.046-.443 2.27-2.45 1.072.709.85-.02.399.307.906-1.683 1.586-3.726 2.831-4.714 4.3.104-.115.218-.2.59.353"/><path d="M559.113 290.6c-.176-.208-.116-.236-.176-.51.27-.406.834-.496.176.51m-18.379-14.706c.102.062.206.122.31.184.244-.196.398-.18.622-.04-.604.902-1.132.314-.932-.144m-19.332 16.81c-.033-.49-.765.576-.734-.106-.05.727-.567.7-.48.425.2-.213.677-1.059.444-.449.253-.685.896-1.568 1.44-2.372-.346.46-.551.986-.887 1.627.222-.18.344-.106.812-.941.06.037.12.077.182.117-.28.594-.326.873-.777 1.7m-3.936 2.094c.706-.96.918-.714 1.426-1.194-.554 1.118-1.13 1.144-1.426 1.194m.303-.64c.083-.652-.248.019-.594.368-.003-.098.27-.578.224-.615-.605 1.022-.028-.484-.928 1.29.069-.53.138-.59-.292-.195 1.42-2.685 1.144-.334 2.669-2.805-.434.753-.228.618-.522 1.18.166.003.618-.775.853-.96-.135.237-.127.278-.113.308l-.298.567c-.604.76-.235-.484-1 .862m-1.044 1.25c.634-1.007.524-.207.936-.67-.646 1.055-1.074 1.103-.936.67m-1.808.344c-.23.302-.263.203-.087-.042-.172.132-.454.48-.783.93.567-1.033-.3-.091-.867.56.037-.209.35-.704.743-1.28.28.048 1.039-.873 1.257-.697-.315.407-.296.476-.263.53m-1.938 1.726c-.628.79.606-1.446.718-1.204-.538.876-.452.986-.988 1.862-.14.068.058-.284.27-.658m33.52-24.738c.337.518 1.09.028 1.46.462-.667.446-1.915.926-1.46-.462m3.125.489c.374.548-.548.006-.976.236.802-1.004.904-.346.976-.236m16.51 19.934c.306-1.504-1.044-1.136-1-1.974.2-.166.257.01.818-.572-1.2-4.024-5.574-2.926-7.322-5.985-.383-.667-1.326-.88-1.863-1.426-1.155-1.173-3.784-.457-4.696-2.37 2.17.398 3.895 1.891 6.213 2.551.554.156.747 1.105 1.826.707.275-.101.077-.507-.153-.438.656-1.925-.733-.814-1.241-1.066-.199-.1-.028-.828-.267-.853-.305-.033-.398-.25-.582-.337-4.437-2.079-8.49-2.61-12.587-4.147-.538-.201-1.28-.13-1.357-1.132-.25.402-.538.896-.549.729-.56-.688-1.855.085-2.057-.842 1.73-.256 2.969.166 4.75-.393-1.055-.024-2.032-.294-3.15-.426-.015-.082.15-.301.311-.517-2.032 1.098-2.865.252-3.81-.114 2.071-.8 3.45-.031 5.566-.613l.156.09c.226-.387.05-.293.002-.35-.11-.607-1.144.54-.618-.708.486.62 1.656-.38 1.747.666-.347.198-.121-.377-.624.335 1.77.226 3.345 1.399 5.718.518-.435.164-.83-.02-.816-.472 2.292-.09 3.664.696 5.6 1.146.175.043 1.208.267.585-.36-1.36-1.36-4.026-1.232-5.908-1.672-4.694-1.098-7.35-.852-11.864-.936a15.6 15.6 0 0 0-4.438.57c-2.557.723-5.566 2.24-8.464 3.823-1.86 1.018-4.218 2.944-6.878 5.788-.413.75-.463.638-.824 1.266-.549.917-.59 1.22-1.14 2.133-.449.723-.378.214-.941 1.202.009.384-.337.686-.784 1.29.49-.253-.428.765-.277.886-.486.732-.591.563-1.254 1.716-.179.468-.137.674-.55 1.425-.704.904-.325.622-.863 1.247-.288.922.05.482-.28 1.58-.588.775-1.176 2.396-.71 1.683-.396.638-.77 1.249-.706 1.336.658-.672.924-.58.933-.157.49-.755 1.445-1.536.545-.033.174-.622-.363.223-.82.92.24-.408.549-.892.39-.82-.678 1.094-.2.075-.899 1.222.463-.896.302-.612.079-.65-.814 1.276.354-.26-.156.606-.274.441-.57.371-.745.965.975-.862 1.389-.753 2.385-2.11-.148.606 1.081-.21 2.028-1.265-.424.869.426-.3.116.416-1.124.896-1.708 1.094-3.048 2.422 1.517-1.047 2.604-1.625 4.454-3.355-.124-.279-1.492 1.432-.897.18.464-.301 1.013-.802 1.406-.93l-.786 1.29c.384-.26 1.414-1.362.896-.18 1.18-1.767.488-.086 1.331-1.324.123-.033-.135.393-.196.583 1.822-2.824 1.88-1.808 2.618-2.321-.517.735-.808 1.252-.865 1.592.684-1.004 1.424-2.205 1.996-2.333-.349.479-.82 1.31-.431.797.033-.07.71-.7 1.057-1.134.407-.174.402.623 1.601-1.165-.263-.263-.786.58-1.249.672.053-.448.635-1.101.591-1.402-.524.809-.413.84-.785 1.29-.472.065-.831.41-.268-.854.217-.077.403-.501.587-.706-.395.754-.217.816-.317 1.21 1.003-1.55 1.441-1.92 1.173-1.065.852-1.41 1.241-1.117 1.525-1.558-.208.34-.212.196-.39.47-.113.758.359.445 1.206-.347.698-1.138-.388.209.238-.908 2.02-2.043 2.425-1.65 3.004-1.401-.57.71-.62.222-1.133 1.088.26.143 1.019-.89 1.603-1.514-.256.528.479-.332-.198.581 1.324-1.038 1.59-.721 2.846-1.14-.22.567-.737 1.063-.707 1.334.195-.313.384-.604.391-.472.302-.199-.06-.142.433-.796 1.03.267 3.777-1.146 4.396.45.667-.55 1.357-1.083 1.245-.325-.535 1.03-.436-.02-.784.944.369-.568.256.005.43-.102.438-.61.675-1.304.786-1.29.685-.269 1.273-.038 1.397.46-.065.003-.138.024-.39.472 1.807-1.572 2.35-.747 3.035-.335.896-.515 1.22-.286 1.245.371 2.405-.51 4.944.553 7.385 1.483-.205.318-.382.493-.275.539.677-.826.32.267.744-.616.26.915 1.923-.645 1.392 1.504.531-.958.328-.166.666-.662 1.636.638 3.165 1.587 4.582 1.604-.12-.015-.217-.06.12-.628-.006.247.711-1.231.708-.987-.226.548-.063.626-.907 1.92l.816.472c.149-.15.513-.862.745-.967 1.63.893 2.721 1.86 4.927 2.506.023-.188-.417.18-.075-.393.693.258 1.04.422 1.552.898" opacity=".4"/></g></svg>