<svg width="1440" height="1114" xmlns="http://www.w3.org/2000/svg"><g fill="#D2DCE8" fill-rule="evenodd"><path d="M1047.566 115.182c-2.479 1.497-4.736 1.096-7.159 2.095 1.225-1.882 2.856-3.101 4.313-4.606-1.55.091-2.417 1.136-4.32 1.975-6.313 2.787-14.419 7.986-20.105 11.82-8.505 5.737-17.744 11.254-23.535 17.014-1.383 1.378-2.076 3.284-2.76 5.045 2.41-1.557 6.054-2.597 8.446-3.531-.178.707-1.577 1.054-1.464 1.846 1.091-.343 2.262-1.426 3.302-1.303-.2.334-.439 1.481-1.226 1.103.18-.164.507-.285.375-.541-.804.61-2.548 1.702-3.37 3.398 2.465-1.385 5.914-3.197 8.404-4.674.203.766-.473 1.272-.682 1.915 8.99-2.906 17.198-9.181 24.818-14.934 1.226-.926 2.181-2.297 3.51-3.197 1.03-.698 2.303-1.013 3.192-1.818.86-.776 1.444-1.978 2.358-2.728 3.148-2.582 5.68-4.886 5.903-8.879" opacity=".4"/><path d="M1127.657 106.224c2.453-2.428 5.249-4.169 7.882-6.225-2.286.42-3.898 1.823-6.96 3.165-10.133 4.49-23.818 11.88-33.601 17.102-14.613 7.86-30.358 15.17-41.372 22.206-2.63 1.694-4.517 3.906-6.328 5.977 4.222-1.958 10.003-3.446 13.908-4.748-.576.832-2.772 1.355-2.969 2.25 1.75-.484 3.941-1.846 5.404-1.804-.443.403-1.309 1.742-2.285 1.383.335-.205.867-.375.791-.656-1.446.784-4.489 2.182-6.469 4.2 4.235-1.802 10.102-4.2 14.391-6.176-.044.86-1.258 1.513-1.851 2.275 14.472-4.272 29.213-12.679 42.623-20.648 2.164-1.278 4.09-3.043 6.379-4.324 1.781-.989 3.76-1.598 5.367-2.698 1.553-1.059 2.852-2.575 4.464-3.625 5.559-3.61 10.078-6.843 11.784-11.542-4.134 2.262-7.279 2.255-11.158 3.887"/><path d="M1122.619 144.802c-2.158.254-3.697 1.51-6.588 2.636-9.593 3.74-22.448 10.351-31.533 15.2-13.59 7.256-28.094 14.331-38.001 21.364-2.37 1.682-3.984 3.897-5.54 5.95 3.828-1.982 9.158-3.494 12.747-4.772-.491.815-2.521 1.336-2.647 2.22 1.608-.489 3.585-1.82 4.96-1.779-.39.395-1.121 1.711-2.06 1.36.303-.203.79-.369.702-.646-1.311.763-4.072 2.158-5.793 4.15 3.849-1.795 9.19-4.163 13.107-6.064.008.844-1.093 1.48-1.604 2.224 13.292-4.13 26.718-11.993 39.138-19.2 1.999-1.16 3.777-2.794 5.906-3.935 1.654-.885 3.507-1.364 5.003-2.354 1.443-.956 2.653-2.362 4.163-3.292 5.199-3.208 9.457-6.042 11.103-10.533-3.907 1.922-6.87 1.696-10.53 3.053 2.317-2.228 4.963-3.753 7.467-5.582M50.456 1108.25c3.488 1.066 5.073.42 7.435 3.127-1.203 4.93-8.823 0-7.435-3.127zm-10.23-1.881c1.95-3.349-1.463-3.359.477-6.704 3.713 1.353 4.928 4.292 6.235 7.166-1.88 1.238-4.169.906-6.712-.462zm-32.788-23.55c.322-2.877 2.968-1.049 3.804-2.89 2.704 1.183 3.6 3.007 2.702 5.433-2.649-.71-5.263.068-6.506-2.544zm86.912 25.099c.22-2.278.273-6.125 3.082-7.08 3.89.698 3.944 2.7 5.438 4.204-1.207 4.227-4.044 5.18-8.52 2.876zm-55.647-68.88c-9.772-5.145-6.359-15.858-9.076-23.996 3.728-3.684 8.222-5.52 12.846-7.013 7.45 6.821 9.463 27.424-3.77 31.01zm41.186-23.154c-.932-.373-1.865-.746-2.794-1.133.884-2.655 1.937-4.977 4.666-3.358.704 1.662-.195 3.82-1.872 4.49zm-48.155-28.17c.19-4.705.137-6.116 3.516-9.024 4.073.967 4.14 3.92 4.556 6.708-1.675 3.691-4.389 4.418-8.072 2.316zm70.599 28.569c-.935-.383-1.868-.756-2.805-1.13 1.055-1.068.82-4.945 2.771-3.985 3.505.368.309 3.31.034 5.115zm5.345-63.164c-1.31-2.123-3.541-3.895-1.629-7.246 2.725-1.6 6.96.222 9.385 2.703-1.65 3.578-4.929 3.527-7.756 4.543zm-83.695-53.107c-1.535-.929-1.44-2.55-.293-4.628.93.381 1.86.783 2.788 1.174-.433 2.17-1.68 2.271-2.495 3.454zm145.294 43.463c-.908-.374-1.8-.749-2.704-1.122 1.48-6.078 7.49-8.983 10.583-5.244-1.576 4.714-6.187 1.967-7.879 6.366zm-148.833-74.37c2.159-4.005 5.192-6.018 9.172-5.878.978 4.914-4.668 7.717-9.172 5.878zm-6.035-22.976c-1.976-.364-2.01-1.738-3.049-2.594 1.234-3.037 2.558-5.756 5.448-3.686 1.045 3.036-1.57 2.802-2.4 6.28zM-.06 831.173c2.012-3.794 5.625-4.152 7.777-1.448 1.352 10.292-9.972 10.605-7.777 1.448zm34.684 9.358c1.315-4.191 3.082-7.381 6.454-6.795 2.651.894 2.565 2.9 4.35 4.152-.517 7.495-7.88 6.943-10.804 2.643zm129.687-1.808c.41 13.386-11.736 47.175-26.227 34.798-1.373-14.423 6.894-49.486 26.227-34.798zM6.792 797.106c-5.31-1.482-3.002-7.219 1.8-4.455.619 1.63-.239 3.744-1.8 4.455zm68.286 22.383c1.746-4.126 4.237-6.693 8.863-4.732 1.181 4.656-5.462 9.423-8.863 4.732zm-24.913-39.154c-1.84-1.758-1.785-6.587.98-7.98 5.737.96 1.7 7.437-.98 7.98zm23.057 7.562c-2.493-1.515-3.382-3.718-2.685-6.575 1.515-3.081 3.918-4.015 7.38-2.353.098 3.32-1.647 8.28-4.695 8.928z" opacity=".4"/></g></svg>