<svg width="1056" height="792" xmlns="http://www.w3.org/2000/svg"><g fill="none" fill-rule="evenodd"><path d="M621.99 230.828c-.217-.225-.897-.015-.37.55.28-.277.213-.273.37-.55m30.802-25.692l-.444.325c-.247-.05-.444.042-.767.286.483.502 1.324-.303 1.21-.611m21.767 6.206c.211-.51.963.102 1.141-.56-.166.695.624.346.581.127-.232-.088-.668-.64-.518-.175-.152-.529-.83-1.013-1.384-1.48.372.244.506.644.796 1.079-.27-.045-.482.106-.908-.442l-.317.233c.226.42.202.672.609 1.218m4.128.853c-.594-.505-.93-.176-1.42-.345.354.722 1.064.451 1.42.345m1.217-.063c-.488-.581-.592.082-.966-.124.489.62 1.009.443.966.124m-.531-.72c.082-.573.364-.133.77-.01.035-.095-.22-.39-.14-.453.584.607.197-.482.98.669.064-.467-.019-.483.503-.371-1.272-1.702-1.61.385-3.104-1.05.408.458.142.456.405.814-.252.105-.68-.364-.973-.396.125.143.101.189.07.227l.265.36c.663.357.508-.611 1.224.21m4.76.664c.034-.216-.185-.603-.473-1.038-.376.199-1.006-.43-1.35-.12.25.289.202.376.14.453.183.215.26.09.126-.093.172.056.401.3.656.628-.34-.858.416-.258.902.17m.12-.367c.547.39-.319-.993-.53-.718.404.514.264.658.669 1.172.155-.01.015-.227-.14-.454m-41.408-4.536c.701.057 2.12-.155 1.97-1.173-.578.64-1.374.587-1.97 1.173m-2.485 1.27c-.632.688.687-.28 1.155-.293-.702-.49-1.032.159-1.155.294m-27.767 28.181c-1.08.68-1.634 1.058-2.532 1.86.084-1.398 1.889-1.81 2.118-2.665-.232-.055-.374.165-.977-.116 3.115-4.937 8.991-6.368 12.557-10.616.778-.928 2.201-1.71 3.158-2.6 2.063-1.919 5.57-2.715 7.542-5.266-3.24 1.7-6.227 4.289-9.774 6.352-.847.492-1.454 1.603-2.86 1.823-.356.055.068-.487.373-.551-.27-1.635 1.332-1.291 2.145-1.855.32-.222.333-.887.682-1.054.447-.216.656-.5.95-.7 7.07-4.808 13.055-7.763 19.446-11.794.84-.53 1.873-.892 2.335-1.995.217.277.455.628.527.444 1.042-1.052 2.623-1.003 3.236-2.1-2.38.75-4.3 1.928-6.648 2.388 1.518-.648 3.006-1.508 4.652-2.307.048-.095-.11-.228-.267-.359 2.518-.043 4.008-1.426 5.485-2.367-2.678.378-4.917 2-7.737 2.634l-.253.186c-.185-.275.03-.277.12-.366.374-.707 1.446-.109 1.133-1.112-.913.941-2.235.577-2.731 1.732.428.003.303-.466.774-.015-2.611 1.283-5.27 3.448-8.357 3.922.566-.085 1.193-.512 1.332-.98-3.245 1.258-5.483 2.898-8.41 4.517-.269.149-1.823.995-.713-.032 2.425-2.24 6.194-3.68 9.037-5.254 7.101-3.93 10.81-5.238 17.286-7.985 1.886-.801 4.084-1.563 6.134-2.011 3.394-.742 7.15-.911 10.72-.94 2.293-.02 4.97.63 7.753 2.074.321.549.431.403.724.854.459.643.412.94.87 1.582.385.5.464.005.915.716-.147.41.238.528.661.903-.609.02.34.554.082.772.432.489.642.248 1.178 1.077.09.39-.04.627.283 1.178.68.544.242.468.789.809.082.805-.243.54-.158 1.504.562.473.828 1.838.416 1.359.339.441.655.867.538.994-.7-.324-1.112-.07-1.273.38-.432-.51-1.514-.775-.763.282-.027-.552.437.024.846.491-.203-.288-.468-.62-.271-.634.579.757.257-.039.85.761-.344-.673-.215-.47.113-.637.71.868-.408-.069.013.546.23.306.676.06.719.582-1.085-.338-1.708.016-2.647-.83-.004.553-1.464.409-2.44-.15.3.669-.498-.07-.307.504 1.28.29 2.039.159 3.48.772-1.787-.216-3.13-.192-5.152-.932.273-.366 1.618.637 1.211-.335-.555-.044-1.159-.25-1.67-.16l.662.902c-.455-.049-1.531-.609-1.211.333-1.055-1.173-.663.196-1.427-.615-.163.036.055.333.078.497-1.603-1.909-2.04-.805-2.911-.913.477.471.711.845.671 1.172-.622-.657-1.253-1.49-2.022-1.289.328.299.708.898.335.586-.022-.054-.765-.323-1.106-.577-.518.056-.79.891-1.868-.29.463-.43.91.152 1.54-.022.081-.44-.517-.788-.349-1.132.462.546.293.644.664.899.648-.207 1.038-.054.681-1.054-.283.044-.398-.293-.589-.4.3.56.024.73.028 1.09-.884-1.048-1.376-1.18-1.296-.436-.718-.986-1.374-.452-1.624-.75.177.238.231.083.391.268-.107.732-.666.676-1.597.34-.594-.79.481-.01-.02-.817-2.16-.969-2.874-.315-3.786.286.565.41.803-.13 1.234.48-.423.304-1.138-.34-1.752-.654.177.407-.568-.07.076.497-1.52-.319-2.011.17-3.655.466.113.471.676.69.54.991-.17-.213-.333-.411-.392-.265-.357-.035.134-.185-.338-.586-1.56.886-4.982 1.01-6.423 3.056-.76-.188-1.56-.34-1.665.39.403.77.63-.278.787.532-.326-.381-.365.156-.576.145-.412-.384-.507-.974-.667-.895-.886.12-1.806.71-2.157 1.306.093-.036.19-.056.394.267-2.03-.59-3.095.596-4.216 1.434-1.097-.015-1.641.416-1.904 1.12-3.259.882-7.253 3.493-11.065 5.913.183.215.372.292.205.405-.68-.47-.546.469-.846-.212-.69 1.118-2.528.457-2.513 2.403-.427-.692-.411.019-.722-.303-2.562 1.638-5.076 3.538-7.108 4.392.176-.088.331-.192.045-.589-.074.254-.59-.874-.666-.621.133.443-.13.623.629 1.483l-1.33.976c-.16-.069-.435-.601-.729-.575-2.644 1.9-4.54 3.56-7.918 5.543.033-.184.535-.057.245-.457" fill-opacity=".8" fill="#7D23FF"/><path d="M689.169 250.005c-.205-.23-.705-.14-.208.434.18-.205.127-.21.208-.434m38.277-8.963c.096-.415.76.254.814-.302-.04.589.53.415.467.214-.191-.12-.602-.68-.425-.244-.187-.494-.777-1.037-1.268-1.546.32.28.477.656.76 1.09-.218-.085-.362.01-.765-.545l-.215.151c.23.411.244.63.632 1.182m3.489 1.342c.459.632.838.568.764.277-.454-.598-.45-.029-.764-.277m-1.32-.429c.369.698.886.581 1.149.549-.527-.546-.747-.315-1.15-.549m5.403 1.096c.475.44-.375-.934-.503-.73.38.527.289.628.669 1.155.119.017-.018-.199-.166-.425m-1.609-1.043c.231.3.205.369.168.427.169.221.212.124.086-.06.14.08.348.335.589.67-.374-.819.289-.156.72.307-.002-.184-.22-.565-.5-1-.267.108-.836-.556-1.063-.344m-3.529-1.05c.116.15.104.184.084.213l.253.364c.562.431.315-.451.979.4-.012-.492.264-.055.595.125.016-.08-.221-.384-.166-.426.53.638.09-.39.844.761-.008-.4-.075-.427.344-.238-1.208-1.726-1.198.06-2.545-1.469.375.475.168.427.42.79-.183.048-.576-.44-.808-.52m-20.24-9.028l-.304.218c-.2-.085-.343-.034-.562.13.445.522.997-.057.865-.348m-7.529.23c.56.16 1.645.195 1.389-.73-.367.477-.999.305-1.389.73m-1.776.744c-.4.511.502-.142.867-.082-.619-.544-.788-.019-.867.082m-18.088 20.141c-.188-.08-.267.096-.784-.237 1.672-3.945 6.065-4.388 8.227-7.633.47-.71 1.474-1.192 2.092-1.84 1.337-1.402 3.973-1.584 5.155-3.547-2.301 1.015-4.268 2.87-6.746 4.182-.593.312-.901 1.21-1.973 1.202-.272-.002-.02-.421.21-.435-.458-1.485.853-.953 1.409-1.333.217-.15.129-.739.378-.837.32-.125.442-.346.644-.48 4.848-3.228 9.127-4.939 13.584-7.51.588-.337 1.348-.496 1.561-1.4.208.28.441.627.473.477.674-.77 1.92-.472 2.254-1.345-1.766.28-3.111 1.024-4.89 1.062 1.103-.335 2.151-.865 3.334-1.312.027-.075-.115-.218-.257-.36 1.97.365 2.951-.624 3.986-1.216-2.05-.102-3.589.982-5.715 1.096l-.174.125c-.183-.272-.013-.24.046-.307.197-.568 1.118.134.739-.805-.59.687-1.676.16-1.91 1.105.336.07.174-.366.606.108-1.879.726-3.666 2.234-6.025 2.183.432.01.865-.273.91-.665-2.375.617-3.904 1.734-5.975 2.734-.19.091-1.293.61-.565-.135 1.587-1.627 4.35-2.337 6.367-3.295 5.04-2.39 7.778-2.963 12.496-4.346 1.377-.402 3-.717 4.548-.775 2.564-.093 5.482.394 8.265.98 1.79.378 3.959 1.42 6.302 3.184.319.541.387.431.67.883.436.65.437.905.873 1.553.362.51.362.086.801.795-.063.337.25.508.627.914-.472-.089.333.55.16.698.397.506.529.332 1.05 1.16.118.36.047.547.368 1.093.594.6.246.454.713.853.166.725-.119.434.068 1.3.495.519.876 1.77.497 1.275.317.45.618.881.542.972-.584-.409-.87-.259-.938.11-.4-.525-1.273-.952-.553.115-.092-.493.34.098.717.583-.194-.29-.442-.63-.292-.608.547.769.196.012.758.823-.353-.657-.227-.453.005-.543.661.893-.325-.133.081.483.218.31.53.175.631.643-.883-.493-1.321-.29-2.158-1.203.068.485-1.08.104-1.909-.561.318.643-.395-.147-.173.392 1.03.479 1.6.497 2.795 1.294-1.41-.507-2.448-.72-4.112-1.729.164-.274 1.337.847.895-.081-.436-.139-.93-.425-1.317-.434l.631.91c-.358-.123-1.267-.803-.895.084-.972-1.219-.49.057-1.188-.79-.123.003.087.303.125.452-1.494-1.963-1.69-1.064-2.38-1.308.434.5.665.87.676 1.152-.57-.688-1.17-1.531-1.74-1.487.295.322.668.915.337.574-.024-.05-.638-.413-.935-.696-.397-.04-.5.651-1.492-.575.303-.302.728.29 1.195.242.005-.375-.506-.785-.42-1.059.43.563.312.618.635.908.477-.073.8.13.391-.816-.213-.007-.347-.327-.51-.454.306.546.114.65.164.967-.824-1.076-1.225-1.277-1.065-.606-.69-.993-1.13-.634-1.363-.938.168.24.191.112.34.303.012.629-.43.486-1.199.033-.566-.8.374.073-.123-.727-1.81-1.22-2.282-.762-2.912-.383.494.458.61.02 1.024.631-.288.2-.931-.491-1.452-.872.192.39-.452-.155.126.454-1.229-.536-1.546-.184-2.79-.193.15.436.62.721.555.967-.161-.216-.316-.42-.342-.3-.284-.09.08-.142-.342-.574-1.1.524-3.754.081-4.603 1.657-.619-.287-1.263-.55-1.246.08.422.746.454-.146.688.597-.306-.389-.263.081-.43.037-.374-.406-.529-.944-.644-.9-.675-.035-1.314.34-1.506.812.068-.017.142-.02.345.298-1.67-.846-2.335.04-3.096.604-.86-.184-1.226.113-1.332.696-2.423.274-5.179 1.973-7.808 3.545.174.219.334.316.22.39-.6-.519-.36.335-.693-.313-.378.884-1.914.029-1.614 1.754-.437-.677-.318-.044-.608-.375-1.767 1.07-3.447 2.39-4.911 2.854.125-.053.23-.122-.054-.514-.02.213-.596-.859-.618-.646.172.41-.006.533.72 1.401l-.891.676c-.139-.085-.434-.595-.66-.613-1.783 1.306-3.01 2.51-5.347 3.798-.004-.16.41.021.12-.372-.74.452-1.116.71-1.693 1.298-.157-1.225 1.196-1.342 1.24-2.068" fill-opacity=".64" fill="#7D23FF"/><path d="M564.931 322.633c-.248-.195-1.225.346-.632.846.447-.463.354-.43.632-.846m46.827-46l-.653.62c-.326.052-.609.26-1.084.719.573.409 1.842-1.003 1.737-1.339m28.616-2.778c.363-.758 1.297-.361 1.64-1.296-.33.972.8.126.774-.132-.303.005-.817-.474-.681.04-.131-.595-.985-.866-1.67-1.18.47.123.594.563.927.97-.363.08-.674.379-1.175-.1l-.463.454c.243.421.174.755.648 1.244m5.51-1.026c-.738-.337-1.243.26-1.888.292.377.74 1.387.03 1.887-.292m1.669-.71c-.582-.489-.821.413-1.3.342.578.54 1.31.045 1.3-.341m-.62-.644c.192-.773.514-.36 1.05-.412.062-.14-.246-.383-.125-.507.708.473.336-.715 1.238.347.158-.63.047-.607.743-.736-1.495-1.51-2.253 1.33-4.085.27.49.373.13.507.435.83-.358.262-.873-.115-1.267-.004.148.121.11.187.062.254l.31.322c.852.113.78-1.042 1.639-.364m4.392-1.835c.226-.02.505.172.807.458-.343-.916.606-.548 1.208-.255.076-.294-.17-.675-.502-1.08-.539.454-1.314-.02-1.826.554.3.24.222.375.127.506.219.18.34-.02.186-.183m2.229-.328c.693.207-.298-1.103-.623-.64.48.445.27.7.75 1.147.215-.098.053-.3-.127-.507m-55.589 14.483c.94-.243 2.89-1.16 2.86-2.376-.89 1.072-1.954 1.37-2.86 2.376m-3.584 2.719c-.975 1.15.978-.66 1.612-.887-.862-.307-1.422.66-1.612.887m-43.661 47.178c-1.643 1.277-2.495 1.967-3.918 3.329.454-1.801 3.024-3.017 3.543-4.186-.301.02-.552.353-1.308.231 5.438-7.429 13.79-11.562 19.563-18.413 1.266-1.485 3.358-3.072 4.85-4.595 3.206-3.279 8.142-5.778 11.314-9.865-4.725 3.557-9.317 8.088-14.58 12.168-1.253.976-2.325 2.62-4.286 3.475-.499.215.196-.642.625-.849-.02-1.953 2.095-2.166 3.32-3.22.48-.414.634-1.26 1.145-1.617.655-.46.996-.903 1.437-1.276 10.604-9.022 19.28-15.375 28.639-23.383 1.228-1.055 2.689-1.988 3.499-3.59.247.25.511.583.64.318 1.593-1.805 3.716-2.488 4.725-4.16-3.335 2.066-6.138 4.431-9.394 6.086 2.16-1.515 4.328-3.274 6.68-5.052.08-.142-.11-.238-.302-.328 3.409-1.23 5.657-3.67 7.792-5.569-3.67 1.754-6.967 4.843-10.88 6.944l-.375.352c-.207-.261.088-.364.223-.517.624-1.063 1.977-.801 1.715-1.925-1.384 1.611-3.119 1.755-3.98 3.437.578-.19.487-.724 1.05-.372-3.74 2.82-7.724 6.748-11.986 8.71.78-.354 1.707-1.17 1.976-1.822-4.616 3.02-7.944 6.067-12.222 9.362-.39.3-2.655 2.034-.958.265 3.71-3.857 9.075-7.31 13.2-10.562 10.284-8.133 15.502-11.496 24.657-18.052 2.663-1.917 5.74-3.94 8.57-5.512 4.683-2.602 9.77-4.694 14.6-6.547 3.097-1.199 6.628-1.756 10.22-1.377.366.527.534.285.873.706.541.576.44.978.978 1.552.459.434.632-.238 1.15.433-.253.597.258.542.784.797-.831.348.39.527.01.94.525.392.842-.023 1.465.748.07.45-.14.822.23 1.353.852.333.265.466.967.613.005.982-.402.814-.416 2 .702.307.881 1.908.384 1.514.402.384.777.759.598.984-.913-.04-1.51.5-1.79 1.162-.52-.422-1.96-.19-1.08.764.04-.693.591-.2 1.087.178-.237-.26-.555-.543-.284-.665.687.66.358-.186 1.058.523-.378-.68-.23-.486.241-.875.85.733-.548.128-.056.69.273.268.913-.28.9.364-1.435.142-2.336.926-3.499.34-.08.712-2.06 1.291-3.313 1.086.314.698-.673.175-.492.805 1.706-.3 2.766-.858 4.648-.836-2.413.665-4.258 1.396-6.91 1.5.425-.608 2.12-.028 1.702-1.055-.75.231-1.547.282-2.258.665l.775.804c-.613.174-2 .018-1.7 1.056-1.27-.951-.932.593-1.857-.051-.229.131.024.4.03.597-1.907-1.615-2.67.015-3.839.32.579.36.844.717.74 1.153-.751-.52-1.488-1.262-2.565-.616.404.214.831.785.37.576-.022-.057-.997-.02-1.421-.173-.717.333-1.212 1.538-2.504.575.699-.78 1.217-.266 2.101-.807.176-.602-.587-.743-.306-1.266.547.465.302.671.77.81.914-.592 1.424-.596 1.085-1.688-.39.2-.498-.17-.742-.213.324.563-.077.92-.125 1.375-1.048-.888-1.698-.808-1.7.1-.83-.893-1.802.118-2.097-.135.205.214.304-.012.494.143-.255.986-1.014 1.194-2.23 1.23-.689-.71.657-.25.096-1.028-2.794-.159-3.861 1.02-5.195 2.235.705.245 1.112-.562 1.605.002-.623.595-1.497.129-2.283.032.181.43-.759.192.029.595-2.018.342-2.767 1.196-5.049 2.37.077.544.809.548.576.998-.196-.19-.388-.36-.492-.148-.48.13.213-.3-.364-.58-2.259 1.889-6.945 3.666-9.244 6.945-1.005.117-2.067.297-2.336 1.273.415.788.905-.646.98.307-.377-.331-.525.369-.81.454-.496-.295-.523-1-.755-.827-1.227.568-2.58 1.74-3.162 2.662.133-.089.268-.16.49.154-2.657.198-4.325 2.175-6.002 3.751-1.492.481-2.306 1.28-2.8 2.287-4.61 2.582-10.539 7.666-16.247 12.355.205.194.45.21.198.425-.831-.305-.843.83-1.111.096-1.171 1.716-3.543 1.657-3.935 4.11-.437-.695-.563.197-.92-.08-3.84 3.16-7.704 6.59-10.67 8.505.262-.183.497-.376.195-.761-.161.35-.613-.868-.774-.516.083.506-.316.839.528 1.618l-2.039 1.772c-.207-.022-.46-.586-.869-.432-3.94 3.383-6.89 6.183-11.765 9.853.136-.089.225-.196.075-.39" fill-opacity=".24" fill="#7D23FF"/><path d="M641.218 326.659c-.252-.192-1.161.32-.555.81.4-.443.313-.412.555-.81m43.31-42.904c-.206.187-.412.374-.617.564-.315.032-.583.219-1.034.637.567.425 1.76-.87 1.65-1.201m27.593-.82c.34-.701 1.245-.25 1.562-1.123-.305.91.77.182.742-.07-.291-.017-.792-.516-.655-.01-.133-.581-.957-.907-1.621-1.26.454.153.579.585.904 1-.35.05-.643.315-1.132-.185l-.441.403c.24.425.177.74.64 1.244m5.289-.564c-.713-.38-1.195.15-1.813.133.372.738 1.333.135 1.813-.133m1.598-.546c-.565-.515-.785.33-1.247.224.562.562 1.262.148 1.247-.224m-.604-.667c.178-.725.493-.302 1.008-.31.059-.129-.24-.387-.126-.495.687.51.318-.659 1.195.433.145-.592.039-.578.707-.646-1.452-1.57-2.154 1.093-3.928-.069.476.396.129.495.427.829-.342.224-.841-.18-1.222-.105.145.127.11.189.064.249.102.11.2.22.302.332.822.177.74-.935 1.573-.218m4.986-.896c-.337-.908.577-.475 1.158-.144.07-.275-.167-.659-.49-1.075-.518.387-1.263-.13-1.75.377.29.257.215.38.126.496.212.19.327.008.177-.16.216.002.486.207.78.506m1.358-.633c.669.258-.293-1.082-.603-.667.466.469.265.695.73 1.163.205-.076.048-.283-.127-.496m-53.403 10.376c.903-.196 2.773-.992 2.707-2.168-.833.997-1.858 1.234-2.707 2.168m-3.388 2.485c-.908 1.074.928-.6 1.536-.794-.848-.33-1.359.583-1.536.794m-40.114 43.947c-.29.02-.506.343-1.246.224 4.695-7.195 12.49-11.145 17.674-17.664 1.131-1.423 3.077-2.91 4.434-4.354 2.926-3.114 7.578-5.407 10.467-9.255-4.423 3.291-8.635 7.57-13.502 11.417-1.161.917-2.094 2.499-3.942 3.295-.47.202.15-.617.554-.81-.136-1.89 1.894-2.073 3.023-3.067.444-.39.547-1.206 1.022-1.54.607-.433.915-.857 1.322-1.21 9.792-8.514 17.937-14.368 26.752-21.688 1.161-.964 2.549-1.796 3.289-3.308.245.255.51.589.629.34 1.487-1.675 3.536-2.216 4.471-3.78-3.189 1.815-5.831 3.973-8.941 5.424 2.053-1.364 4.096-2.972 6.335-4.567.074-.133-.112-.234-.3-.334 3.278-1.008 5.389-3.253 7.428-4.957-3.529 1.477-6.645 4.298-10.389 6.137l-.353.321c-.206-.261.075-.347.202-.489.575-1 1.893-.68 1.612-1.779-1.303 1.487-2.976 1.55-3.764 3.137.553-.158.451-.68 1.006-.312-3.554 2.548-7.283 6.185-11.348 7.925.743-.314 1.613-1.07 1.852-1.69-4.37 2.753-7.483 5.59-11.487 8.662-.365.282-2.49 1.897-.917.23 3.427-3.636 8.5-6.807 12.392-9.795 9.715-7.458 14.698-10.45 23.464-16.247 2.556-1.691 5.509-3.451 8.235-4.78 4.511-2.195 9.428-3.84 14.09-5.249 2.995-.905 6.409-1.15 9.87-.48.353.538.514.32.842.753.52.6.422.978.942 1.577.443.457.607-.174 1.11.514-.245.552.246.543.752.833-.798.262.378.54.013.903.505.424.81.053 1.409.848.069.436-.13.775.225 1.317.82.395.258.471.93.673.01.942-.382.748-.391 1.88.676.357.855 1.907.377 1.486.388.402.75.795.578.995-.876-.119-1.447.347-1.713.955-.502-.45-1.885-.351-1.033.638.034-.658.568-.14 1.045.265-.228-.27-.535-.568-.276-.66.665.69.342-.147 1.02.592-.367-.684-.224-.485.226-.816.822.775-.525.073-.05.655.264.281.876-.189.868.427-1.378.01-2.238.683-3.362.02-.074.673-1.966 1.065-3.172.766.307.693-.643.11-.465.73 1.638-.145 2.647-.598 4.456-.415-2.313.433-4.073.984-6.622.868.401-.55 2.036.144 1.623-.872-.719.158-1.482.143-2.164.453l.754.834c-.588.116-1.925-.145-1.624.873-1.233-1.013-.892.494-1.788-.195-.218.107.03.385.038.576-1.855-1.696-2.566-.189-3.688.016.562.39.822.752.729 1.162-.73-.557-1.45-1.323-2.479-.783.391.236.812.815.364.58-.021-.056-.96-.093-1.372-.27-.685.267-1.145 1.385-2.404.368.66-.7 1.17-.166 2.015-.622.161-.563-.578-.754-.314-1.237.533.485.3.668.755.834.87-.501 1.361-.467 1.02-1.54-.374.163-.482-.201-.717-.258.32.564-.061.876-.102 1.31-1.022-.93-1.647-.902-1.636-.03-.815-.918-1.739-.018-2.027-.282.2.22.293.012.478.173-.231.929-.956 1.08-2.129 1.03-.673-.731.63-.196.077-.985-2.695-.343-3.707.722-4.974 1.8.685.283 1.064-.466 1.549.11-.59.531-1.442.023-2.202-.122.18.427-.732.136.038.576-1.943.195-2.645.977-4.823 1.966.087.528.793.578.578.995-.194-.193-.383-.37-.479-.172-.461.095.199-.276-.363-.58-2.147 1.671-6.618 3.131-8.754 6.165-.966.061-1.988.182-2.217 1.11.425.78.854-.579.958.345-.377-.339-.497.328-.769.396-.49-.308-.537-.99-.756-.834-1.167.484-2.439 1.55-2.972 2.41.125-.08.254-.14.48.173-2.568.057-4.101 1.903-5.668 3.346-1.424.4-2.187 1.132-2.62 2.088-4.35 2.31-9.873 7.001-15.14 11.388.21.191.445.215.215.415-.82-.316-.773.778-1.07.063-1.045 1.623-3.34 1.513-3.579 3.877-.462-.682-.533.177-.894-.098-3.54 2.963-7.051 6.226-9.8 8.034.242-.174.457-.359.14-.736-.132.337-.648-.845-.78-.506.111.49-.252.808.616 1.57a900.76 900.76 0 0 0-1.852 1.693c-.201-.024-.485-.572-.868-.428-3.68 3.312-6.356 6.05-10.997 9.739.068-.239.7-.272.378-.651-1.488 1.236-2.257 1.903-3.527 3.221.298-1.74 2.688-2.92 3.1-4.049" fill-opacity=".8" fill="#7D23FF"/><path d="M682.86 350.59c-.244-.189-.6-.128-.003.344.064-.16.022-.165.003-.344m9.014-14.292l-.15.174c-.186-.068-.276-.026-.381.105.544.42.744-.045.531-.279m17.223 7.206c-.086-.336.685.194.51-.254.198.474.568.327.443.165-.194-.093-.73-.54-.423-.19-.337-.396-1.002-.825-1.578-1.23.355.223.622.523 1.009.87-.201-.067-.273.014-.802-.43l-.106.125c.337.327.433.504.947.944m3.125 1.13c-.62-.433-.696-.242-1.098-.425.557.56.909.457 1.098.425m.783.11c-.585-.473-.358-.016-.699-.209.601.503.868.443.699.21m-.674-.578c-.201-.398.182-.049.507.09-.018-.062-.32-.305-.294-.34.657.506-.083-.317.949.601-.165-.325-.226-.346.17-.2-1.605-1.373-.9.07-2.533-1.141.474.378.296.342.632.63-.122.042-.615-.347-.824-.405.147.118.152.146.147.17l.337.288c.601.34.066-.368.91.307m3.378.831c.538.347-.655-.747-.673-.579.5.419.47.503.969.92.097.012-.09-.16-.296-.341m-1.645-.81c.295.239.302.294.295.34.218.177.212.098.043-.05.139.062.4.264.715.53-.607-.652.162-.13.677.236-.075-.15-.393-.453-.78-.799-.16.094-.859-.432-.95-.257m-27.885-7.73c.492.133 1.338.165.786-.577-.099.38-.65.24-.786.577m-1.082.582c-.113.407.332-.11.635-.058-.683-.44-.613-.021-.635.058m-6.526 15.828c-.177-.07-.175.07-.697-.211-.123-3.113 3.132-3.366 3.611-5.928.105-.56.7-.93.94-1.44.516-1.097 2.486-1.208 2.661-2.768-1.394.788-2.224 2.242-3.659 3.25-.342.24-.251.953-1.084.926-.213-.007-.173-.337.001-.344-.904-1.2.31-.746.599-1.041.113-.117-.174-.59-.018-.664.202-.094.214-.27.32-.373 2.552-2.502 5.206-3.828 7.652-5.87.322-.266.846-.39.664-1.114.266.226.58.506.547.385.222-.614 1.293-.375 1.212-1.075-1.245.226-1.995.814-3.348.837.717-.264 1.323-.683 2.059-1.038-.01-.062-.174-.177-.336-.29 1.652.297 2.024-.495 2.585-.974-1.608-.077-2.372.788-3.96.872l-.086.1c-.245-.219-.102-.193-.084-.244-.066-.456.912.11.257-.644-.186.55-1.224.122-1.04.876.285.059-.006-.291.507.09-1.161.574-1.963 1.77-3.798 1.705.337.013.563-.207.447-.523-1.592.473-2.346 1.348-3.568 2.12-.11.07-.765.47-.486-.116.611-1.278 2.47-1.81 3.656-2.562 2.96-1.873 4.839-2.323 7.913-3.439a10.965 10.965 0 0 1 3.177-.638c1.922-.091 4.344.271 6.704.708 1.515.278 3.586 1.082 6.08 2.461.457.43.466.34.862.7.592.514.693.72 1.284 1.234.478.404.312.062.927.625.085.272.395.403.843.723-.396-.061.473.438.399.56.504.4.537.258 1.264.914.233.288.251.442.714.874.694.473.368.362.884.674.414.582.08.353.566 1.049.584.407 1.37 1.41.882 1.017.421.358.822.698.8.775-.61-.319-.771-.191-.678.108-.514-.417-1.353-.743-.382.104-.264-.397.301.073.78.455-.262-.23-.586-.499-.462-.484.723.61.154.006.906.65-.529-.523-.352-.361-.209-.44.86.707-.303-.101.252.39.29.247.477.129.737.505-.872-.379-1.13-.206-2.132-.926.244.393-.791.105-1.69-.416.498.513-.362-.11.02.32.98.367 1.429.37 2.66.99-1.286-.38-2.17-.533-3.844-1.318.019-.224 1.36.66.657-.084-.389-.1-.882-.325-1.183-.324l.843.724c-.325-.093-1.29-.628-.657.082-1.226-.966-.355.055-1.224-.62-.092.006.185.245.273.366-1.916-1.562-1.715-.833-2.343-1.021.528.397.85.692.968.92-.706-.548-1.496-1.22-1.918-1.176.352.256.87.73.483.459-.038-.04-.652-.326-.99-.55-.321-.026-.13.532-1.373-.444.116-.247.673.225 1.014.18-.141-.303-.694-.626-.736-.85.551.448.481.496.843.725.338-.065.666.093-.016-.663-.169-.005-.395-.259-.57-.36.447.437.34.522.502.779-1.052-.858-1.44-1.016-1.054-.476-.917-.792-1.115-.496-1.413-.74.221.191.19.09.378.24.255.507-.142.396-.91.04-.746-.64.316.054-.378-.586-1.866-.964-2.05-.591-2.388-.282.558.364.476.011 1.034.5-.145.162-.909-.388-1.456-.69.3.312-.408-.121.272.364-1.152-.422-1.26-.137-2.22-.139.283.35.754.578.8.775-.208-.173-.405-.335-.38-.239-.253-.07.006-.114-.484-.459-.643.429-2.86.077-2.908 1.346-.588-.232-1.186-.443-.93.064.609.6.293-.117.759.48-.387-.314-.174.063-.32.03-.444-.327-.768-.76-.84-.726-.534-.028-.884.273-.85.652.045-.012.1-.015.38.241-1.611-.682-1.79.023-2.162.475-.734-.152-.903.085-.765.552-1.77.206-3.26 1.549-4.714 2.775.216.178.377.257.316.316-.66-.424-.155.263-.654-.261.036.706-1.473-.002-.602 1.386-.59-.549-.263-.04-.611-.312-.973.835-1.798 1.861-2.764 2.206.078-.04.135-.093-.23-.414.061.17-.78-.7-.717-.53.283.333.19.427 1.072 1.14l-.447.521c-.139-.07-.554-.486-.738-.504-.909 1.01-1.429 1.946-2.789 2.919-.06-.128.33.027-.04-.295-.414.343-.613.54-.852.996-.563-.988.448-1.046.22-1.625" fill="#E4D2FF"/><g fill="#D2DCE8"><path d="M273.76 531.496c.145-.35.468-.847.51-.128-.172-.152-.339.235-.51.128m-.624.304c-.186-.157.167-.13.266-.332-.11.63-.229.363-.266.332m2.665-3.274c.079-.538.328-.392.32-.143l-.124-.014c-.053.142-.105.169-.196.157m-8.913-2.741c.091.045.078.072.146.175-.008.243-.161.426-.146-.175m14.706-10.468c-.074.144-.143.136-.231.674l-.103-.016c.038-.369.016-.522.097-1.05.092.241.268-.476.36-.122-.09-.381.158-.492.158-.33-.061.155-.151.699-.137.333-.013.408-.178 1.01-.306 1.55.09-.317.106-.633.162-1.039m1.379-2.798c.015.046-.043.347-.015.353.137-.64.084.23.252-.847.046.276.022.32.17.028-.282 1.643-.5.428-.855 1.992.093-.47.016-.356.071-.7-.079.039-.177.524-.26.668.027-.147.019-.165.007-.176l.057-.347c.172-.512.183.183.345-.653.057.337.114-.068.228-.318m.895-1.628c-.053.7.141-.007.265-.49.023.128-.022.472-.086.876-.125.027-.281.7-.4.644.058-.293.039-.329.016-.354.043-.217.073-.167.042.007.05-.108.105-.363.163-.683m.339-.656c.048-.055.017.144-.017.356.146-.483-.043.781-.122.69.095-.505.046-.54.139-1.046m-1.71 2.383c-.142.578-.261.505-.393.825.058-.621.283-.746.393-.825m.363-.474c-.11.584-.18.196-.278.489.106-.61.27-.714.278-.489m-1.26 12.417c.62-.958 1.343-2.507 2.101-4.61.077-.49.113-.442.183-.858.113-.609.09-.782.201-1.39.095-.486.138-.197.244-.848-.058-.204.05-.44.164-.861-.182.24.08-.502-.006-.536.11-.498.183-.429.311-1.19.011-.292-.037-.393.036-.886.184-.637.053-.404.205-.854-.011-.558-.098-.25-.118-.913.152-.542.165-1.543.062-1.059.082-.427.158-.837.114-.87-.2.5-.34.507-.412.28-.107.513-.423 1.137-.251.134.022.372.132-.198.233-.672-.047.27-.11.599-.049.526.137-.734.082-.082.22-.85-.068.582-.04.395.071.369.173-.863-.123.215-.026-.362.055-.296.206-.32.191-.679-.319.672-.531.7-.771 1.645-.032-.362-.472.345-.733 1.12.052-.562-.146.254-.121-.2.369-.725.607-.962 1.014-1.962-.538.887-.948 1.437-1.504 2.771.103.123.445-1.096.381-.293-.164.263-.332.652-.488.808l.142-.865c-.132.222-.415 1.04-.379.293-.238 1.208-.207.152-.38 1.004-.05.045-.005-.241-.008-.357-.349 1.92-.542 1.392-.784 1.833.106-.51.15-.853.117-1.047-.136.69-.263 1.501-.493 1.7.074-.336.143-.887.056-.524-.002.044-.196.536-.273.845-.15.186-.281-.241-.503.99.157.077.243-.49.43-.646.05.25-.095.733-.027.884.096-.552.043-.542.13-.868.195-.143.296-.407.257.393-.082.091-.094.36-.141.511.05-.491-.038-.484-.059-.717-.183 1.056-.31 1.354-.334.835-.138.947-.35.881-.401 1.181.034-.229.06-.154.09-.34-.074-.43-.227-.151-.457.467-.11.767.132-.202.046.538-.522 1.558-.747 1.445-1.027 1.451.121-.51.22-.263.294-.845-.133-.014-.28.713-.42 1.182.02-.34-.143.289-.012-.356-.376.866-.536.768-.976 1.293-.006-.354.123-.74.067-.876-.028.212-.056.412-.082.344-.09.177.048.06-.044.525-.464.105-1.318 1.536-1.83.854-.17.458-.347.91-.435.487.031-.674.175-.1.145-.692-.047.391-.102.063-.152.163-.065.43-.039.851-.084.873-.22.315-.487.345-.623.119.026-.02.051-.05.07-.348-.425 1.28-.772 1.001-1.11.966-.247.501-.41.466-.539.134-.817.905-1.949 1.04-3.019 1.25.011-.22.04-.357-.007-.352-.082.611-.17-.047-.147.523-.28-.397-.561.867-.805-.374.005.637-.083.179-.104.524-.714.137-1.454.106-1.953.508.046-.027.09-.034.094.35-.05-.124.013.827-.036.702-.038-.34-.11-.331-.095-1.228l-.384.004c-.02.12.008.583-.05.702-.727.032-1.308-.103-2.148.202.015.01.027.056.033.195-.29.082-.443.108-.725.028.248.835.608.245.786.672-.03.143-.09.073-.142.532 1.279 1.627 2.493-.218 3.717.827.261.224.624.07.913.19.616.267 1.397-.832 2.067-.101-.828.388-1.702.115-2.618.442-.217.076-.472-.341-.753.17-.072.13.075.276.138.176.16 1.16.404.195.624.18.087-.006.17.411.255.356.109-.069.181.015.26.006 1.882-.202 3.389-1.03 5.119-1.3.226-.034.485-.262.67.238.028-.273.056-.604.085-.519.311.21.67-.518.886-.085-.597.568-1.114.67-1.663 1.422.38-.258.773-.376 1.2-.59.018.039-.01.194-.035.35.573-1.088 1.013-.861 1.415-.9-.652.93-1.266.882-1.937 1.728l-.07-.007c-.021.258.028.164.053.182.13.286.33-.576.326.209-.266-.2-.531.625-.72.106.093-.194.098.163.17-.336-.66.339-1.403.148-2.078 1.237.123-.201.29-.212.357.025-.772.66-1.359.626-2.082.931-.066.027-.445.195-.132.344.677.322 1.543-.47 2.26-.744 1.78-.674 2.683-1.483 4.352-2.554a7.617 7.617 0 0 0 1.584-1.375c.873-.991 1.848-2.492 2.816-3.99M245.382 511.028l-.092-.078c.223-.296.278-.443.624-.85-.03.267.508-.24.422.127.101-.39.408-.322.328-.182-.142.094-.51.504-.31.198-.219.345-.69.757-1.091 1.142.25-.216.426-.478.69-.794-.149.077-.212.027-.57.437zm2.864-2.158c-.445.397-.526.248-.826.437.374-.5.67-.451.826-.437zm.141.374c-.117.335.154.027.401-.104-.008.05-.226.266-.2.292.477-.448-.035.262.704-.54-.097.274-.145.293.165.157-1.163 1.194-.745-.014-1.924 1.077.34-.337.202-.295.438-.55-.1-.027-.451.323-.609.39.103-.109.104-.13.099-.149l.235-.26c.44-.318.09.29.691-.313zm.479-.514c-.417.423-.29.035-.54.216.423-.45.648-.417.54-.216zm-16.409 13.198c.207-.305.582-.697.318-.033-.032-.168-.27.158-.318.033zm-.44.195c-.041-.171.133-.096.26-.27-.287.57-.25.304-.26.27zm3.037-2.585c-.097.113-.144.127-.195.092.283-.462.385-.269.269-.05l-.074-.042zm-5.753-3.961c.066.048.054.075.098.18-.028.241-.155.417-.098-.18zm20.708-6.729c.16-.151.166-.085.042.04.108-.054.302-.227.535-.456-.431.556.153.103.543-.207-.046.129-.278.387-.563.68-.143-.081-.669.376-.764.233.22-.204.218-.25.207-.29zm1.287-.702c.081-.008-.059.137-.21.29.414-.291-.468.634-.5.492.372-.355.339-.427.71-.782zm-6.028 7.678c.36-.341.362-.28.673-.564.463-.41.547-.564 1.008-.977.373-.323.238-.062.723-.51.068-.207.308-.319.66-.578-.31.061.37-.348.31-.44.393-.322.423-.212.992-.734.18-.23.19-.352.547-.7.548-.379.285-.292.694-.54.309-.473.046-.288.401-.86.461-.327 1.036-1.159.657-.839.324-.292.632-.572.604-.64-.49.252-.638.138-.592-.12-.393.345-1.061.613-.336-.1-.179.338.246-.056.611-.375-.197.192-.442.418-.338.408.545-.51.132 0 .7-.538-.393.44-.261.304-.127.38.654-.587-.249.074.168-.333.22-.206.398-.091.576-.412-.71.29-.953.13-1.716.737.16-.344-.694-.093-1.375.37.35-.443-.288.104-.025-.268.771-.333 1.156-.351 2.13-.862-1.055.306-1.794.455-3.068 1.184.042.181 1.04-.606.552.038-.31.1-.687.309-.93.327l.596-.642c-.257.09-.969.59-.55-.035-.864.876-.294-.022-.906.597-.077.005.114-.212.168-.316-1.332 1.429-1.26.84-1.728 1.065.362-.375.576-.645.637-.839-.48.515-1.012 1.139-1.34 1.165.24-.245.58-.684.315-.421-.025.036-.46.343-.69.567-.238.07-.164-.394-.975.56.115.16.474-.284.735-.304-.073.25-.452.584-.46.758.365-.425.308-.45.555-.68.26-.003.495-.168.054.503-.125.028-.271.254-.393.358.296-.396.206-.444.3-.662-.702.809-.969.993-.735.526-.6.746-.767.565-.96.797.143-.18.13-.099.252-.245.139-.418-.147-.26-.662.16-.473.613.222-.107-.216.494-1.24 1.09-1.374.89-1.629.756.347-.393.32-.124.661-.601-.114-.081-.587.49-.929.839.176-.293-.26.187.155-.322-.734.59-.834.438-1.453.717.151-.319.437-.61.446-.757-.12.178-.23.345-.224.274-.156.121.016.076-.268.452-.46-.12-1.79.878-1.942.066-.326.362-.648.725-.561.306.281-.612.188-.034.386-.59-.188.344-.112.022-.193.1-.218.375-.354.775-.4.78-.306.22-.534.167-.566-.089.027-.008.059-.03.182-.302-.812 1.057-.993.721-1.262.59-.367.408-.479.328-.487-.013-.953.666-1.867.55-2.767.607.054-.215.106-.343.067-.346-.189.585-.125-.074-.22.488-.15-.44-.592.773-.572-.476-.102.627-.096.165-.168.505-.575.037-1.152-.043-1.567.318.036-.025.071-.03.04.352-.026-.127-.064.824-.088.699.003-.342-.052-.337.035-1.229l-.295-.017c-.024.118-.034.582-.083.698-.28-.011-.522-.053-.78-.044a1.512 1.512 0 0 0-.796.198c.015-.012.027.01.039.191-.203.084-.31.109-.513.028.22.835.438.245.574.67-.016.144-.059.073-.078.532.446.797.803.78 1.205.665.392-.101.832-.264 1.152.302.134.231.384.126.547.27.174.153.426-.012.687-.111.26-.111.53-.154.647.254-.617.253-1.11-.097-1.73.14-.14.052-.248-.37-.48.116-.057.124.013.28.063.185-.05 1.164.207.21.345.22.053.003.037.422.094.376.073-.06.102.029.148.026 1.104-.04 2.268-.626 3.475-.52.152.018.409-.132.325.362.128-.244.278-.54.264-.456.114.249.642-.31.598.131-.616.358-.989.352-1.6.936.318-.16.612-.202.957-.297-.005.04-.088.175-.169.308.804-.848 1.01-.543 1.264-.468-.827.646-1.183.481-1.913 1.114l-.037-.017c-.118.23-.052.152-.045.173-.045.28.43-.463.095.247-.065-.234-.55.48-.442-.027.13-.16-.011.165.23-.277-.494.188-.86-.106-1.567.833.129-.179.222-.169.173.066-.613.528-.874.436-1.296.666-.038.02-.25.145-.147.32.21.366.827-.317 1.283-.48 1.114-.397 1.942-.993 3.425-1.52a12.204 12.204 0 0 0 1.66-.729c1.071-.56 2.563-1.42 4.156-2.158 1.006-.468 2.482-1.309 4.393-2.49z"/><path d="M241.723 537.648c-.002.168-.086.205.117.709l-.128.053c-.163-.333-.275-.448-.477-.943.238.145.032-.564.334-.325-.316-.263-.104-.507-.013-.373.022.167.228.678.038.363.218.349.379.953.537 1.486-.076-.322-.24-.595-.408-.97m-.031-1.704l-.14-.32c-.119-.534.294.03-.026-.76.254.24.077-.13.043-.406.043.028.16.31.19.299-.238-.61.222.133-.249-.85.21.196.212.247.185-.084.695 1.516-.238.662.308 2.173-.177-.445-.192-.302-.333-.62-.059.083.12.545.117.719-.056-.139-.077-.148-.095-.15m-.539-1.104c.184.568.024.588.063.93-.287-.552-.127-.79-.063-.93m.088-.617c.227.548-.065.273.005.575-.24-.57-.141-.758-.005-.575m.436-.97c-.09-.203-.03-.18.045-.02-.02-.119-.119-.36-.255-.655.367.6.128-.089-.05-.555.095.087.26.391.445.757-.095.105.159.74.01.77-.12-.274-.16-.291-.195-.297m-.099-1.115c-.16-.48.432.652.306.63-.219-.464-.283-.46-.5-.926.008-.075.099.104.194.296m-.936 20.383l-.24.066c-.034.161-.118.22-.297.266-.106-.534.427-.56.537-.332m-3.337 4.283c.172-.408.634-1.059 1.022-.418-.423-.04-.615.423-1.022.418m-1.225.6c-.46-.053.313-.207.449-.446 0 .647-.36.457-.45.446m-13.613-4.665c.169.052.143.08.27.185-.022.243-.324.416-.27-.185m.542.371c-.091-.13.008.828-.084.7-.064-.344-.205-.341-.145-1.234l-.721-.027c-.043.118-.014.583-.13.698-.72-.007-1.356-.08-2.028-.138-.628-.044-1.3-.058-2.096-.02.026.011.04.06.027.201-.57.005-.872-.01-1.392-.164.294.886 1.123.403 1.385.87-.083.132-.186.048-.379.485 1.144.99 2.438 1.037 3.7.995 1.273-.056 2.518-.23 3.767.267.55.234 1.286.02 1.889.118.654.109 1.346-.157 2.046-.38.703-.214 1.415-.386 2.164-.132-1.608.633-3.451.503-5.326.907-.45.103-.99-.327-1.57.191-.15.131.162.276.294.175.368 1.153.87.204 1.327.16.182-.016.387.392.565.328.227-.08.388-.004.555-.022 4.021-.442 6.938-1.782 10.21-2.927.433-.16.837-.513 1.41-.154-.062-.268-.15-.588-.056-.527.701.028 1.042-.878 1.651-.619-.864.912-1.833 1.284-2.635 2.294.663-.465 1.403-.773 2.136-1.244.052.023.072.18.09.338.617-1.361 1.545-1.413 2.278-1.757-.735 1.301-1.973 1.645-2.949 2.835l-.144.034c.069.25.126.136.187.137.4.186.41-.72.764-.013-.63-.005-.823.894-1.442.533.111-.233.277.092.209-.41-1.225.72-2.831.901-3.944 2.242.204-.243.559-.322.784-.136-1.47.982-2.817 1.188-4.39 1.697-.144.047-.982.331-.233.38 1.65.117 3.435-.988 4.905-1.596 3.674-1.554 5.194-2.9 7.82-5.1.757-.656 1.538-1.508 2.103-2.447.937-1.557 1.546-3.62 1.937-5.613.248-1.298.15-3.105-.406-5.291-.252-.428-.175-.422-.383-.79-.293-.545-.44-.656-.73-1.201-.226-.442.017-.255-.31-.828-.204-.11-.243-.374-.41-.775-.031.317-.254-.442-.367-.405-.218-.46-.098-.46-.476-1.134-.182-.23-.298-.273-.548-.706-.24-.617-.213-.349-.362-.8-.37-.426-.254-.128-.693-.633-.21-.522-.824-1.318-.611-.872-.195-.388-.383-.76-.44-.759.14.522.02.616-.18.483.222.473.32 1.175-.134.265.243.282-.003-.244-.203-.685.123.246.265.547.275.451-.326-.672.019-.116-.327-.818.293.509.204.342.28.251-.377-.794.028.248-.24-.272-.131-.27-.023-.382-.25-.659.146.73-.015.887.338 1.796-.236-.262-.208.561 0 1.353-.28-.488.012.296-.23-.088-.082-.82 0-1.143-.248-2.202.068 1.04.017 1.722.251 3.165.171.036-.21-1.172.195-.475-.002.315.061.738-.003.966l-.358-.801c.003.265.189 1.117-.198.476.447 1.151-.117.257.186 1.068-.027.068-.14-.198-.21-.294.72 1.815.209 1.488.19 2.007-.167-.496-.309-.81-.449-.954.233.665.538 1.425.388 1.735-.1-.328-.322-.836-.22-.477.02.04.071.575.148.887-.072.25-.445-.026-.055 1.156.231-.026.026-.571.16-.82.193.18.287.68.45.763-.192-.526-.248-.484-.324-.814.147-.245.114-.53.514.167-.044.129.093.362.121.52-.216-.445-.314-.382-.468-.566.371 1.007.379 1.34.066.92.354.889.053.977.154 1.263-.082-.215-.01-.168-.073-.35-.326-.313-.363.009-.327.683.268.727.06-.253.35.433.157 1.66-.233 1.716-.612 1.901-.097-.521.165-.37-.037-.92-.185.072-.008.795.038 1.293-.147-.308-.052.344-.2-.3-.084.993-.37.99-.76 1.722-.176-.31-.176-.73-.323-.817.062.205.117.399.047.353-.044.21.099.027.188.493-.607.386-1.306 2.13-2.404 1.792-.079.503-.188 1.01-.495.658-.214-.642.238-.176-.044-.71.082.383-.135.105-.173.221.06.432.27.812.206.852-.236.4-.666.56-.97.41.035-.029.064-.068-.013-.358-.225 1.413-.938 1.275-1.51 1.385-.262.577-.557.623-.874.34-1.142 1.156-3.15 1.67-5.065 2.037-.01-.221.025-.362-.061-.349-.066.622-.31-.017-.197.544-.547-.337-.946.95-1.506-.266.06.635-.139.185-.148.534-1.31.225-2.68.173-3.623.564.086-.022.167-.027.164.357" fill-opacity=".56"/></g><g fill="#D2DCE8" fill-opacity=".4"><path d="M831.804 708.388c.573-.219 1.065-.126 1.476.162 1.335.935 1.82 3.933 1.452 5.047-2.421.58-3.042-3.376-2.928-5.21zm18.538-15.43c.076.045.15.093.224.144.564.395 1.045 1.023 1.372 2.103-1.041.677-1.87.791-2.612.637-.509-1.282-.17-2.245 1.016-2.883zm-87.91 19.65c-1.78 1.546-3.864-3.07-1.562-3.46 1.358 1.253.849 1.603 1.563 3.46zm83.676-47.045c1.185-.472 2.515-.212 3.549.511 1.098.77 1.863 2.064 1.763 3.562-1.853-.718-5.266-1.861-5.312-4.073zm-96.369 45.884c.171.084.3.157.395.224.594.416-.064.606.497 1.747-1.665 1.268-2.908-1.49-.892-1.971zm119.39-61.65c1.373-.832 2.439-.795 3.304-.19.727.51 1.314 1.42 1.822 2.555-2.344 1.005-3.904-.199-5.126-2.364zm-122.417 51.084c.43.03.819.182 1.165.425 2.322 1.625 2.74 7.345.492 8.389-3.763 1.756-9.353-6.568-1.657-8.814zm76.3-35.127c.817.2 1.99.522 2.886 1.15.876.613 1.489 1.517 1.251 2.88-1.76.031-4.065-2.838-4.136-4.03zm36.322-19.693c1.936-.432 3.124-.265 3.778.194.94.659.78 1.917.167 2.858-1.084 1.661-3.585 2.33-3.945-3.052zm-60.817 10.346c4.456-3.722 9.908-3.2 13.746-.513 2.165 1.516 3.816 3.722 4.482 6.243 1.972 7.447-4.905 12.45-12.37 13.69-5.105-2.211-7.352-4.369-9.609-11.032 2.19-2.832 1.41-6.433 3.751-8.388zm-36.16 31.625c.276.024.557.148.836.343 1.44 1.008 2.803 3.93 2.793 5.129-1.142.98-1.403-.525-2.354-.08.285-2.424-1.177-3.258-1.274-5.392zm32.764-9.602c-2.139.052-4.314-4.607-2.2-6.156 1.243 2.252 1.708 4.197 2.2 6.156zm-63.86 21.655c1.31-.011 2.62-.022 3.67.713.08.056.158.116.235.18-3.55 1.428-6.705 1.742-8.938-.548.264-.448.54-.887 1.207-1.178 1.073.854 2.45.843 3.827.833zm86.2-83.914c2.908.094 6.04.235 8.164 1.722 1.083.76 1.905 1.868 2.301 3.5 1.287 5.264-5.379 8.21-9.792 5.264-2.146-4.23-.188-6.89-.672-10.486zm69.916-24.88c.716-.714 1.563-1.36 2.277-.86.284.199.547.579.772 1.208-1.322.747-2.577 1.3-3.05-.349zm-127.862 60.876c.804-.772 1.853-1.708 2.723-1.099.207.146.405.38.586.723-.381 1.105-2.873 2.438-3.309.376zM708.47 676.47c.78-.164 1.914-1.32 2.495-.913.163.114.281.35.337.763-1.017.873-2.003 2.169-2.832.15zm-18.032 4.986c.043.027.083.054.123.081 1.382.97 1.327 2.476.663 3.558-.661 1.079-1.928 1.735-2.974 1.01l-.018-.013c-.455-.322-.866-.906-1.166-1.833.387-1.214 1.438-2.18 3.372-2.803zm63.86-37.011c.823-.556 1.485-.659 1.988-.307.346.242.617.7.813 1.375-1.391.94-2.325.584-2.8-1.068zm-17.845-2.31c.608-.382 1.085-.388 1.465-.123.363.254.638.757.857 1.42-.477.229-.954.456-1.428.682-.3-.66-.596-1.317-.894-1.98zm-15.617 2.636l1.91-.91c.666.938.26 1.466.411 2.206-1.188.746-1.878.06-2.321-1.296zm-26.37 8.351c-2.455.474-2.395-2.718.068-2.429l.667 1.48c-.593.185-.802.513-.736.949zm20.036-18.545c1.178-.473 2.301-.801 3.108-.235.36.252.656.678.87 1.347-.368 1.052-2.796 2.212-3.82 1.817-1.116-1.387.063-1.887-.158-2.93zm-6.84.256c.351-1.096 2.249-1.596 3.596-2.31 1.34 2.582-.662 5.816-3.178 4.517.17-.62.005-1.36-.417-2.207z"/></g></g></svg>