<svg width="440" height="440" xmlns="http://www.w3.org/2000/svg"><g fill="#FCAE4C" fill-rule="evenodd"><path d="M251.77 91.619c-.21-.42.524.41.752.656 3.915-1.91 7.894-4.134 11.69-6.681 8.432-5.658 14.623-10.212 22.718-14.954 1.074-.63 1.868-1.852 3.353-1.67 1.053.13 2.064-.145 2.98-.547 1.314-.578 2.439-1.369 4.233-1.39.218-.27.77 1.177.868 1.161.488.163.867.033 1.37.242 1.386 2.366.413 1.849.013 2.023-.757.331-.902 1.978-1.802 2.081.161.468.76.863.69 1.278-1.549 1.414-2.163 2.994-4.04 3.872.707.915.594-.406 1.15.1-.963.872-1.793 2.32-2.615 3.497-.307.437-1.014.268-1.382.636-2.366 2.374-5.018 4.533-7.75 6.941-2.422 2.136-5.043 3.705-7.202 5.994-1.827-.132-2.794 1.191-3.704 2.198-3.44 1.215-6.554 4.23-10.488 5.876a55.704 55.704 0 0 0-6.829 3.42c-1.157.683-2.776.702-4.326.869-.818.09-1.368.57-2.053.798-.851.285-1.296 1.009-2.765.112-1.257 1.08-2.92.693-4.513 1.869-1.51-1.549-2.367-1.387-3.962-3.15-.753-1.406-.332-1.682-.703-2.72.561-.425.756-1.483.95-2.38.118-.554.818-.102 1.25-.26.847-.307 1.521-1.26 2.2-1.764 1.121-.835 1.609-2.382 2.518-3.142 2.715-1.048 5.482-2.25 7.754-4.622-.082-.017-.294-.38-.355-.343" fill-opacity=".4"/><path d="M250.589 132.12c-.232-.397.476.426.695.671 2.76-1.168 5.524-2.588 8.104-4.305 5.729-3.81 9.909-6.916 15.576-9.868.751-.391 1.2-1.346 2.388-.959.841.275 1.595.189 2.255-.025.946-.306 1.719-.823 3.116-.563.134-.203.763 1.153.836 1.154.403.22.681.164 1.102.426 1.402 2.295.575 1.688.287 1.778-.546.173-.43 1.594-1.119 1.543.191.434.713.875.715 1.227-1.01.998-1.265 2.29-2.602 2.768.679.91.405-.265.909.264-.626.615-1.065 1.757-1.534 2.662-.175.336-.752.08-.983.346-1.497 1.72-3.241 3.212-5.002 4.92-1.562 1.512-3.36 2.504-4.683 4.2-1.442-.377-1.989.642-2.535 1.396-2.487.577-4.423 2.788-7.216 3.696a25.97 25.97 0 0 0-4.751 2.086c-.786.445-2.044.254-3.224.202-.624-.026-.97.322-1.466.435-.616.142-.838.719-2.139-.249-.795.785-2.16.243-3.2 1.075-1.45-1.54-2.091-1.502-3.646-3.238-.832-1.32-.55-1.512-1.019-2.465.366-.304.336-1.207.335-1.97-.001-.471.625.01.937-.076.611-.166.98-.918 1.425-1.276.739-.594.862-1.89 1.449-2.442 1.956-.58 3.927-1.282 5.323-3.067-.067-.026-.292-.372-.333-.347m75.552-43.8c-.126-.454.59.406.817.661 6.504-2.58 13.217-5.595 19.77-9.003 14.552-7.58 25.273-13.789 38.758-20.708 1.788-.927 3.38-2.464 5.474-2.546 1.487-.056 3.057-.57 4.534-1.212 2.12-.92 4.025-2.068 6.651-2.458.41-.356.726 1.193.873 1.154.656.088 1.256-.14 1.92-.005 1.222 2.433-.029 2.042-.673 2.325-1.222.54-2.005 2.467-3.358 2.774.072.505.813.837.564 1.331-2.766 1.948-4.232 3.889-7.3 5.279.71.915 1.016-.586 1.653-.116-1.724 1.2-3.474 3.019-5.113 4.538-.611.563-1.588.51-2.265.998-4.36 3.175-9.075 6.146-14.032 9.374-4.394 2.868-8.875 5.092-12.983 8.043-2.639.128-4.594 1.79-6.353 3.07-5.558 1.899-11.42 5.745-17.916 8.114-3.943 1.418-7.815 3-11.543 4.669-2 .906-4.394 1.086-6.742 1.43-1.242.181-2.261.783-3.371 1.105-1.38.398-2.36 1.257-4.108.375-2.328 1.338-4.593 1.036-7.462 2.489-1.498-1.629-2.823-1.377-4.336-3.246-.452-1.527.288-1.872.223-3.013 1.009-.523 1.773-1.729 2.458-2.753.423-.633 1.237-.176 1.939-.387 1.37-.413 2.775-1.548 3.985-2.172 2.006-1.033 3.398-2.82 5.048-3.766 4.403-1.425 8.952-3.062 13.257-5.994-.11-.01-.264-.398-.369-.35"/><path d="M316.49 137.257c-.14-.455.575.414.802.67 5.994-2.533 12.188-5.43 18.243-8.676 13.45-7.208 23.454-12.948 36.136-19.09 1.684-.818 3.177-2.27 5.155-2.214 1.4.042 2.88-.368 4.271-.914 1.997-.783 3.803-1.784 6.275-1.988.388-.326.67 1.245.81 1.217.615.133 1.18-.052 1.802.133 1.123 2.52-.044 2.038-.652 2.274-1.15.45-1.896 2.317-3.168 2.524.066.51.759.894.524 1.368-2.6 1.748-3.972 3.59-6.845 4.77.665.958.95-.518 1.546-.007-1.614 1.08-3.24 2.796-4.764 4.206-.568.523-1.485.405-2.114.856-4.05 2.915-8.42 5.617-12.985 8.61-4.049 2.652-8.179 4.685-11.92 7.488-2.462.03-4.237 1.622-5.83 2.85-5.13 1.714-10.43 5.432-16.382 7.68a123.988 123.988 0 0 0-10.525 4.54c-1.818.885-4.037 1.064-6.21 1.403-1.15.18-2.067.777-3.082 1.101-1.262.406-2.12 1.268-3.812.392-2.091 1.346-4.224 1.065-6.805 2.55-1.517-1.615-2.743-1.348-4.296-3.199-.535-1.523.135-1.877-.007-3.02.911-.535 1.546-1.752 2.12-2.787.354-.64 1.15-.192 1.795-.413 1.258-.427 2.508-1.57 3.606-2.205 1.817-1.053 3.017-2.85 4.519-3.797 4.06-1.443 8.247-3.068 12.159-5.967-.105-.012-.27-.403-.366-.355m55.02 57.853c.102-.165-.018.272-.052.406 1.685.916 3.458 1.842 5.286 2.683 2.031.93 3.796 1.785 5.484 2.684a47.206 47.206 0 0 1 4.974 3.014c.442.312 1.083.416 1.261 1.02.127.427.407.774.723 1.064.454.414.948.746 1.241 1.432.144.046-.357.466-.335.502.009.21.12.337.112.56-.749.87-.685.425-.816.297-.25-.24-.93-.054-1.108-.383-.162.131-.23.42-.405.454-.801-.376-1.525-.356-2.168-.925-.245.41.255.159.144.448-.494-.225-1.202-.292-1.792-.406-.221-.04-.27-.336-.476-.407-1.321-.47-2.608-1.066-4.026-1.602-1.25-.48-2.34-1.114-3.617-1.415-.313-.672-.997-.75-1.555-.853-1.15-.963-2.917-1.374-4.38-2.345a19.047 19.047 0 0 0-2.794-1.5c-.511-.23-.914-.75-1.355-1.22-.234-.247-.535-.316-.787-.482-.314-.206-.673-.171-.744-.869-.69-.146-.996-.772-1.819-.986.122-.874-.164-1.109-.001-2.067.272-.597.483-.53.738-.91.303.076.723-.125 1.09-.286.227-.1.263.24.438.34.34.2.857.194 1.22.294.599.164 1.28-.044 1.795.085 1.102.66 2.246 1.317 3.687 1.572-.014-.032.066-.186.037-.198" fill-opacity=".4"/></g></svg>