<svg width="1056" height="792" xmlns="http://www.w3.org/2000/svg"><defs><linearGradient x1="50%" y1="0%" x2="50%" y2="98.435%" id="a"><stop stop-color="#1694FF" stop-opacity="0" offset="0%"/><stop stop-color="#1694FF" stop-opacity=".64" offset="52.708%"/><stop stop-color="#1694FF" stop-opacity="0" offset="100%"/></linearGradient><linearGradient x1="100%" y1="0%" x2="0%" y2="0%" id="b"><stop stop-color="#1694FF" stop-opacity="0" offset="0%"/><stop stop-color="#1694FF" stop-opacity=".64" offset="52.708%"/><stop stop-color="#1694FF" stop-opacity="0" offset="100%"/></linearGradient></defs><g fill="none" fill-rule="evenodd"><g fill="#FCAE4C"><path d="M574.504 249.173c-.183-.361.458.352.657.564 3.419-1.642 6.894-3.555 10.209-5.746 7.365-4.866 12.772-8.782 19.842-12.86.938-.543 1.631-1.593 2.928-1.437.92.113 1.803-.124 2.603-.47 1.148-.497 2.13-1.177 3.697-1.195.19-.232.673 1.012.758.998.426.14.757.028 1.197.208 1.21 2.035.36 1.59.011 1.74-.661.285-.788 1.7-1.574 1.79.141.402.664.742.603 1.099-1.353 1.216-1.889 2.575-3.529 3.33.618.787.519-.35 1.004.085-.84.75-1.565 1.996-2.283 3.008-.268.376-.886.23-1.207.547-2.067 2.042-4.383 3.899-6.769 5.97-2.115 1.837-4.404 3.186-6.29 5.155-1.596-.114-2.44 1.024-3.235 1.89-3.004 1.045-5.724 3.637-9.16 5.053a48.954 48.954 0 0 0-5.964 2.942c-1.011.587-2.425.603-3.778.747-.715.077-1.195.49-1.793.686-.744.245-1.132.868-2.415.097-1.098.928-2.551.596-3.942 1.607-1.319-1.332-2.067-1.193-3.46-2.71-.658-1.208-.29-1.446-.614-2.34.49-.364.66-1.274.829-2.045.104-.477.715-.088 1.093-.224.739-.264 1.328-1.084 1.92-1.517.98-.718 1.406-2.048 2.2-2.702 2.371-.901 4.788-1.935 6.772-3.975-.072-.015-.257-.327-.31-.295" fill-opacity=".4"/><path d="M573.536 286.588c-.202-.35.414.377.604.594 2.398-1.033 4.8-2.288 7.041-3.806 4.978-3.368 8.61-6.114 13.534-8.724.653-.346 1.043-1.19 2.075-.848.731.243 1.386.167 1.96-.022.821-.271 1.493-.728 2.707-.498.116-.18.663 1.019.726 1.02.35.194.592.145.958.377 1.218 2.029.5 1.492.25 1.572-.475.153-.375 1.409-.973 1.364.166.384.62.774.621 1.085-.878.882-1.099 2.024-2.26 2.447.59.804.351-.234.79.233-.545.544-.926 1.554-1.334 2.354-.152.297-.653.07-.854.306-1.3 1.52-2.816 2.839-4.346 4.349-1.357 1.337-2.92 2.214-4.069 3.713-1.253-.333-1.728.568-2.203 1.235-2.16.51-3.843 2.465-6.27 3.267a22.369 22.369 0 0 0-4.128 1.845c-.683.393-1.776.224-2.8.178-.543-.023-.844.285-1.275.385-.535.125-.728.635-1.858-.22-.69.694-1.877.214-2.78.95-1.26-1.362-1.818-1.328-3.169-2.863-.723-1.167-.477-1.336-.885-2.18.318-.268.292-1.066.291-1.74 0-.417.543.008.814-.068.531-.147.851-.811 1.238-1.128.642-.525.75-1.67 1.26-2.16 1.7-.512 3.411-1.132 4.624-2.71-.058-.023-.253-.33-.289-.307M639.09 246.085c-.11-.395.514.354.712.576a186.75 186.75 0 0 0 17.204-7.84c12.663-6.6 21.992-12.005 33.727-18.03 1.556-.807 2.94-2.145 4.763-2.217 1.294-.048 2.66-.496 3.946-1.055 1.845-.801 3.502-1.801 5.788-2.14.356-.31.63 1.039.759 1.005.57.076 1.093-.123 1.67-.005 1.064 2.119-.024 1.778-.585 2.025-1.063.47-1.744 2.148-2.922 2.415.063.44.708.729.49 1.159-2.406 1.696-3.682 3.386-6.352 4.596.618.797.885-.51 1.439-.101-1.5 1.045-3.023 2.629-4.45 3.952-.531.49-1.381.443-1.97.869-3.795 2.764-7.897 5.35-12.211 8.162-3.824 2.497-7.723 4.433-11.298 7.003-2.296.11-3.997 1.559-5.528 2.672-4.837 1.654-9.937 5.003-15.591 7.066a143.315 143.315 0 0 0-10.044 4.065c-1.74.789-3.824.946-5.867 1.245-1.081.158-1.968.682-2.934.962-1.2.347-2.054 1.095-3.574.327-2.026 1.165-3.997.902-6.494 2.167-1.303-1.418-2.456-1.2-3.773-2.826-.393-1.33.25-1.63.194-2.624.878-.455 1.543-1.505 2.139-2.397.368-.551 1.076-.153 1.687-.337 1.192-.36 2.415-1.348 3.468-1.891 1.746-.9 2.957-2.455 4.393-3.28 3.83-1.24 7.79-2.665 11.536-5.218-.096-.01-.23-.347-.321-.305"/><path d="M630.429 287.782c-.122-.39.502.354.7.574 5.229-2.169 10.632-4.649 15.914-7.427 11.734-6.17 20.46-11.083 31.524-16.34 1.469-.7 2.772-1.944 4.497-1.896 1.22.036 2.513-.315 3.726-.782 1.742-.67 3.318-1.527 5.474-1.702.339-.279.585 1.066.707 1.042.536.114 1.029-.044 1.572.114.979 2.157-.04 1.744-.57 1.946-1.003.386-1.653 1.984-2.763 2.161.058.436.662.765.457 1.171-2.268 1.496-3.465 3.073-5.971 4.082.58.821.829-.443 1.349-.005-1.408.925-2.826 2.393-4.156 3.6-.496.448-1.296.347-1.844.733-3.533 2.495-7.345 4.808-11.328 7.37-3.532 2.27-7.135 4.01-10.4 6.41-2.146.025-3.695 1.387-5.084 2.44-4.476 1.466-9.1 4.648-14.292 6.573a109.27 109.27 0 0 0-9.181 3.885c-1.586.758-3.522.911-5.418 1.201-1.003.154-1.803.665-2.688.943-1.101.347-1.85 1.085-3.326.335-1.824 1.152-3.685.912-5.936 2.183-1.324-1.382-2.393-1.154-3.748-2.738-.467-1.304.118-1.607-.006-2.585.795-.458 1.349-1.5 1.85-2.386.308-.548 1.003-.164 1.565-.353 1.098-.366 2.188-1.345 3.146-1.888 1.585-.9 2.632-2.44 3.942-3.25 3.542-1.235 7.195-2.626 10.607-5.107-.091-.01-.235-.345-.32-.304M678.763 337.847c.087-.145-.016.238-.044.355 1.444.801 2.963 1.612 4.53 2.347a85.989 85.989 0 0 1 4.7 2.349 40.31 40.31 0 0 1 4.264 2.637c.38.273.928.364 1.081.893.11.373.35.676.62.93.39.363.813.653 1.064 1.254.123.04-.307.407-.288.438.008.184.104.295.096.49-.641.762-.587.373-.699.26-.214-.21-.798-.047-.95-.334-.139.114-.196.366-.347.397-.687-.33-1.307-.312-1.858-.81-.21.359.218.139.124.393-.424-.198-1.031-.256-1.537-.356-.19-.035-.23-.294-.408-.356-1.132-.412-2.236-.933-3.45-1.402-1.072-.42-2.006-.975-3.1-1.238-.269-.588-.855-.656-1.334-.747-.985-.842-2.5-1.201-3.754-2.052a16.22 16.22 0 0 0-2.395-1.312c-.438-.201-.783-.656-1.161-1.068-.2-.216-.459-.276-.675-.421-.27-.18-.577-.15-.637-.76-.592-.129-.854-.676-1.56-.863.105-.765-.14-.97 0-1.809.232-.522.414-.463.632-.796.26.066.62-.11.935-.25.194-.087.225.21.375.298.291.174.734.169 1.045.257.514.143 1.098-.04 1.54.074.943.577 1.925 1.153 3.16 1.376-.013-.028.056-.163.03-.174" fill-opacity=".4"/></g><path fill="url(#a)" d="M35 0h2v240h-2zM204 0h2v240h-2z" transform="rotate(45 -234.877 648.416)"/><path fill="url(#b)" d="M0 34h240v2H0zM0 204h240v2H0z" transform="rotate(45 -234.877 648.416)"/><g><path d="M813.82 542.21l-.098-.069c.196-.314.239-.465.548-.901-.008.269.485-.283.43.09.068-.397.38-.356.312-.21-.133.106-.464.546-.292.225-.188.362-.621.814-.987 1.232.23-.237.383-.513.618-.85-.141.09-.21.045-.53.484zm2.666-2.398c-.41.434-.503.293-.786.507.33-.53.63-.508.786-.507zm.173.36c-.088.344.155.013.39-.139-.003.052-.202.285-.175.31.437-.49-.01.263.655-.6-.072.28-.12.304.178.141-1.054 1.291-.743.051-1.822 1.241.309-.366.175-.312.388-.587-.103-.017-.421.362-.573.442.093-.117.092-.138.086-.156l.211-.28c.411-.355.116.281.662-.372zm.432-.554c-.379.458-.285.06-.52.262.383-.485.61-.471.52-.262zm-15.196 14.578c.18-.321.518-.745.314-.06-.048-.165-.255.18-.314.06zm-.42.233c-.058-.167.122-.108.233-.292-.236.593-.222.325-.234.292zm2.798-2.84c-.087.121-.132.138-.186.108.241-.484.36-.3.264-.073l-.078-.035zm-6.076-3.445c.07.042.06.07.113.17-.006.244-.117.43-.113-.17zm20.043-8.507c.146-.165.158-.1.045.036.103-.064.28-.254.493-.502-.38.592.162.09.523-.253-.034.132-.243.41-.501.727-.15-.069-.634.432-.74.299.2-.223.194-.269.18-.307zm1.22-.812c.08-.015-.046.14-.183.306.387-.325-.411.673-.455.534.34-.385.3-.454.638-.84zm-5.335 8.174c.329-.371.336-.31.621-.62.426-.449.496-.61.919-1.062.344-.354.232-.082.676-.57.05-.213.278-.346.606-.634-.303.088.34-.379.272-.465.363-.356.403-.248.923-.818.16-.245.16-.367.485-.745.513-.425.258-.316.644-.598.266-.499.021-.292.325-.892.43-.366.93-1.245.58-.893.298-.32.58-.625.547-.69-.466.293-.624.193-.6-.068-.362.378-1.004.703-.344-.071-.149.352.24-.077.576-.427-.18.209-.404.455-.301.436.499-.555.131-.011.65-.596-.353.472-.233.325-.094.388.602-.64-.24.097.14-.346.2-.224.388-.125.538-.46-.684.351-.94.212-1.646.883.13-.356-.7-.032-1.338.489.31-.472-.277.129-.048-.264.74-.4 1.121-.451 2.047-1.045-1.024.396-1.747.61-2.953 1.447.057.177.982-.694.553-.01-.3.126-.658.367-.898.406l.538-.692c-.249.113-.914.674-.55.014-.786.948-.296.003-.852.674-.076.011.095-.222.14-.33-1.202 1.54-1.182.947-1.628 1.212.327-.405.518-.693.561-.892-.434.555-.908 1.223-1.233 1.278.217-.265.517-.732.277-.447-.022.038-.43.382-.638.625-.23.09-.198-.378-.923.643.13.15.448-.325.706-.368-.05.257-.4.622-.393.796.328-.455.268-.475.494-.726.26-.025.479-.21.098.497-.122.039-.248.276-.36.39.26-.42.166-.46.242-.686-.63.868-.88 1.075-.688.589-.533.795-.714.63-.887.878.128-.192.121-.11.23-.266.102-.43-.169-.246-.646.216-.417.652.213-.126-.171.512-1.141 1.194-1.291 1.006-1.557.894.311-.421.308-.151.606-.656-.12-.07-.542.54-.852.917.15-.307-.244.209.125-.334-.68.65-.791.509-1.384.841.123-.33.382-.646.378-.793-.103.188-.2.364-.199.292-.145.135.022.074-.228.474-.469-.08-1.705 1.03-1.928.234-.293.39-.583.78-.533.355.227-.635.185-.051.334-.623-.158.36-.11.033-.184.117-.185.394-.285.803-.33.813-.286.246-.518.212-.572-.04.026-.01.056-.035.155-.317-.717 1.124-.927.806-1.206.699-.33.438-.448.368-.487.029-.89.746-1.811.71-2.703.845.036-.218.076-.35.037-.35-.137.6-.131-.063-.177.505-.188-.424-.522.822-.611-.424-.047.634-.081.172-.124.518-.57.087-1.15.057-1.533.453.034-.028.069-.037.07.347-.036-.124.009.827-.026.704-.027-.34-.081-.331-.072-1.227l-.295.009c-.014.12.017.582-.022.702-.28.013-.525-.007-.782.024-.243.018-.5.08-.775.267.013-.013.028.008.055.187-.195.101-.298.135-.508.073.292.813.457.205.63.618-.003.143-.052.077-.03.536.513.755.867.706 1.257.557.382-.135.806-.336 1.174.2.154.22.394.092.569.222.186.137.423-.05.674-.17.249-.134.514-.2.666.196-.591.306-1.113 0-1.71.29-.136.064-.28-.346-.469.157-.045.13.038.279.08.18.051 1.163.223.19.363.19.052-.003.073.416.125.365.068-.065.105.02.15.013 1.097-.135 2.205-.82 3.417-.82.153.004.396-.168.355.332.106-.255.23-.563.223-.478.135.238.613-.365.608.078-.583.411-.954.437-1.513 1.072.304-.187.592-.254.928-.378-.002.04-.073.181-.142.32.727-.914.958-.628 1.218-.575-.767.715-1.135.582-1.808 1.276l-.038-.014c-.098.24-.039.156-.03.176-.021.283.388-.498.116.238-.085-.227-.507.526-.442.011.114-.17.003.167.204-.295-.476.23-.866-.031-1.488.966.113-.19.206-.187.178.051-.565.58-.832.51-1.233.777-.036.023-.237.165-.119.332.242.345.797-.39 1.237-.591 1.075-.492 1.848-1.158 3.28-1.814.414-.178.97-.478 1.59-.87 1.018-.65 2.429-1.637 3.952-2.512.961-.554 2.358-1.52 4.159-2.863z" fill="#D2DCE8" opacity=".4"/><path d="M812.496 569.049c.012.168-.068.211.178.695l-.124.064c-.19-.317-.313-.421-.556-.897.25.123-.018-.565.304-.353-.338-.235-.148-.496-.045-.37.036.164.286.655.069.358.247.329.46.916.664 1.433-.104-.314-.292-.57-.49-.93m-.18-1.695l-.167-.307c-.165-.52.295.004-.093-.755.274.217.066-.135.008-.407.045.023.186.295.216.28-.291-.587.232.114-.323-.825.226.177.233.228.177-.1.824 1.45-.18.681.496 2.139-.215-.429-.217-.284-.385-.59-.052.089.167.534.179.707-.068-.134-.09-.14-.108-.142m-.633-1.051c.233.55.075.583.144.92-.335-.524-.195-.775-.144-.92m.034-.623c.274.526-.041.278.055.572-.29-.547-.207-.742-.055-.572m.35-1.005c-.107-.194-.047-.176.042-.024-.03-.116-.15-.347-.31-.63.417.567.119-.1-.099-.548.103.079.293.367.51.715-.086.113.222.724.076.767-.142-.263-.184-.277-.22-.28m-.195-1.102c-.201-.463.487.612.36.602-.259-.444-.323-.434-.58-.88.002-.075.108.095.22.278m.844 20.388l-.233.086c-.02.163-.099.23-.273.29-.152-.522.376-.594.506-.376m-2.952 4.557c.137-.422.54-1.11.982-.505-.424-.003-.576.474-.982.505m-1.167.704c-.463-.013.293-.233.408-.483.056.645-.319.486-.408.483m-13.97-3.46c.174.037.15.066.286.16 0 .245-.287.443-.285-.16m.572.322c-.102-.12.08.825-.023.704-.094-.336-.233-.321-.252-1.216l-.72.036c-.033.121.037.582-.069.706-.718.057-1.357.04-2.032.04-.63.011-1.3.056-2.09.162.028.01.046.056.045.199-.568.054-.87.065-1.402-.042.37.857 1.154.303 1.456.745-.071.139-.181.064-.335.517 1.226.887 2.52.82 3.773.668 1.263-.166 2.488-.447 3.776-.062.567.185 1.282-.092 1.892-.047.66.051 1.327-.273 2.004-.558.683-.273 1.377-.507 2.145-.319-1.547.771-3.394.802-5.226 1.368-.44.141-1.015-.24-1.549.327-.137.144.186.26.309.148.467 1.117.884.128 1.336.044.18-.031.42.357.591.278.22-.1.387-.038.552-.07 3.967-.791 6.756-2.38 9.915-3.806.418-.197.79-.584 1.391-.277-.084-.261-.2-.572-.1-.52.7-.032.96-.965 1.59-.76-.782.983-1.714 1.438-2.425 2.515.62-.521 1.33-.892 2.02-1.426.053.02.087.174.119.329.495-1.41 1.415-1.542 2.116-1.948-.62 1.36-1.823 1.81-2.691 3.08l-.14.047c.09.243.136.124.197.12.415.15.345-.753.76-.08-.627.05-.742.963-1.39.657.09-.241.284.068.172-.426-1.157.823-2.741 1.144-3.733 2.577.182-.26.529-.37.77-.204-1.38 1.107-2.704 1.43-4.226 2.073-.14.06-.95.416-.2.4 1.655-.028 3.337-1.284 4.748-2.018 3.525-1.868 4.921-3.342 7.346-5.762.697-.72 1.401-1.637 1.882-2.621.797-1.633 1.224-3.742 1.44-5.761.134-1.314-.12-3.106-.865-5.235-.29-.405-.212-.406-.451-.753-.34-.519-.496-.616-.833-1.134-.263-.42-.004-.255-.38-.797-.213-.093-.275-.352-.475-.737-.004.319-.292-.418-.402-.371-.257-.44-.137-.45-.573-1.089-.202-.213-.32-.246-.607-.655-.293-.594-.243-.33-.43-.765-.406-.393-.265-.106-.746-.57-.255-.502-.936-1.242-.685-.816-.228-.37-.448-.724-.505-.718.185.507.075.612-.136.497.262.452.42 1.143-.11.275.266.26-.025-.242-.263-.664.144.234.312.522.314.425-.384-.641.008-.117-.398-.786.336.481.233.322.302.225-.445-.758.049.245-.263-.25-.155-.257-.057-.379-.308-.634.21.715.063.884.494 1.759-.258-.24-.158.577.118 1.348-.322-.462.038.294-.236-.068-.153-.809-.1-1.138-.44-2.171.159 1.03.168 1.714.527 3.13.173.022-.312-1.149.152-.49.025.314.125.73.08.963l-.425-.767c.026.264.285 1.097-.156.492.546 1.108-.094.266.278 1.047-.02.07-.157-.185-.234-.274.874 1.745.337 1.464.363 1.983-.208-.48-.377-.78-.53-.912.29.643.66 1.373.538 1.695-.128-.318-.394-.805-.261-.456.024.037.122.566.225.87-.05.257-.445.013.046 1.157.228-.046-.024-.571.087-.83.21.162.346.651.516.72-.237-.507-.289-.46-.394-.783.125-.256.067-.538.527.122-.033.133.124.352.166.507-.254-.423-.346-.353-.516-.523.458.971.494 1.303.146.911.43.855.138.969.264 1.245-.1-.208-.025-.167-.103-.341-.353-.285-.362.04-.267.708.33.7.038-.258.386.4.302 1.64-.082 1.73-.443 1.948-.143-.511.132-.383-.118-.913-.177.087.062.792.15 1.284-.173-.294-.02.347-.225-.282.004.997-.281 1.019-.606 1.782-.203-.293-.24-.711-.394-.785.08.198.152.387.078.347-.025.214.1.018.23.475-.57.437-1.115 2.236-2.238 1.995-.035.508-.1 1.022-.436.698-.27-.62.222-.196-.105-.704.114.375-.126.117-.154.236.098.425.34.785.28.831-.2.42-.615.615-.93.494.031-.033.057-.075-.045-.356-.101 1.426-.823 1.35-1.384 1.51-.21.598-.5.67-.84.416-1.037 1.25-2.993 1.937-4.869 2.47-.029-.22-.007-.363-.091-.342-.011.625-.31.01-.149.559-.574-.288-.86 1.03-1.523-.133.114.627-.123.196-.102.544-1.285.339-2.654.406-3.56.878.084-.03.165-.042.195.341" fill="#D2DCE8"/><path d="M771.387 574.151c-.075-.035-.16.044-.264.298-.015.19.145.118.264-.298" fill="#231F20"/><path d="M751.997 614.378c-.07-.195-.031-.184-.024-.369.216-.113.554.083.024.37m-10.39-18.503l.175.228c.17-.02.264.048.39.217-.457.295-.731-.254-.565-.445m-15.31 3.344c.024-.323-.616.058-.527-.36-.107.439-.482.216-.39.077.166-.054.596-.398.366-.107.252-.33.808-.631 1.286-.922-.3.151-.501.402-.808.674.178-.027.262.07.686-.272l.122.148c-.262.263-.324.422-.736.762m-2.76.522c.51-.317.616-.111.963-.216-.43.452-.78.28-.964.216m-.185-.489c.12-.358-.182-.08-.464-.003.006-.059.25-.246.218-.284-.532.383.023-.302-.79.423.098-.292.153-.302-.196-.23 1.273-1.076.86.235 2.194-.67-.383.289-.221.286-.487.511.122.066.521-.229.709-.25-.118.092-.118.12-.109.143l-.268.226c-.51.226-.13-.381-.807.134m-.535.454c.467-.365.335.05.622-.081-.48.39-.744.281-.622.081m-1.317-.463c-.174.136-.182.056-.048-.059-.12.037-.33.192-.58.4.457-.542-.175-.159-.594.116.042-.136.288-.382.59-.658.171.12.735-.277.85-.086-.235.184-.232.238-.218.287m-1.187.229c-.445.25.483-.628.53-.458-.395.328-.352.416-.748.744-.09-.006.058-.143.218-.286m26.873-1.762c-.458-.01-1.28-.228-.864-.86.16.439.676.453.864.86m1.144.968c.173.475-.342-.223-.628-.263.595-.262.593.169.628.263m8.051 21.221c.486-.836-.459-1.297-.27-1.831.16-.006.165.142.64.048-.028-3.321-3.107-4.839-3.78-7.755-.142-.644-.751-1.25-1.027-1.886-.6-1.37-2.492-2.158-2.848-3.885 1.438 1.305 2.384 3.162 3.846 4.759.35.38.32 1.12 1.11 1.394.2.07.135-.303-.031-.373.753-.967-.357-.925-.661-1.344-.12-.167.108-.575-.05-.71-.201-.176-.23-.368-.343-.52-2.696-3.614-5.432-5.906-8.116-8.817-.357-.382-.884-.666-.824-1.386-.222.163-.481.37-.468.25-.312-.725-1.321-.767-1.36-1.49 1.255.587 2.075 1.438 3.397 1.866-.744-.496-1.394-1.128-2.175-1.716 0-.063.14-.138.279-.213-1.564-.155-2.056-1.104-2.698-1.762 1.563.352 2.456 1.498 4.02 2.053l.1.133c.203-.162.069-.178.042-.239-.012-.47-.869-.151-.362-.768.28.645 1.216.496 1.164 1.253-.269-.022-.042-.312-.48-.054 1.235.962 2.192 2.497 3.965 3.018-.323-.095-.575-.41-.512-.71 1.618 1.023 2.478 2.227 3.758 3.485.116.115.804.775.455.043-.758-1.609-2.64-2.817-3.91-4.006-3.182-2.966-5.105-4.001-8.333-6.022-.945-.586-2.094-1.152-3.244-1.5-1.906-.573-4.203-.753-6.408-.807-1.422-.032-3.261.376-5.37 1.31-.35.352-.377.26-.684.55-.46.414-.515.604-.977 1.016-.375.323-.284.006-.76.464-.025.26-.294.337-.657.58.364.008-.364.357-.269.492-.402.315-.46.165-1.021.696-.166.25-.155.398-.51.752-.566.353-.279.299-.707.522-.281.51-.009.338-.338.948-.476.308-1.03 1.171-.644.863-.332.282-.646.556-.612.634.516-.215.69-.062.657.219.408-.327 1.14-.508.378.165.177-.347-.272.022-.654.32.207-.184.463-.395.349-.401-.57.483-.145-.021-.736.49.404-.428.267-.298.117-.397-.68.555.267-.05-.166.34-.228.196-.424.05-.602.378.75-.23 1.023-.017 1.838-.56-.158.344.76.24 1.515-.117-.378.42.323-.047.037.314-.859.192-1.275.113-2.324.518 1.14-.16 1.939-.153 3.383-.628-.056-.228-1.168.409-.633-.203.348-.031.774-.164 1.059-.107l-.67.566c.289-.034 1.11-.387.634.203.992-.736.345.12 1.05-.387.088.024-.134.21-.198.312 1.545-1.195 1.48-.5 2.041-.563-.432.295-.687.527-.76.732.575-.41 1.21-.928 1.618-.796-.29.185-.704.558-.38.364.029-.034.562-.196.847-.351.3.038.214.562 1.23-.163-.152-.278-.604.086-.935-.031.082-.276.553-.488.554-.706-.446.339-.372.4-.677.559-.333-.136-.616-.043-.098-.668.158.03.33-.182.479-.248-.35.35-.234.46-.343.685.854-.65 1.196-.728.923-.261.736-.611.978-.268 1.22-.451-.179.146-.167.049-.32.163-.155.46.202.435.873.24.604-.487-.292-.014.26-.515 1.616-.57 1.86-.141 2.238.256-.473.246-.455-.1-.906.275.167.2.804-.19 1.278-.372-.234.251.37-.029-.198.31 1.034-.163 1.181.16 2.102.395-.216.293-.63.412-.64.605.171-.128.333-.247.324-.154.23-.01-.025-.12.39-.357.689.597 2.753.811 2.996 2.147.527-.084 1.07-.142.898.32-.495.46-.296-.204-.656.294.324-.223.175.114.308.117.378-.22.627-.584.7-.527.507.117.886.53.91.916-.047-.026-.1-.044-.332.147 1.45-.268 1.711.536 2.13 1.115.68.055.878.353.803.806 1.71.747 3.3 2.627 4.793 4.414-.188.118-.331.15-.269.23.584-.232.173.332.596-.06.035.735 1.396.492.695 1.674.508-.383.246.047.551-.122.998 1.217 1.842 2.605 2.776 3.32-.075-.07-.132-.148.19-.359-.047.16.683-.467.635-.307-.243.254-.15.39-.93.83l.452.722c.125-.026.49-.317.66-.27.92 1.414 1.453 2.612 2.756 4.183.05-.114-.305-.098.025-.3.398.53.593.82.832 1.402" fill="#D2DCE8"/><path d="M811.913 633.812c-.027-.134.006-.131.047-.266.216-.112.485-.015-.047.266m-4.91-12.568l.09.156c.154-.027.218.018.282.133-.483.248-.571-.137-.373-.289m-14.399 3.174c.114-.247-.56.056-.36-.266-.222.338-.488.174-.368.065.163-.044.643-.316.355-.087.319-.26.897-.5 1.402-.73-.308.122-.558.317-.908.53.166-.023.21.05.683-.22l.065.11c-.308.207-.408.33-.869.598m-2.588.44c.542-.249.575-.09.913-.176-.513.354-.771.226-.913.176m-.018-.376c.213-.28-.135-.063-.407-.001.024-.047.292-.19.277-.222-.582.3.11-.234-.821.331.173-.227.224-.234-.104-.176 1.441-.838.688.178 2.13-.53-.424.225-.28.222-.58.399.086.049.525-.182.696-.2-.132.071-.138.093-.139.11l-.303.178c-.514.178.002-.294-.749.111m-.605.353c.521-.286.28.037.572-.066-.538.305-.737.223-.572.066m-1.021-.356c-.194.107-.18.045-.027-.044-.117.029-.348.147-.631.31.565-.42-.107-.125-.559.087.08-.105.37-.295.72-.51.11.097.729-.214.774-.064-.264.142-.276.184-.277.221m-1.117.175c-.466.193.616-.486.606-.353-.448.253-.437.322-.883.575-.078-.004.094-.11.277-.222m23.618-3.05c.022.309.47.277.526.556-.4.034-1.061-.059-.526-.556m1.283 1.157c.03.33-.241-.13-.484-.134.594-.244.48.068.484.134m2.749 14.428c.578-.684-.2-.87.06-1.286.146-.03.125.077.57-.066.542-2.39-1.95-3.037-1.956-5.084-.002-.447-.412-.817-.525-1.245-.243-.92-1.758-1.28-1.67-2.51.97.803 1.407 2.044 2.376 3.022.232.233.059.772.71.866.166.025.182-.237.048-.266.872-.803-.135-.619-.317-.888-.071-.106.22-.431.109-.51-.143-.101-.128-.238-.195-.333-1.624-2.29-3.495-3.683-5.103-5.6-.211-.253-.602-.42-.356-.955-.239.137-.523.31-.48.221-.084-.506-.95-.47-.788-.999.935.347 1.434.906 2.481 1.112-.52-.304-.93-.712-1.45-1.089.015-.046.16-.112.301-.177-1.325 0-1.5-.664-1.868-1.113 1.26.165 1.73.938 2.95 1.226.019.03.035.06.052.089.223-.135.109-.136.1-.178.117-.341-.723-.04-.107-.533.067.45.933.264.683.823-.23.006.046-.226-.407-.001.82.605 1.272 1.64 2.705 1.846-.263-.036-.407-.24-.272-.467 1.168.587 1.63 1.369 2.467 2.134.076.07.527.47.394-.022-.292-1.072-1.658-1.743-2.472-2.488-2.03-1.86-3.425-2.468-5.653-3.759a8.69 8.69 0 0 0-2.375-.936c-1.48-.337-3.41-.393-5.305-.385-1.217.006-2.938.34-5.07 1.058-.42.269-.413.198-.77.42-.534.317-.641.46-1.174.775-.429.246-.25.005-.81.354-.105.199-.363.258-.757.443.317.007-.43.273-.39.377-.449.24-.453.124-1.11.53-.223.19-.26.307-.68.577-.606.268-.338.228-.783.399-.405.392-.111.26-.588.73-.512.234-1.265.9-.83.665-.379.217-.739.425-.731.488.518-.162.625-.041.51.177.458-.25 1.156-.386.28.134.264-.27-.243.014-.67.244.236-.143.527-.305.428-.312-.648.372-.12-.016-.795.377.485-.33.324-.23.224-.31-.768.427.25-.036-.25.266-.261.15-.39.032-.645.287.73-.171.906 0 1.787-.419-.245.269.6.192 1.37-.086-.457.327.298-.035-.06.244-.814.148-1.161.088-2.206.396 1.054-.116 1.76-.11 3.173-.484.016-.177-1.15.32-.5-.156.318-.025.734-.13.966-.087l-.757.442c.264-.026 1.09-.305.497.156 1.09-.577.268.091 1.04-.309.07.018-.18.164-.264.244 1.71-.94 1.45-.405 1.964-.463-.467.233-.758.417-.883.575.626-.324 1.336-.733 1.657-.64-.31.148-.78.442-.441.287.036-.026.552-.16.849-.287.252.023.024.43 1.128-.153-.056-.207-.556.08-.813-.001.153-.215.629-.388.692-.554-.49.268-.444.315-.757.442-.254-.097-.53-.02.108-.51.13.02.343-.145.493-.2-.41.277-.34.358-.501.532.94-.516 1.263-.584.887-.22.825-.486.936-.228 1.203-.376-.201.117-.162.042-.329.133-.27.356.053.327.7.156.67-.389-.252 0 .377-.399 1.586-.485 1.677-.172 1.895.115-.485.205-.372-.058-.873.243.088.145.76-.173 1.228-.331-.277.2.333-.038-.263.242.954-.165.997.07 1.742.204-.27.23-.669.34-.73.487.186-.107.362-.203.329-.134.206-.018.01-.089.441-.287.438.421 2.209.459 2.065 1.446.489-.098.984-.179.713.178-.558.379-.212-.131-.658.266.344-.189.126.073.243.066.391-.19.706-.48.758-.442.418.052.645.333.566.622-.033-.017-.076-.026-.329.133 1.348-.304 1.385.268 1.61.668.592-.016.689.191.515.534 1.345.404 2.31 1.65 3.264 2.8-.193.106-.33.146-.29.2.571-.236.083.224.545-.11-.13.54 1.142.202.268 1.154.537-.343.21.006.52-.154.635.778 1.13 1.686 1.83 2.087-.054-.041-.09-.09.238-.288-.072.124.704-.433.633-.309-.268.217-.209.303-.996.73l.273.467c.117-.035.5-.298.646-.288.56.908.83 1.703 1.747 2.644.065-.09-.259-.024.074-.222.272.324.399.504.52.888" fill="#D2DCE8" opacity=".4"/></g></g></svg>