<svg width="1440" height="959" xmlns="http://www.w3.org/2000/svg"><g fill="none" fill-rule="evenodd"><path d="M393.743 636.27c-.552 4.691-3.762 4.564-5.925 6.337-1.7-1.166-3.341-2.355-5.062-3.515.313-2.09-.21-3.71.383-5.956 2.727-2.071 9.228.19 10.604 3.134zm20.873 9.573c-1.049 2.364-3.362 2.415-6.255 1.393.509-3.351 3.35-2.431 6.255-1.393zm-15.757 2.355c-2.403-.639-4.816-1.266-5.357-3.012 1.41-6.676 7.852-2.276 5.357 3.012zm4.925-4.357c2.075.52 2.01 4 .482 5.108-3.27-.246-1.581-3.557-.482-5.108zm-76.479-14.787c2.348 1.381 2.443 4.11 1.715 7.31-.927-2.22-3.1-3.72-1.715-7.31zm28.81 20.206c2.1 1.43 3.608 3.193 2.42 6.399-2.856-.894-4.186-4.765-2.42-6.4zm-27.266.207c-2.316-.767-2.817-4.553-.395-5.104 1.886.747.863 3.087.395 5.104zm-15.297-5.926c.625 1.094-.18 2.98-.67 4.692-2.97-.518-3.866-2.171-2.676-5 .884-.318 1.938-.336 3.346.308zm15.586 6.977c2.902.98 4.395 2.73 2.872 6.082-.928.478-2.369.043-3.859-.475-.518-1.425-.86-4.473.987-5.607zm112.918 37.193c-.534 3.211-2.191 4.205-4.96 2.962-1.501-3.375 3.196-6.171 4.96-2.962zm-185.521-52.338c-.266 1.95-1.67 1.556-3.163.952.16-.595.328-1.199.493-1.794.916-.546 2.183-.147 2.67.842zm-31.632-8.593c1.765.716 1.454 4.017-.182 5.023-1.444-.211-2.272-.764-2.824-1.452.388-2.296 1.996-2.403 3.006-3.571zm91.941 32.144c-.298 1.028-.602 2.055-.897 3.087-1.564.762-5.519.482-6.898-1.37-1.796-6.773 7.079-6.852 7.795-1.717zm-36.443-6.55c-.341 1.174-.68 2.337-1.01 3.51-3.043 1.711-8.246-1.678-7.881-4.911 1.34-3.87 7.949-1.429 8.891 1.4zm27.722 14.377c1.236 5.053 3.345 9.567 4.552 14.655-6.32.472-6.635-9.894-4.552-14.655zm150.864 61.596c1.587 1.513 1.71 3.753-.236 5.016-2.62-.62-1.597-4.395.236-5.016zm-189.73-54.791c-.41 1.987-1.513 2.675-3.173 2.284.406-1.979 1.518-2.67 3.172-2.284zm-14.174.888c2.66.783 5.557 1.44 7.159 2.827-.065 2.06.452 5.672-1.382 7.073-3.153-2.61-5.853-5.482-5.777-9.9zm-32.568 7.54c-.224-5.418-5.65-7.916-6.012-13.254 3.254-1.187 3.433 3.054 6.103 3.84 2.118-1.375 4.05-7.316 7.04-3.948-1.59 5.939-3.72 10.87-7.13 13.363zm231.325 65.504c-3.502.935-5.318-2.799-5.283-5.44 1.78.02 5.983 2.42 5.283 5.44zm50.45 21.93c-1.518 3.356-9.243 2.576-7.702-2.2 2.898-.018 6.108.349 7.703 2.2zm-287.337-81.146c2.84 1.106.573 5.364.697 8.151-4.15-.116-2.382-6.06-.697-8.151zm230.836 72.044c.58.169 1.157.347 1.733.516-.281 1.614-.947 2.515-2.424 1.88.233-.795.46-1.593.691-2.396zm-262.52-63.37c-2.136-1.286-8.651-1.516-7.166-5.916 3.6-.204 7.784 2.442 7.166 5.917zm13.322 7.932c-3.523-1.388-6.07-3.303-5.358-7.031 4.077-4.613 11.11 3.62 5.358 7.031zm241.65 86.692c-1.28.37-3.645 1.006-4.591-.76.5-4.982 7.336-4.989 4.592.76zm33.385 16.59c2.517 1.124 1.526 3.799-.114 5.034-1.49-.784-1.518-3.942.114-5.033zm23.773 17.48c-2.182-3.763-4.88-.188-8.96-2.13.105-1.366-.8-2.094-.25-3.762 4.61.286 9.464-.702 9.21 5.891zm-18.798-3.015c-1.053.384-1.787 1.343-2.682 2.015-1.838-.797-2.848-2.06-3.1-3.74 1.126-4.274 6.87-2.1 5.782 1.725zM153.12 724.404c-2.24-.43-3.178.05-4.83-1.427.408-3.018 5.476-.524 4.83 1.427zm6.16.415c-.966 2.01 1.15 1.837.191 3.846-2.4-.576-3.366-2.188-4.384-3.758 1.075-.804 2.518-.735 4.193-.088zm21.29 12.634c-.023 1.735-1.631.822-2.004 1.974-1.606-.524-2.218-1.552-1.842-3.057 1.548.247 2.992-.39 3.846 1.083zm274.76 87.463c1.645.376 3.092.87 2.304 2.656-1.42.843-3.626-.425-2.303-2.656zm-329.118-97.668c.012 1.43.23 3.825-1.453 4.602-2.463-.18-2.628-1.421-3.655-2.258.475-2.706 2.176-3.484 5.108-2.344zM434.7 821.877c4.223 5.5 13.22 8.328 13.513 16.036-4.894-4.61-11.43-8.312-16.363-12.903.931-1.075 1.914-2.047 2.85-3.133zm39.276 26.726c-2.279-1.099-4.423-2.26-5.505-3.937 2.658-2.27 5.226 2.103 5.505 3.937zm-2.077 14.777c-5.794-.123-11.09-4.872-11.756-9.758 4.277-2.704 11.814 4.81 11.756 9.758zM164.453 765.72c6.351 2.52 4.953 9.268 7.158 14.058-2.053 2.482-4.698 3.885-7.446 5.088-5.032-3.688-7.622-16.123.288-19.146zm212.214 78.296c2.345.41 2.457 2.112 3.654 3.187-2.256 5.634 1.473 10.368-2.35 15.174-4.598-3.709.022-12.76-1.304-18.36zm24.945 8.555c.564.174 1.129.338 1.693.511.452.88.046 2.233-.437 3.652-3.063.07-2.956-3.07-1.256-4.163zm-260.68-69.96c.58.164 1.16.328 1.738.5-.36 1.64-.843 3.092-2.573 2.297-.525-.948-.124-2.291.835-2.797zm30.93 13.673c.205 2.823.334 3.663-1.563 5.601-2.595-.336-2.84-2.096-3.289-3.738.786-2.305 2.42-2.9 4.851-1.863zm-44.438-12.542c.582.17 1.161.334 1.744.499-.562.703-.18 3.001-1.404 2.55-2.114.001-.391-1.955-.34-3.05zm264.995 84.714c-.804 1.896-2.101 2.718-3.882 2.474-1.441-3.015 2.645-5.222 3.882-2.474zm-27.088 13.103c-4.768.873-4.145-5.194-8.19-6.384 2.963-3.917 8.644 2.352 8.19 6.384zm-143.191-30.19c-5.347 5.059-14.132 3.797-20.446 7.094-.43 1.418.51 2.09-.457 3.816-1.734.548-2.734 2.423-5.116 1.772 4.1-6.427 8.54-12.224 16.08-12.349-2.611-8.398 9.104-4.923 9.939-.333zm-94.002-29.153c.908 1.227 2.347 2.174 1.403 4.386-1.533 1.18-4.172.34-5.768-1.033.773-2.335 2.736-2.529 4.365-3.353zm285.34 87.712c4.477 7.256-9.325 19.123-15.247 10.579 1.587-6.475 6.97-13.028 15.247-10.58zm-69.664-15.998c1.835.964 2.735 2.448 1.724 4.969-3.45 1.121-4.85-3.912-1.724-4.969zM182.522 849.22c.975.458 1.02 1.431.466 2.744-.58-.17-1.16-.35-1.738-.526.122-1.322.86-1.46 1.272-2.218zm40.172 18.037c.357 2.259-.567 2.99-2.006 4.319-4.87-1.051-3.428-7.255 2.006-4.32zM91.384 832.3c.582.173 1.155.347 1.733.52-.527 3.9-4.038 6.12-6.174 3.99.671-3.052 3.679-1.645 4.442-4.51zm95.118 35.529c-1.08 2.63-2.834 4.08-5.317 4.253-.93-2.991 2.397-5.102 5.317-4.253zm39.35 16.59c1 .105.842.924 1.573 1.19-.472 3.404-3.395 1.81-4.757 3.411-2.275-1.93 2.368-2.76 3.184-4.6zm-34.371-2.807c1.201.097 1.312.878 1.988 1.306-.533 1.798-1.14 3.42-3 2.404-.824-1.67.75-1.684 1.012-3.71zm117.297 35.895c-.548 2.467-1.526 4.181-3.438 4.338-1.192-.257-1.145-1.146-2.422-1.353-1.8-3.817 3.4-6.46 5.86-2.985zM201.63 889.52c-.988 2.386-3.207 2.815-4.728 1.327-1.546-6.07 5.461-6.929 4.728-1.327zm-21.742-3.374c-.522 2.584-1.376 4.598-3.425 4.46-1.638-.367-1.712-1.57-2.856-2.205-.161-4.505 4.267-4.637 6.281-2.255zm120.094 36.468c-2.915 3.757-9.548 5.634-14.523 2.742 1.603-2.682 9.974-5.275 14.523-2.742zm-199.321-27.48c-1.145-8.03 4.075-29.11 13.814-22.548 1.806 8.596-.942 30.204-13.814 22.548zm104.776 11.662c2.65.887 4.008 4.758 2.615 6.426-2.883-.903-3.74-3.061-2.615-6.426zm-6.067 4.196c3.262.551 2.244 4.12-.795 2.771-.471-.933-.092-2.249.795-2.77zm130.482 41.397c-2.1.117-1.38-.352-3.611-1.062.182-.602.352-1.205.526-1.798 1.513-.757 4.69.413 3.085 2.86zm4.028-.98c-.891 3.105 4.292 4.927 2.043 7.05-2.515-1.47-2.146-4.605-5.89-5.37.616-1.861 1.666-2.883 3.847-1.68zm-177.377-49.76c-.816 2.68-2.197 4.438-5.2 3.521-1.038-2.817 2.78-6.214 5.2-3.52zm17.72 21.966c1.203.965 1.457 3.966-.112 5.02-3.486-.2-1.458-4.499.111-5.02zm-14.717-3.078c1.504.737 2.133 1.99 1.896 3.739-.69 1.936-2.006 2.652-4.07 1.893-.241-1.971.475-5.043 2.174-5.632z" fill="#6F779A" opacity=".24"/><path d="M1040.285 67.99c.257.31-.415-.363-.62-.563-1.34.513-2.595 1.25-3.622 2.24-2.28 2.202-3.724 4.114-6.062 5.937-.308.245-.221.879-1.089.584-.617-.208-1.044-.165-1.366-.032-.462.19-.722.536-1.684.346 0 .138-.922-.79-.968-.792-.335-.151-.484-.115-.847-.294-1.772-1.568-1.019-1.155-.876-1.217.27-.118-.35-1.098.097-1.065-.286-.301-.78-.605-.917-.849.25-.691-.072-1.59.59-1.921-.765-.641-.156.183-.67-.188.164-.43.027-1.225-.002-1.862-.01-.236.443-.051.497-.235.338-1.196.928-2.227 1.486-3.396.495-1.04 1.324-1.686 1.646-2.85 1.041.34 1.072-.37 1.2-.886 1.41-.282 2.016-1.758 3.552-2.204a9.037 9.037 0 0 0 2.476-1.101c.383-.252 1.238.023 1.997.193.401.09.53-.13.816-.155.355-.031.354-.43 1.412.443.305-.483 1.296.097 1.746-.375 1.274 1.332 1.662 1.394 3.038 2.894.834 1.091.708 1.188 1.232 1.955-.147.166.098.828.294 1.381.12.342-.382-.101-.55-.084-.33.03-.356.525-.532.72-.295.325-.02 1.242-.222 1.562-1.023.15-2.03.41-2.356 1.526.048.026.286.3.304.287" fill="#D2DCE8" opacity=".4"/><path d="M1036.821 106.477c.033.403-.189-.522-.26-.803-2.223-.178-4.53-.145-6.8.204-5.042.778-8.806 1.648-13.537 1.877-.628.03-1.212.621-1.912-.127a2.538 2.538 0 0 0-1.552-.815c-.737-.107-1.417.024-2.303-.698-.15.113-.193-1.2-.244-1.228-.213-.323-.421-.381-.635-.745-.308-2.346.09-1.557.314-1.524.425.062.757-1.114 1.217-.82-.005-.418-.237-.96-.137-1.244.989-.424 1.543-1.358 2.606-1.245-.202-.976-.356.061-.55-.547.614-.258 1.253-1.004 1.846-1.55.22-.202.542.216.783.091 1.544-.808 3.196-1.34 4.927-2.024 1.535-.607 3.077-.707 4.509-1.538.875.852 1.564.257 2.175-.125 1.885.503 3.905-.48 6.102-.098 1.332.233 2.643.31 3.905.242.679-.036 1.474.615 2.26 1.128.414.27.762.135 1.134.246.464.137.8-.224 1.37 1.054.791-.294 1.54.682 2.512.455.48 1.787.926 2.017 1.41 4 .137 1.366-.114 1.4-.105 2.333-.344.09-.613.803-.855 1.398-.15.367-.416-.26-.652-.32-.463-.12-.95.319-1.363.42-.684.164-1.176 1.124-1.744 1.322-1.495-.331-3.042-.568-4.537.277.036.047.08.407.116.404" fill="#D2DCE8"/></g></svg>