<svg width="660" height="660" xmlns="http://www.w3.org/2000/svg"><path d="M177.257 231.388c.573-.219 1.065-.126 1.476.162 1.335.935 1.82 3.933 1.452 5.047-2.421.58-3.042-3.376-2.928-5.21zm18.539-15.43c.075.045.15.093.223.144.564.395 1.045 1.023 1.372 2.103-1.041.677-1.869.791-2.612.637-.508-1.282-.17-2.245 1.017-2.883zm-87.91 19.65c-1.78 1.546-3.864-3.07-1.563-3.46 1.358 1.253.849 1.603 1.563 3.46zm83.676-47.045c1.184-.472 2.514-.212 3.548.511 1.098.77 1.863 2.064 1.763 3.562-1.853-.718-5.266-1.861-5.311-4.073zm-96.37 45.884c.171.084.3.157.395.224.594.416-.064.606.497 1.747-1.664 1.268-2.908-1.49-.891-1.971zm119.39-61.65c1.373-.832 2.439-.795 3.304-.19.727.51 1.314 1.42 1.822 2.555-2.344 1.005-3.904-.199-5.126-2.364zM92.166 223.882c.429.03.818.182 1.164.425 2.322 1.625 2.741 7.345.492 8.389-3.763 1.756-9.353-6.568-1.656-8.814zm76.3-35.127c.816.2 1.988.522 2.885 1.15.876.613 1.49 1.517 1.251 2.88-1.76.031-4.065-2.838-4.136-4.03zm36.321-19.693c1.936-.432 3.124-.265 3.778.194.94.659.78 1.917.167 2.858-1.084 1.661-3.585 2.33-3.945-3.052zm-60.816 10.346c4.455-3.722 9.908-3.2 13.745-.513 2.165 1.516 3.816 3.722 4.482 6.243 1.972 7.447-4.905 12.45-12.37 13.69-5.105-2.211-7.352-4.369-9.608-11.032 2.19-2.832 1.408-6.433 3.75-8.388zm-36.16 31.625c.276.024.557.148.835.343 1.44 1.008 2.803 3.93 2.793 5.129-1.142.98-1.402-.525-2.354-.08.285-2.424-1.177-3.258-1.274-5.392zm32.763-9.602c-2.138.052-4.313-4.607-2.2-6.156 1.244 2.252 1.708 4.197 2.2 6.156zm-63.86 21.655c1.31-.011 2.62-.022 3.67.713.08.056.158.116.235.18-3.55 1.428-6.705 1.742-8.937-.548.263-.448.539-.887 1.206-1.178 1.073.854 2.45.843 3.827.833zm86.2-83.914c2.908.094 6.04.235 8.164 1.722 1.084.76 1.905 1.868 2.301 3.5 1.288 5.264-5.379 8.21-9.792 5.264-2.146-4.23-.188-6.89-.672-10.486zm69.916-24.88c.716-.714 1.563-1.36 2.277-.86.284.199.548.579.772 1.208-1.321.747-2.577 1.3-3.05-.349zm-127.861 60.876c.803-.772 1.852-1.708 2.722-1.099.208.146.405.38.586.723-.381 1.105-2.873 2.438-3.308.376zM53.922 199.47c.78-.164 1.914-1.32 2.495-.913.163.114.281.35.338.763-1.018.873-2.004 2.169-2.833.15zm-18.032 4.986c.043.027.084.054.123.081 1.382.97 1.327 2.476.663 3.558-.661 1.079-1.928 1.735-2.974 1.01l-.018-.013c-.455-.322-.866-.906-1.166-1.833.387-1.214 1.438-2.18 3.372-2.803zm63.861-37.011c.822-.556 1.484-.659 1.987-.307.346.242.617.7.813 1.375-1.391.94-2.325.584-2.8-1.068zm-17.846-2.31c.609-.382 1.086-.388 1.465-.123.363.254.638.757.857 1.42-.477.229-.954.456-1.428.682-.3-.66-.596-1.317-.894-1.98zm-15.617 2.636l1.91-.91c.666.938.261 1.466.412 2.206-1.19.746-1.88.06-2.322-1.296zm-26.37 8.351c-2.455.474-2.395-2.718.068-2.429l.667 1.48c-.593.185-.802.513-.736.949zm20.036-18.545c1.178-.473 2.302-.801 3.109-.235.358.252.656.678.868 1.347-.366 1.052-2.795 2.212-3.818 1.817-1.117-1.387.062-1.887-.159-2.93zm-6.839.256c.35-1.096 2.248-1.596 3.595-2.31 1.341 2.582-.662 5.816-3.178 4.517.17-.62.005-1.36-.417-2.207z" fill="#1694FF" fill-rule="evenodd" fill-opacity=".48"/></svg>