<svg width="32" height="32" xmlns="http://www.w3.org/2000/svg"><g fill="none" fill-rule="evenodd"><path d="M31.29 11.29A7.981 7.981 0 0 1 24 16c-4.42 0-8-3.58-8-8 0-3.25 1.93-6.04 4.71-7.29 5.05 1.55 9.03 5.53 10.58 10.58" fill="#D2DCE8"/><path d="M16 8c0 4.42-3.58 8-8 8-3.25 0-6.04-1.93-7.29-4.71C2.26 6.24 6.24 2.26 11.29.71A7.981 7.981 0 0 1 16 8" fill="#1694FF"/><path d="M16 24c0 3.25-1.93 6.04-4.71 7.29A16.004 16.004 0 0 1 .71 20.71 7.981 7.981 0 0 1 8 16c4.42 0 8 3.58 8 8" fill="#D2DCE8"/><path d="M31.29 20.71a16.004 16.004 0 0 1-10.58 10.58A7.981 7.981 0 0 1 16 24c0-4.42 3.58-8 8-8 3.25 0 6.04 1.93 7.29 4.71" fill="#1694FF"/></g></svg>
